<?xml version="1.0" encoding="UTF-8" standalone="no"?>
<!DOCTYPE svg PUBLIC "-//W3C//DTD SVG 1.1//EN" "http://www.w3.org/Graphics/SVG/1.1/DTD/svg11.dtd">
<svg xmlns="http://www.w3.org/2000/svg" version="1.1" viewBox="0.00 0.00 1000.00 281.00">
<rect fill="#0081c2" x="-10.90" y="-10.48" transform="translate(899.98,54.58) rotate(0.4)" width="21.80" height="20.96" rx="9.58"/>
<path fill="#232f3e" d="
  M 0.00 149.66
  L 0.00 143.47
  C 0.72 140.96 0.81 138.13 1.69 135.92
  Q 6.86 122.81 20.72 118.49
  Q 27.79 116.29 29.72 116.17
  C 32.94 115.98 35.98 115.18 39.11 114.99
  Q 43.30 114.74 47.42 113.85
  Q 47.84 113.76 47.88 113.33
  C 48.55 105.90 47.68 97.12 38.75 96.14
  Q 26.40 94.78 23.46 106.48
  C 23.07 108.07 21.57 108.91 19.89 108.62
  C 16.17 108.00 12.28 108.08 8.51 107.28
  C 5.49 106.64 1.93 107.64 2.92 102.64
  C 5.14 91.44 13.44 83.15 24.50 80.23
  C 40.96 75.89 67.90 78.39 70.09 100.44
  C 71.41 113.64 70.76 127.22 70.82 140.50
  C 70.86 147.40 73.96 151.22 77.35 156.74
  A 2.35 2.34 -36.4 0 1 76.89 159.74
  Q 70.96 164.91 64.91 170.25
  C 64.13 170.93 63.34 171.19 62.42 171.55
  Q 61.98 171.72 61.56 171.52
  C 57.45 169.58 53.87 164.79 51.70 160.93
  A 0.70 0.69 52.1 0 0 50.60 160.79
  C 44.35 167.23 37.26 171.72 28.00 171.95
  C 24.52 172.04 21.00 172.22 17.74 171.44
  Q 5.85 168.60 1.61 157.07
  C 0.83 154.94 0.65 152.10 0.00 149.66
  Z
  M 33.43 155.53
  C 40.59 155.65 45.74 148.60 47.04 142.25
  Q 48.52 135.06 47.87 127.68
  Q 47.83 127.21 47.35 127.20
  C 37.11 127.14 24.37 129.77 23.89 142.12
  C 23.64 148.63 25.54 155.40 33.43 155.53
  Z"
/>
<path fill="#232f3e" d="
  M 260.84 113.49
  C 261.41 104.32 260.03 95.75 249.13 95.91
  Q 238.60 96.05 236.41 106.74
  A 2.65 2.65 0.0 0 1 233.11 108.76
  C 229.87 107.85 226.39 108.09 223.10 107.49
  Q 220.51 107.03 218.28 106.96
  A 2.67 2.66 -85.5 0 1 215.71 103.95
  C 218.60 81.72 242.88 75.85 261.48 79.42
  C 276.17 82.25 283.52 91.34 283.55 106.26
  Q 283.59 123.13 283.69 140.00
  C 283.73 147.10 286.28 150.93 289.94 155.98
  Q 291.55 158.20 289.49 160.00
  C 285.12 163.84 280.47 168.76 275.44 171.54
  Q 274.96 171.81 274.47 171.57
  C 270.40 169.60 266.89 164.99 264.69 161.03
  A 0.90 0.89 -38.6 0 0 263.24 160.87
  C 255.94 169.14 246.71 172.78 235.00 172.09
  C 218.39 171.11 210.95 156.63 213.22 141.51
  C 216.21 121.56 234.80 116.39 251.66 115.05
  C 254.60 114.82 257.45 114.29 260.41 113.94
  Q 260.81 113.90 260.84 113.49
  Z
  M 260.08 127.00
  C 252.38 127.66 242.32 128.23 238.29 136.06
  C 235.01 142.42 236.13 154.00 244.92 155.42
  C 250.59 156.34 255.72 152.22 258.17 147.38
  C 260.88 142.01 261.21 133.80 260.85 127.67
  Q 260.81 126.94 260.08 127.00
  Z"
/>
<path fill="#0081c2" d="
  M 582.83 89.83
  A 0.33 0.33 0.0 0 0 583.34 89.99
  Q 593.89 82.13 606.82 79.35
  Q 614.11 77.78 622.73 79.40
  Q 632.92 81.32 637.48 90.51
  A 0.60 0.59 -31.8 0 0 638.38 90.72
  C 648.40 83.01 661.62 77.80 674.45 78.60
  C 689.88 79.56 697.18 88.86 697.31 104.00
  Q 697.59 136.07 697.57 167.92
  A 3.08 3.08 0.0 0 1 694.49 171.00
  L 683.47 171.00
  A 3.47 3.47 0.0 0 1 680.00 167.53
  Q 680.00 137.34 680.00 106.96
  C 680.00 100.90 676.60 94.22 670.74 93.09
  Q 666.98 92.37 659.75 93.18
  Q 651.15 94.14 641.22 100.35
  Q 640.86 100.58 640.86 101.00
  L 640.88 167.56
  A 3.44 3.44 0.0 0 1 637.44 171.00
  L 626.71 171.00
  A 3.48 3.48 0.0 0 1 623.23 167.52
  Q 623.25 139.26 623.22 110.25
  C 623.21 102.74 622.04 95.08 613.50 93.01
  Q 611.83 92.60 606.66 92.86
  C 598.68 93.25 591.15 96.00 584.36 100.14
  Q 584.00 100.37 584.00 100.80
  L 584.00 167.75
  A 3.25 3.25 0.0 0 1 580.75 171.00
  L 569.76 171.00
  A 3.25 3.24 -0.0 0 1 566.51 167.76
  L 566.48 84.28
  A 3.27 3.27 0.0 0 1 569.73 81.01
  C 573.36 80.98 581.54 79.35 581.95 85.07
  Q 582.12 87.53 582.83 89.83
  Z"
/>
<path fill="#0081c2" d="
  M 832.13 95.90
  C 827.45 100.05 827.98 107.08 832.27 111.44
  Q 834.05 113.26 840.79 115.89
  C 852.56 120.50 871.33 124.98 875.09 138.98
  Q 877.24 146.98 874.59 154.85
  C 866.66 178.50 830.37 176.09 813.19 167.44
  A 2.42 2.41 13.4 0 1 811.85 165.28
  L 811.85 156.67
  A 1.85 1.85 0.0 0 1 814.31 154.93
  C 824.78 158.55 858.52 167.32 859.81 147.50
  C 860.24 140.87 855.01 137.63 848.93 135.39
  Q 836.70 130.87 829.24 127.71
  C 824.46 125.68 819.62 122.19 816.66 117.94
  C 811.25 110.19 811.33 96.92 817.91 89.22
  C 829.90 75.18 853.38 76.83 868.44 83.04
  C 872.01 84.51 871.16 91.38 870.92 94.00
  C 870.73 96.12 869.02 96.13 867.34 95.64
  C 858.44 93.06 840.20 88.75 832.13 95.90
  Z"
/>
<path fill="#232f3e" d="
  M 110.74 93.49
  Q 110.73 94.46 111.16 93.59
  Q 118.51 78.55 134.00 79.16
  Q 142.08 79.47 148.06 85.71
  Q 149.92 87.64 153.22 93.99
  Q 153.50 94.53 153.74 93.97
  C 158.90 81.95 171.18 76.34 183.74 80.51
  C 191.83 83.18 196.86 89.09 198.13 97.40
  C 198.50 99.81 199.00 102.11 198.99 104.55
  Q 198.84 136.31 198.91 167.63
  A 3.36 3.36 0.0 0 1 195.55 171.00
  L 179.46 171.00
  A 3.08 3.07 -90.0 0 1 176.39 167.92
  Q 176.42 143.19 176.62 118.25
  C 176.67 111.42 177.12 101.73 168.90 100.56
  C 157.01 98.86 155.08 110.23 155.09 119.26
  Q 155.11 144.42 155.08 168.65
  A 2.36 2.36 0.0 0 1 152.72 171.00
  L 135.97 171.00
  A 2.96 2.95 0.0 0 1 133.01 168.05
  Q 132.98 140.82 133.01 113.00
  Q 133.02 110.72 131.65 106.10
  Q 129.96 100.35 122.99 100.02
  Q 116.05 99.70 113.37 106.82
  C 112.59 108.87 111.99 112.17 111.97 114.77
  Q 111.83 141.09 111.92 167.81
  A 3.18 3.18 0.0 0 1 108.74 171.00
  L 92.25 171.00
  A 2.76 2.76 0.0 0 1 89.49 168.24
  L 89.43 83.86
  A 2.86 2.86 0.0 0 1 92.29 81.00
  L 107.78 81.00
  A 3.01 3.01 0.0 0 1 110.79 84.03
  L 110.74 93.49
  Z"
/>
<path fill="#232f3e" d="
  M 405.58 172.57
  C 388.32 171.09 377.48 157.74 373.85 141.79
  Q 369.23 121.45 376.56 102.04
  Q 381.89 87.95 394.30 82.09
  Q 399.60 79.59 406.20 79.19
  C 420.48 78.30 433.22 85.43 439.77 98.28
  Q 444.85 108.26 445.87 120.74
  C 447.89 145.53 435.21 175.12 405.58 172.57
  Z
  M 420.29 107.64
  C 419.56 103.81 417.46 98.15 413.13 97.07
  C 402.75 94.48 398.40 101.43 397.06 110.50
  C 395.32 122.34 395.41 136.51 399.00 147.22
  Q 401.88 155.81 410.24 155.13
  C 425.93 153.85 422.15 117.32 420.29 107.64
  Z"
/>
<path fill="#232f3e" d="
  M 480.24 94.44
  C 482.29 87.23 489.02 81.31 495.69 79.75
  Q 504.13 77.78 512.04 81.48
  C 522.10 86.20 523.91 95.98 524.64 106.48
  Q 524.90 110.22 524.90 115.25
  Q 524.90 141.83 524.90 167.86
  A 3.14 3.14 0.0 0 1 521.76 171.00
  L 505.26 171.00
  A 2.87 2.86 90.0 0 1 502.40 168.13
  Q 502.47 143.14 502.40 117.84
  C 502.39 113.94 502.40 108.41 500.48 104.85
  C 496.21 96.97 486.65 99.26 483.04 106.28
  Q 480.55 111.13 480.47 119.57
  Q 480.24 143.41 480.27 167.99
  A 3.01 3.00 -0.1 0 1 477.26 171.00
  L 460.88 171.00
  A 2.88 2.88 0.0 0 1 458.00 168.12
  L 458.00 83.85
  A 2.88 2.88 0.0 0 1 460.90 80.97
  L 476.92 81.08
  A 2.10 2.09 90.0 0 1 479.00 83.17
  L 479.01 94.25
  Q 479.01 98.74 480.24 94.44
  Z"
/>
<path fill="#0081c2" d="
  M 948.09 106.33
  C 944.75 115.24 944.90 122.49 945.14 131.24
  C 945.92 159.86 968.13 161.65 990.23 155.42
  C 992.00 154.92 992.95 156.72 992.97 158.34
  C 993.02 161.95 994.29 167.15 989.94 168.89
  Q 974.32 175.16 957.77 171.64
  C 931.33 166.00 925.03 141.98 927.20 118.01
  Q 927.64 113.19 929.30 107.70
  C 933.69 93.23 943.53 83.24 958.77 80.26
  C 969.61 78.15 980.14 79.01 990.12 83.09
  C 993.17 84.34 992.35 92.16 991.89 94.38
  Q 991.40 96.75 989.07 96.08
  C 976.51 92.50 953.88 90.86 948.09 106.33
  Z"
/>
<path fill="#232f3e" d="
  M 331.87 141.59
  C 342.03 141.28 353.49 143.14 362.07 148.41
  Q 364.00 149.59 364.14 152.25
  Q 364.66 161.73 364.34 166.00
  C 364.15 168.51 362.15 169.23 359.99 168.15
  C 342.25 159.28 321.23 159.39 303.62 168.80
  Q 303.20 169.02 302.77 168.85
  Q 300.20 167.84 300.16 166.00
  C 299.95 156.36 298.94 149.89 303.59 143.18
  Q 318.71 121.40 333.79 99.53
  A 0.34 0.34 0.0 0 0 333.51 99.00
  L 306.24 99.00
  A 3.01 3.01 0.0 0 1 303.23 95.99
  L 303.22 83.34
  A 2.44 2.43 0.0 0 1 305.66 80.91
  L 360.03 80.91
  A 2.95 2.95 0.0 0 1 362.98 83.81
  C 363.05 87.89 363.73 93.25 361.83 96.98
  Q 360.66 99.30 359.18 101.42
  Q 346.45 119.69 333.62 137.89
  Q 332.50 139.47 331.62 141.20
  Q 331.41 141.60 331.87 141.59
  Z"
/>
<path fill="#0081c2" d="
  M 778.86 161.79
  A 0.37 0.36 -22.7 0 0 778.27 161.55
  C 768.44 169.28 755.51 174.30 742.86 173.41
  C 725.78 172.21 719.51 161.33 719.48 145.39
  Q 719.41 114.59 719.46 84.24
  A 3.21 3.20 89.5 0 1 722.59 81.04
  Q 727.51 80.93 733.24 80.96
  C 737.01 80.98 736.93 84.03 736.94 86.75
  Q 737.00 115.02 737.00 143.29
  C 737.01 167.78 765.92 159.25 777.35 150.79
  Q 777.73 150.50 777.73 150.03
  L 777.73 83.76
  A 2.76 2.76 0.0 0 1 780.49 81.00
  L 792.13 81.00
  A 2.88 2.87 -90.0 0 1 795.00 83.88
  L 795.00 168.03
  A 2.95 2.94 89.3 0 1 792.13 170.98
  C 789.68 171.04 783.54 171.64 781.36 170.17
  Q 780.40 169.52 779.99 167.77
  Q 779.27 164.74 778.86 161.79
  Z"
/>
<rect fill="#0081c2" x="891.00" y="81.01" width="17.56" height="90.00" rx="3.54"/>
<path fill="#0081c2" d="
  M 337.46 188.01
  Q 334.56 186.15 331.99 186.03
  Q 318.90 185.42 314.00 186.13
  Q 307.81 187.02 301.37 187.26
  A 1.30 1.30 0.0 0 1 300.04 186.13
  C 299.46 181.69 314.70 177.09 318.05 176.40
  Q 320.28 175.95 322.52 175.50
  C 327.72 174.45 333.83 174.81 339.13 175.00
  C 342.57 175.12 347.34 176.19 350.33 177.89
  A 3.30 3.29 -75.6 0 1 351.99 180.70
  C 352.03 183.77 352.15 187.03 351.68 190.08
  C 349.76 202.47 344.42 215.17 335.51 224.25
  Q 333.57 226.23 331.66 226.51
  A 1.71 1.71 0.0 0 1 329.83 224.17
  C 333.42 215.25 336.79 206.37 338.71 197.07
  C 339.14 194.94 338.99 192.85 339.01 190.68
  Q 339.01 190.17 338.74 189.74
  C 338.32 189.10 338.12 188.44 337.46 188.01
  Z"
/>
<path fill="#0081c2" d="
  M 325.27 203.29
  C 305.92 217.73 281.71 227.55 258.25 232.79
  C 249.70 234.70 243.51 235.48 237.07 236.45
  C 233.04 237.05 229.34 237.10 225.45 237.54
  C 218.71 238.30 211.79 238.04 205.02 237.98
  C 200.73 237.94 196.01 237.15 191.44 236.97
  Q 189.83 236.91 187.35 236.45
  C 185.50 236.10 183.48 236.09 181.88 235.85
  Q 120.80 226.39 75.07 185.17
  C 73.87 184.09 73.43 182.76 74.12 181.33
  A 2.20 2.19 -62.1 0 1 77.20 180.38
  Q 123.69 207.36 177.26 214.97
  C 181.54 215.57 185.99 215.88 190.12 216.50
  C 193.98 217.09 198.23 216.94 201.62 217.22
  Q 215.49 218.37 229.35 217.25
  C 232.70 216.98 237.07 217.06 240.95 216.46
  Q 242.85 216.16 246.10 215.95
  C 248.42 215.80 250.84 215.16 252.99 214.90
  C 275.61 212.24 298.66 205.13 320.99 196.01
  C 326.13 193.91 330.41 199.45 325.27 203.29
  Z"
/>
</svg>
