<?xml version="1.0" encoding="UTF-8" standalone="no"?>
<!DOCTYPE svg PUBLIC "-//W3C//DTD SVG 1.1//EN" "http://www.w3.org/Graphics/SVG/1.1/DTD/svg11.dtd">
<svg xmlns="http://www.w3.org/2000/svg" version="1.1" viewBox="0.00 0.00 1024.00 387.00">
<path fill="#000000" d="
  M 234.97 0.00
  L 235.66 0.00
  C 238.63 44.91 206.93 89.29 159.10 89.30
  Q 158.56 89.30 158.53 88.77
  C 156.18 42.82 190.20 5.76 234.97 0.00
  Z"
/>
<path fill="#000000" d="
  M 382.72 156.00
  L 343.25 156.00
  A 0.50 0.50 0.0 0 1 342.75 155.50
  L 342.75 113.48
  A 0.27 0.26 0.0 0 1 343.02 113.22
  L 381.82 113.22
  Q 382.16 113.22 382.16 112.88
  L 382.16 48.29
  Q 382.16 47.74 382.71 47.74
  L 435.94 47.65
  A 0.55 0.55 0.0 0 1 436.49 48.20
  L 436.49 111.77
  Q 436.49 112.30 437.02 112.30
  L 487.56 112.31
  Q 488.05 112.31 488.05 112.81
  L 488.05 154.47
  Q 488.05 155.00 487.52 155.00
  L 436.77 155.00
  A 0.29 0.28 -0.0 0 0 436.48 155.28
  Q 436.48 233.48 436.49 311.75
  Q 436.49 313.60 437.22 318.23
  C 441.37 344.82 467.03 343.63 487.58 341.06
  A 0.22 0.21 86.6 0 1 487.82 341.28
  L 487.83 383.64
  Q 487.83 384.07 487.41 384.14
  Q 461.63 388.10 435.75 384.96
  C 393.90 379.87 383.29 350.23 383.31 313.00
  Q 383.36 234.75 383.21 156.49
  Q 383.21 156.00 382.72 156.00
  Z"
/>
<path fill="#000000" d="
  M 104.67 387.00
  L 99.36 387.00
  C 84.01 384.94 72.14 375.44 62.41 364.09
  C 49.64 349.21 38.01 332.89 29.05 315.43
  C 1.68 262.09 -13.57 182.76 26.72 130.82
  C 42.03 111.08 64.23 98.63 89.00 95.50
  C 108.90 92.98 125.09 99.75 142.99 106.96
  Q 149.81 109.71 155.99 111.00
  C 162.08 112.26 168.30 110.64 174.75 108.18
  C 186.79 103.58 198.41 98.59 211.03 95.67
  C 246.75 87.42 283.01 101.77 304.19 131.36
  Q 304.51 131.81 304.05 132.12
  C 250.23 167.40 249.20 243.05 303.81 278.44
  Q 306.15 279.96 313.95 283.82
  Q 314.40 284.04 314.25 284.52
  C 306.64 308.49 296.06 327.29 281.79 348.06
  C 263.78 374.29 240.71 396.55 205.88 381.87
  C 199.20 379.06 191.84 375.66 185.50 373.88
  Q 166.64 368.57 147.70 373.45
  C 140.40 375.33 132.06 379.20 124.51 382.46
  Q 116.12 386.07 104.67 387.00
  Z"
/>
<path fill="#000000" d="
  M 639.84 330.42
  A 0.77 0.77 0.0 0 0 641.08 330.78
  Q 641.52 330.40 641.74 329.69
  Q 674.52 222.55 707.94 113.64
  A 0.58 0.58 0.0 0 1 708.50 113.22
  L 763.00 113.22
  A 0.22 0.22 0.0 0 1 763.21 113.51
  L 668.54 383.78
  A 0.32 0.31 -81.1 0 1 668.24 384.00
  L 612.21 384.00
  Q 611.89 384.00 611.79 383.70
  L 516.95 113.57
  A 0.26 0.26 0.0 0 1 517.20 113.22
  L 572.71 113.22
  A 0.64 0.64 0.0 0 1 573.32 113.67
  L 639.84 330.42
  Z"
/>
<path fill="#000000" d="
  M 917.11 224.22
  L 1021.42 224.22
  A 0.35 0.35 0.0 0 1 1021.77 224.57
  L 1021.77 272.69
  A 0.35 0.35 0.0 0 1 1021.42 273.04
  L 917.35 273.04
  A 0.35 0.35 0.0 0 0 917.00 273.39
  L 917.00 383.65
  A 0.35 0.35 0.0 0 1 916.65 384.00
  L 868.44 384.00
  A 0.35 0.35 0.0 0 1 868.09 383.65
  L 868.09 273.39
  A 0.35 0.35 0.0 0 0 867.74 273.04
  L 763.41 273.04
  A 0.35 0.35 0.0 0 1 763.06 272.69
  L 763.06 224.57
  A 0.35 0.35 0.0 0 1 763.41 224.22
  L 867.53 224.22
  A 0.35 0.35 0.0 0 0 867.88 223.87
  L 867.88 113.57
  A 0.35 0.35 0.0 0 1 868.23 113.22
  L 916.41 113.22
  A 0.35 0.35 0.0 0 1 916.76 113.57
  L 916.76 223.87
  A 0.35 0.35 0.0 0 0 917.11 224.22
  Z"
/>
</svg>
