<?xml version="1.0" encoding="UTF-8" standalone="no"?>
<!DOCTYPE svg PUBLIC "-//W3C//DTD SVG 1.1//EN" "http://www.w3.org/Graphics/SVG/1.1/DTD/svg11.dtd">
<svg xmlns="http://www.w3.org/2000/svg" version="1.1" viewBox="0.00 0.00 2560.00 497.00">
<path fill="#000000" d="
  M 257.11 0.00
  L 288.00 0.00
  Q 328.02 2.15 366.98 11.07
  Q 405.72 19.94 442.49 35.02
  C 444.23 35.73 444.92 36.65 444.93 38.50
  Q 445.00 99.62 444.97 161.62
  A 1.04 1.04 0.0 0 1 443.52 162.58
  Q 442.86 162.30 442.05 161.23
  C 432.27 148.09 421.63 134.19 410.51 122.88
  C 356.80 68.25 269.09 50.04 204.40 97.93
  C 175.61 119.24 159.04 154.37 150.24 188.51
  C 138.57 233.79 139.90 281.98 155.82 325.74
  C 172.30 371.04 204.41 405.07 251.03 419.50
  C 309.60 437.63 367.07 408.57 408.16 368.66
  Q 427.04 350.32 442.72 329.19
  Q 443.44 328.22 444.42 328.80
  A 1.15 1.13 -74.7 0 1 444.97 329.78
  Q 445.00 391.44 445.01 453.14
  C 445.01 457.69 445.20 460.67 440.98 462.49
  Q 421.93 470.75 402.05 476.68
  Q 332.70 497.37 260.26 496.55
  C 192.25 495.77 126.56 475.18 75.81 428.84
  Q 9.12 367.92 0.83 275.87
  Q 0.73 274.72 0.00 273.21
  L 0.00 235.05
  Q 0.96 231.09 2.21 220.52
  C 12.84 131.27 73.39 56.22 155.48 22.01
  Q 202.70 2.33 257.11 0.00
  Z"
/>
<path fill="#000000" d="
  M 2560.00 404.76
  L 2560.00 476.54
  Q 2559.71 478.77 2556.75 478.77
  Q 2413.13 478.78 2269.68 478.78
  Q 2266.78 478.78 2266.78 475.88
  Q 2266.78 250.50 2266.80 25.75
  C 2266.80 21.41 2265.84 18.68 2270.83 18.69
  Q 2409.01 18.72 2547.39 18.69
  A 2.30 2.29 -10.6 0 1 2549.53 20.15
  Q 2549.96 21.27 2549.95 23.25
  Q 2549.84 56.00 2549.84 88.75
  Q 2549.84 90.49 2549.70 91.94
  A 2.42 2.42 0.0 0 1 2547.29 94.14
  L 2379.76 94.15
  A 2.33 2.33 0.0 0 0 2377.43 96.49
  L 2377.44 197.68
  A 1.99 1.99 0.0 0 0 2379.43 199.67
  L 2544.25 199.70
  A 2.06 2.05 0.0 0 1 2546.31 201.75
  L 2546.31 273.89
  A 1.96 1.95 -90.0 0 1 2544.36 275.85
  L 2380.27 275.86
  A 1.39 1.38 90.0 0 0 2378.89 277.25
  L 2378.87 400.77
  A 1.80 1.80 0.0 0 0 2380.67 402.57
  Q 2467.86 402.62 2554.75 402.58
  C 2556.83 402.57 2559.37 402.15 2560.00 404.76
  Z"
/>
<path fill="#000000" d="
  M 1353.81 172.32
  C 1333.76 199.71 1324.01 236.35 1322.32 269.75
  C 1321.32 289.58 1323.67 310.14 1328.54 329.25
  C 1340.69 376.97 1371.90 414.05 1420.65 426.37
  C 1463.58 437.22 1507.21 417.76 1539.17 389.92
  Q 1560.49 371.35 1577.20 348.31
  A 2.02 1.96 4.2 0 1 1577.94 347.69
  Q 1579.55 346.91 1579.56 348.75
  Q 1579.82 401.75 1579.85 454.75
  Q 1579.85 460.29 1575.47 462.09
  Q 1554.78 470.57 1533.20 476.26
  C 1487.41 488.33 1439.84 493.91 1392.75 488.71
  C 1335.17 482.35 1283.32 456.88 1246.05 412.96
  C 1189.08 345.86 1186.33 242.20 1233.47 168.99
  C 1265.84 118.73 1319.71 83.83 1378.76 72.47
  C 1444.62 59.79 1514.09 71.95 1576.99 96.99
  C 1579.48 97.99 1579.79 98.96 1579.79 101.69
  Q 1579.80 152.72 1579.85 203.75
  Q 1579.85 204.94 1579.31 205.59
  A 1.15 1.14 46.7 0 1 1577.53 205.53
  C 1568.30 193.19 1558.93 180.88 1547.94 170.07
  Q 1518.47 141.10 1478.24 131.29
  C 1432.82 120.21 1382.01 133.81 1353.81 172.32
  Z"
/>
<path fill="#000000" d="
  M 1730.90 298.22
  C 1718.24 268.62 1737.96 249.59 1755.15 227.07
  Q 1818.61 143.92 1861.96 86.25
  Q 1865.43 81.63 1871.00 81.62
  Q 1924.63 81.52 1978.25 81.38
  Q 1980.10 81.38 1981.70 81.30
  A 1.63 1.62 -72.0 0 1 1983.04 83.94
  Q 1910.19 175.06 1837.32 266.31
  C 1834.97 269.24 1836.16 270.25 1838.15 273.06
  Q 1910.15 374.82 1982.09 476.40
  A 1.63 1.63 0.0 0 1 1980.68 478.98
  Q 1979.25 478.91 1977.75 478.91
  Q 1882.59 478.69 1855.75 478.85
  Q 1850.45 478.88 1847.80 474.94
  Q 1791.92 391.44 1735.99 307.98
  Q 1733.45 304.19 1730.90 298.22
  Z"
/>
<path fill="#000000" d="
  M 816.08 427.05
  Q 817.15 425.75 817.92 423.57
  Q 862.80 296.37 908.04 169.29
  Q 914.15 152.13 923.18 132.67
  Q 927.91 122.47 932.14 115.59
  C 949.15 87.91 975.71 81.96 1006.28 81.74
  Q 1049.83 81.41 1093.35 81.52
  A 2.69 2.68 -9.3 0 1 1095.88 83.33
  L 1231.91 476.83
  A 1.46 1.46 0.0 0 1 1230.53 478.77
  L 1121.74 478.78
  A 2.80 2.80 0.0 0 1 1119.09 476.89
  L 1077.11 355.41
  A 2.47 2.46 -9.4 0 0 1074.78 353.75
  Q 1009.74 353.73 944.49 353.75
  C 942.33 353.75 939.63 353.37 938.79 355.81
  Q 918.07 416.05 897.08 476.83
  A 2.89 2.89 0.0 0 1 894.35 478.78
  Q 825.00 478.77 755.25 478.68
  C 736.28 478.66 717.44 474.82 705.23 459.79
  C 697.32 450.06 691.52 438.29 685.34 424.92
  Q 660.85 371.92 646.64 340.59
  C 638.87 323.46 634.45 303.36 646.76 287.00
  C 662.74 265.78 686.48 251.47 696.05 225.49
  C 700.18 214.27 700.97 201.34 699.21 189.50
  C 694.95 160.95 671.91 138.42 644.76 131.19
  C 623.10 125.43 603.93 129.09 583.51 137.51
  C 581.31 138.41 580.50 139.38 580.50 141.91
  Q 580.50 309.05 580.50 475.80
  Q 580.50 478.78 577.52 478.78
  L 471.72 478.78
  A 2.56 2.55 90.0 0 1 469.17 476.22
  L 469.17 84.00
  A 2.45 2.45 0.0 0 1 471.62 81.55
  Q 566.87 81.42 662.00 81.55
  C 707.77 81.61 753.21 92.69 783.75 129.30
  C 799.48 148.15 807.93 171.76 808.45 196.27
  C 808.96 220.53 800.38 243.06 784.53 261.56
  C 773.96 273.91 762.57 284.23 751.19 295.18
  A 2.72 2.71 -35.3 0 0 750.64 298.36
  L 814.83 426.91
  Q 815.34 427.94 816.08 427.05
  Z
  M 1009.22 150.95
  C 993.33 196.37 977.60 241.76 962.01 287.24
  Q 961.55 288.60 961.59 289.27
  Q 961.66 290.74 963.13 290.74
  Q 1007.41 290.75 1051.50 290.72
  Q 1052.75 290.72 1053.64 290.55
  A 1.45 1.45 0.0 0 0 1054.74 288.68
  Q 1032.72 219.72 1010.79 151.26
  Q 1010.58 150.60 1010.44 150.52
  Q 1009.56 149.96 1009.22 150.95
  Z"
/>
<path fill="#000000" d="
  M 1605.44 476.15
  L 1605.43 84.13
  A 2.63 2.63 0.0 0 1 1608.06 81.50
  L 1715.78 81.50
  A 2.63 2.63 0.0 0 1 1718.41 84.13
  L 1718.41 476.15
  A 2.63 2.63 0.0 0 1 1715.78 478.78
  L 1608.07 478.78
  A 2.63 2.63 0.0 0 1 1605.44 476.15
  Z"
/>
<path fill="#000000" d="
  M 2120.60 412.90
  A 2.32 2.29 73.8 0 0 2122.55 413.99
  Q 2184.15 414.01 2246.00 414.00
  C 2249.11 414.00 2248.81 416.61 2248.82 418.75
  Q 2248.95 446.37 2248.96 474.00
  Q 2248.96 475.91 2248.52 477.76
  A 0.95 0.94 89.0 0 1 2247.86 478.45
  Q 2246.69 478.78 2245.00 478.78
  Q 2127.11 478.78 2009.53 478.78
  A 2.01 2.00 -2.3 0 1 2007.53 476.94
  Q 2007.34 474.57 2007.34 472.00
  Q 2007.30 280.25 2007.37 88.50
  Q 2007.37 85.89 2007.55 83.34
  A 1.98 1.97 1.9 0 1 2009.51 81.51
  Q 2062.73 81.48 2116.25 81.53
  C 2121.20 81.53 2120.28 84.75 2120.28 88.25
  Q 2120.26 250.00 2120.44 411.75
  Q 2120.44 412.64 2120.60 412.90
  Z"
/>
</svg>
