<?xml version="1.0" encoding="UTF-8" standalone="no"?>
<!DOCTYPE svg PUBLIC "-//W3C//DTD SVG 1.1//EN" "http://www.w3.org/Graphics/SVG/1.1/DTD/svg11.dtd">
<svg xmlns="http://www.w3.org/2000/svg" version="1.1" viewBox="0.00 0.00 2560.00 487.00">
<path fill="#f47521" d="
  M 483.29 253.30
  C 473.14 150.95 389.42 69.91 286.29 64.27
  C 161.83 57.46 58.52 159.43 64.78 284.28
  C 67.59 340.32 93.55 392.83 134.67 429.84
  Q 186.71 476.68 258.81 482.98
  Q 258.86 482.98 258.87 482.93
  Q 258.87 482.92 258.87 482.90
  Q 258.88 482.87 258.85 482.87
  C 185.36 485.78 117.84 459.03 68.33 405.42
  C 2.79 334.44 -12.47 229.16 28.87 142.09
  C 57.39 82.01 110.47 35.49 174.25 15.90
  C 331.82 -32.51 489.29 88.70 483.50 253.29
  Q 483.44 254.83 483.29 253.30
  Z"
/>
<path fill="#f47521" d="
  M 1630.03 172.50
  A 0.32 0.31 78.6 0 0 1630.47 172.80
  Q 1648.94 165.03 1669.00 165.08
  C 1706.22 165.18 1745.01 178.71 1759.24 216.24
  C 1764.17 229.24 1765.25 241.32 1765.27 256.75
  Q 1765.37 316.74 1765.28 376.74
  Q 1765.28 377.28 1764.74 377.28
  L 1715.52 377.28
  Q 1715.01 377.28 1715.01 376.77
  Q 1714.98 311.49 1715.00 246.26
  C 1715.00 204.03 1655.79 210.63 1630.62 217.68
  Q 1630.03 217.85 1630.03 218.47
  L 1630.03 376.75
  Q 1630.03 377.28 1629.50 377.28
  L 1580.26 377.28
  Q 1579.74 377.28 1579.74 376.76
  L 1579.74 90.77
  Q 1579.74 90.53 1579.98 90.53
  L 1629.53 90.53
  Q 1630.03 90.53 1630.03 91.03
  L 1630.03 172.50
  Z"
/>
<rect fill="#f47521" x="2394.30" y="90.54" width="50.42" height="286.74" rx="0.64"/>
<rect fill="#f47521" x="2502.99" y="90.52" width="50.30" height="286.76" rx="0.27"/>
<path fill="#f47521" d="
  M 354.82 276.66
  Q 373.68 285.64 396.00 284.02
  Q 429.71 281.56 448.74 252.67
  Q 449.08 252.15 449.20 252.76
  C 452.74 270.95 452.50 291.25 449.66 309.51
  C 441.12 364.53 405.88 411.62 355.84 435.35
  C 263.90 478.96 154.25 430.25 124.38 333.37
  C 100.64 256.37 135.61 172.64 207.03 135.71
  C 254.76 111.02 312.74 109.89 360.76 135.27
  Q 361.04 135.42 360.74 135.55
  Q 330.78 147.93 317.98 175.73
  C 300.26 214.18 317.53 258.91 354.82 276.66
  Z"
/>
<path fill="#f47521" d="
  M 1170.46 204.75
  C 1170.45 180.52 1192.02 171.87 1212.01 168.32
  C 1229.58 165.20 1249.45 164.28 1265.88 164.68
  C 1279.35 165.02 1295.13 167.71 1308.26 173.03
  C 1343.60 187.33 1348.99 221.17 1348.87 254.75
  Q 1348.67 315.62 1348.65 376.53
  A 0.40 0.40 0.0 0 1 1348.25 376.93
  L 1301.23 376.93
  A 0.43 0.43 0.0 0 1 1300.80 376.50
  Q 1300.84 307.97 1300.78 239.50
  C 1300.77 221.72 1290.13 212.85 1272.87 210.87
  Q 1253.48 208.64 1234.25 212.04
  C 1230.36 212.72 1218.45 215.05 1218.45 220.50
  Q 1218.38 298.54 1218.37 376.72
  A 0.21 0.21 0.0 0 1 1218.16 376.93
  L 1170.84 376.92
  A 0.31 0.30 -0.0 0 1 1170.53 376.62
  Q 1170.51 290.76 1170.46 204.75
  Z"
/>
<path fill="#f47521" d="
  M 1461.63 378.33
  C 1437.65 375.78 1414.74 365.12 1400.35 345.40
  C 1384.62 323.83 1380.40 296.12 1380.77 270.00
  C 1381.37 226.17 1397.67 183.38 1443.50 169.57
  Q 1461.84 164.04 1481.50 164.87
  Q 1511.37 166.13 1539.80 175.30
  A 0.49 0.49 0.0 0 1 1540.14 175.77
  L 1540.14 217.24
  Q 1540.14 217.86 1539.57 217.64
  Q 1511.86 207.17 1482.27 207.55
  C 1451.56 207.94 1435.50 221.99 1432.13 252.76
  Q 1429.99 272.33 1432.41 292.50
  C 1434.83 312.59 1443.68 330.28 1464.89 335.10
  C 1488.41 340.45 1516.80 335.40 1539.74 326.73
  Q 1540.14 326.58 1540.14 327.01
  L 1540.14 368.49
  A 0.71 0.70 -11.3 0 1 1539.70 369.14
  C 1514.51 379.14 1488.38 381.16 1461.63 378.33
  Z"
/>
<path fill="#f47521" d="
  M 663.72 211.85
  C 643.82 219.52 638.32 242.28 637.62 262.01
  C 636.74 286.88 634.93 320.63 662.97 332.57
  C 675.55 337.93 692.43 338.18 705.76 336.55
  Q 725.01 334.21 742.80 326.79
  Q 743.44 326.52 743.44 327.22
  L 743.44 368.53
  A 0.65 0.65 0.0 0 1 743.02 369.14
  C 719.03 378.58 695.47 380.63 670.01 378.85
  C 598.68 373.86 578.58 313.86 585.21 252.50
  C 592.03 189.47 635.58 158.76 697.25 165.79
  Q 722.94 168.71 742.89 175.21
  Q 743.44 175.39 743.44 175.96
  L 743.44 217.47
  A 0.34 0.33 10.8 0 1 742.98 217.78
  C 719.85 208.70 687.17 202.80 663.72 211.85
  Z"
/>
<path fill="#f47521" d="
  M 863.76 211.35
  C 856.38 212.06 841.87 214.05 841.89 224.76
  Q 842.06 300.71 842.06 376.72
  Q 842.06 377.28 841.50 377.28
  L 792.27 377.28
  Q 791.75 377.28 791.75 376.77
  Q 791.73 285.62 791.75 194.50
  C 791.75 177.39 825.25 171.66 837.26 170.09
  Q 864.89 166.50 892.76 167.14
  Q 896.28 167.23 899.80 167.65
  Q 900.32 167.71 900.32 168.23
  L 900.33 209.64
  A 0.42 0.41 -89.3 0 1 899.91 210.06
  Q 881.86 209.62 863.76 211.35
  Z"
/>
<path fill="#f47521" d="
  M 2099.77 211.09
  C 2093.07 211.62 2075.88 213.75 2075.88 223.36
  Q 2075.87 300.05 2075.88 376.85
  Q 2075.88 377.28 2075.44 377.28
  L 2026.03 377.28
  Q 2025.53 377.28 2025.53 376.78
  Q 2025.50 285.37 2025.53 194.00
  C 2025.53 188.48 2031.15 182.81 2036.26 180.01
  C 2047.00 174.12 2059.22 171.63 2071.26 170.08
  Q 2102.29 166.09 2133.54 167.60
  Q 2134.14 167.63 2134.14 168.23
  L 2134.14 209.48
  Q 2134.14 210.02 2133.61 210.01
  Q 2116.58 209.77 2099.77 211.09
  Z"
/>
<path fill="#f47521" d="
  M 2349.74 301.25
  C 2344.66 334.35 2326.95 361.96 2294.49 373.42
  C 2273.03 381.00 2248.12 381.34 2226.20 377.04
  C 2182.43 368.45 2160.56 335.02 2156.31 292.22
  C 2151.32 242.10 2164.42 185.68 2220.77 171.52
  Q 2240.61 166.54 2263.01 167.91
  C 2296.17 169.95 2325.04 183.58 2339.95 214.25
  C 2352.56 240.19 2354.08 272.93 2349.74 301.25
  Z
  M 2209.48 296.39
  Q 2210.99 309.49 2215.82 319.43
  C 2223.24 334.71 2236.47 339.08 2252.30 339.83
  C 2285.53 341.40 2299.72 324.19 2302.97 292.75
  Q 2304.93 273.88 2303.13 255.00
  C 2301.65 239.43 2297.59 221.89 2283.13 213.10
  C 2272.03 206.35 2253.42 206.64 2241.50 208.76
  C 2218.02 212.93 2211.13 233.55 2209.22 254.51
  Q 2207.20 276.56 2209.48 296.39
  Z"
/>
<path fill="#f47521" d="
  M 1007.32 330.91
  C 1019.45 335.74 1036.42 335.37 1048.73 332.42
  C 1068.46 327.69 1072.63 308.44 1072.65 291.00
  Q 1072.74 230.63 1072.75 170.33
  A 0.25 0.24 -90.0 0 1 1072.99 170.08
  L 1122.76 170.08
  A 0.25 0.25 0.0 0 1 1123.01 170.33
  Q 1123.03 227.01 1123.08 283.75
  C 1123.09 302.43 1121.25 320.99 1114.08 338.41
  C 1097.76 378.03 1055.49 384.14 1018.01 381.83
  C 994.03 380.35 970.88 373.40 956.39 353.63
  C 942.15 334.19 940.05 307.48 940.00 284.30
  Q 939.90 227.45 939.99 170.59
  Q 939.99 170.08 940.50 170.08
  L 987.24 170.08
  Q 987.74 170.08 987.74 170.58
  Q 987.80 230.05 987.74 289.50
  C 987.72 305.48 990.45 324.20 1007.32 330.91
  Z"
/>
<path fill="#f47521" d="
  M 1895.96 312.28
  L 1940.54 170.32
  A 0.34 0.34 0.0 0 1 1940.86 170.08
  L 1993.41 170.08
  A 0.34 0.34 0.0 0 1 1993.73 170.54
  L 1885.47 459.06
  A 0.34 0.34 0.0 0 1 1885.15 459.28
  L 1832.09 459.28
  A 0.34 0.34 0.0 0 1 1831.78 458.81
  L 1869.03 366.76
  A 0.34 0.34 0.0 0 0 1869.03 366.52
  L 1794.71 170.54
  A 0.34 0.34 0.0 0 1 1795.03 170.08
  L 1847.53 170.08
  A 0.34 0.34 0.0 0 1 1847.85 170.31
  L 1895.32 312.29
  A 0.34 0.34 0.0 0 0 1895.96 312.28
  Z"
/>
</svg>
