<?xml version="1.0" encoding="UTF-8" standalone="no"?>
<!DOCTYPE svg PUBLIC "-//W3C//DTD SVG 1.1//EN" "http://www.w3.org/Graphics/SVG/1.1/DTD/svg11.dtd">
<svg xmlns="http://www.w3.org/2000/svg" version="1.1" viewBox="0.00 0.00 2560.00 489.00">
<g stroke-width="2.00" fill="none" stroke-linecap="butt">
<path stroke="#fca404" vector-effect="non-scaling-stroke" d="
  M 192.45 247.01
  Q 188.05 253.14 182.92 258.11
  C 182.22 258.79 181.85 259.75 181.12 260.50
  Q 175.75 265.94 170.39 271.39
  A 0.83 0.83 0.0 0 0 170.15 272.04
  Q 170.17 272.33 170.00 272.50
  Q 164.23 278.29 158.51 284.12
  Q 158.17 284.46 158.16 284.94
  Q 158.14 285.29 157.97 285.47
  Q 153.78 290.04 146.37 297.21
  Q 146.13 297.45 146.14 297.80
  Q 146.14 297.99 146.11 298.17
  Q 146.05 298.47 145.76 298.75
  Q 140.62 303.77 135.37 309.41
  A 0.71 0.71 0.0 0 1 134.27 309.33
  Q 134.15 309.15 133.82 308.95"
/>
<path stroke="#f97c0a" vector-effect="non-scaling-stroke" d="
  M 243.48 260.74
  Q 241.50 260.27 241.02 261.01
  Q 240.74 261.43 240.71 261.46
  Q 234.93 267.43 229.06 273.32
  Q 228.89 273.50 228.89 273.75
  Q 228.89 273.93 228.85 274.12
  Q 228.78 274.57 228.46 274.89
  L 217.04 286.50
  A 0.69 0.68 60.4 0 0 216.87 287.14
  Q 216.98 287.57 216.68 287.78
  Q 216.38 287.98 216.34 288.02
  Q 212.20 292.13 208.18 296.35
  Q 208.14 296.40 203.71 301.51
  C 201.30 304.31 197.75 306.82 195.71 310.04
  Q 195.37 310.57 196.00 310.58
  Q 197.57 310.60 196.98 311.03"
/>
<path stroke="#3aa166" vector-effect="non-scaling-stroke" d="
  M 508.70 284.36
  L 490.82 284.89
  Q 490.48 284.90 490.19 285.09
  Q 489.97 285.23 489.90 285.47
  Q 489.79 285.88 489.37 285.88
  Q 458.06 285.88 426.74 285.88
  Q 426.45 285.88 426.28 286.00
  Q 426.06 286.15 425.92 286.41
  Q 425.69 286.82 425.21 286.82
  L 399.03 286.80"
/>
<path stroke="#fca404" vector-effect="non-scaling-stroke" d="
  M 166.35 336.00
  L 162.29 346.70
  Q 162.13 347.14 162.09 347.61
  Q 162.06 348.22 161.72 348.99
  Q 159.32 354.55 156.55 362.82
  C 152.35 375.30 147.73 387.62 143.14 400.03"
/>
<path stroke="#f97c0a" vector-effect="non-scaling-stroke" d="
  M 198.51 335.99
  Q 198.48 338.14 197.16 339.76
  Q 197.07 339.88 197.13 340.01
  Q 197.19 340.12 197.25 340.24
  Q 197.38 340.49 197.28 340.76
  Q 193.85 349.73 190.59 358.80
  Q 190.31 359.59 190.02 360.38
  Q 187.99 365.90 186.28 371.54
  Q 186.14 372.00 185.83 372.37
  Q 185.54 372.71 185.40 373.13
  Q 183.81 377.85 181.99 382.50
  Q 181.83 382.89 182.03 383.26
  Q 182.17 383.52 181.91 383.60
  Q 181.43 383.73 181.32 384.22
  Q 180.26 388.77 178.42 393.08
  Q 176.91 396.62 175.47 400.04"
/>
<path stroke="#e85d1d" vector-effect="non-scaling-stroke" d="
  M 217.24 335.99
  C 216.01 340.95 213.66 346.44 212.30 350.17
  Q 205.92 367.81 199.50 385.43
  Q 199.31 385.96 198.85 387.60
  C 198.34 389.42 197.28 391.27 196.79 392.88
  Q 195.68 396.49 193.92 400.03"
/>
<path stroke="#df4a2d" vector-effect="non-scaling-stroke" d="
  M 229.84 336.01
  Q 228.83 336.66 229.25 337.21
  Q 229.51 337.54 229.34 337.92
  Q 229.01 338.64 229.16 339.75
  Q 229.28 340.67 228.46 341.26
  Q 228.09 341.54 228.12 341.99
  Q 228.18 342.82 227.49 343.23
  A 0.82 0.80 -17.2 0 0 227.10 343.95
  Q 227.14 345.23 226.44 346.20
  Q 226.16 346.57 226.12 347.03
  Q 226.03 348.03 225.58 348.90
  C 225.08 349.85 225.03 350.48 224.85 351.44
  Q 224.77 351.90 224.38 352.16
  Q 224.05 352.38 224.06 352.79
  Q 224.08 353.55 224.01 353.68
  Q 223.84 354.03 223.42 354.27
  Q 223.09 354.46 223.13 354.83
  Q 223.25 356.22 222.39 357.34
  Q 222.12 357.69 222.15 358.14
  C 222.25 359.68 221.21 360.31 221.11 361.95
  A 1.55 1.49 -27.9 0 1 220.86 362.71
  Q 219.43 364.87 219.08 366.99
  Q 218.94 367.88 218.40 368.37
  Q 217.99 368.73 218.11 369.26
  Q 218.40 370.61 217.40 371.34
  A 0.81 0.80 -25.7 0 0 217.09 372.21
  Q 217.42 373.49 216.49 374.27
  Q 216.10 374.59 216.13 375.10
  Q 216.17 375.81 215.52 376.19
  Q 215.04 376.47 215.11 377.03
  Q 215.34 378.70 214.02 379.68
  A 0.69 0.68 -36.9 0 0 213.88 380.63
  Q 214.47 381.43 213.75 382.00
  A 0.87 0.01 -65.3 0 0 213.39 382.76
  Q 213.11 383.35 213.10 383.98
  Q 213.10 384.60 212.62 384.98
  Q 212.03 385.45 212.11 386.13
  Q 212.17 386.69 211.69 386.98
  Q 210.91 387.47 211.15 388.72
  Q 211.35 389.74 210.42 390.25
  Q 210.03 390.47 210.13 390.91
  Q 210.46 392.28 209.48 393.20
  Q 209.12 393.54 209.12 394.04
  L 209.12 395.32
  A 0.81 0.80 -9.0 0 1 208.56 396.08
  Q 207.93 396.28 208.12 396.98
  Q 208.26 397.50 207.85 397.84
  Q 206.83 398.67 207.05 400.03"
/>
<path stroke="#dc393a" vector-effect="non-scaling-stroke" d="
  M 243.47 348.25
  Q 242.33 346.44 242.05 349.41
  Q 242.02 349.81 241.64 349.97
  L 241.34 350.09
  A 0.55 0.54 -18.1 0 0 241.02 350.71
  Q 241.33 352.17 240.44 353.19
  Q 240.08 353.59 240.07 354.13
  Q 240.06 354.86 239.42 355.27
  Q 239.00 355.53 239.08 356.02
  Q 239.31 357.48 238.33 358.43
  A 0.93 0.93 0.0 0 0 238.06 359.30
  Q 238.32 360.53 237.40 361.09
  A 0.83 0.81 68.5 0 0 237.03 361.96
  Q 237.29 363.27 236.45 364.15
  Q 236.07 364.55 236.07 365.09
  Q 236.08 365.85 235.42 366.27
  Q 235.03 366.52 235.05 366.99
  Q 235.13 368.27 234.33 369.27
  Q 234.01 369.66 234.09 370.16
  Q 234.31 371.48 233.38 372.12
  Q 232.90 372.45 233.03 373.01
  Q 233.32 374.36 232.45 375.05
  Q 232.02 375.39 232.07 375.94
  Q 232.14 376.81 231.42 377.27
  Q 231.03 377.52 231.05 377.99
  Q 231.12 379.27 230.34 380.25
  Q 230.03 380.64 230.10 381.14
  Q 230.26 382.34 229.46 383.15
  Q 229.10 383.52 229.07 384.04
  L 228.99 385.22
  Q 228.95 385.75 228.50 386.03
  Q 227.72 386.50 227.87 387.53
  A 0.56 0.53 -28.7 0 1 227.72 387.99
  L 227.44 388.30
  Q 227.06 388.69 227.10 389.23
  Q 227.21 390.54 226.36 391.43
  Q 226.04 391.77 226.11 392.23
  Q 226.28 393.49 225.38 394.12
  Q 224.91 394.45 225.03 395.02
  Q 225.33 396.39 224.43 397.11
  Q 224.03 397.42 224.03 397.94
  L 224.03 400.02"
/>
<path stroke="#8c1666" vector-effect="non-scaling-stroke" d="
  M 295.26 335.99
  Q 295.87 341.30 297.13 344.25
  C 297.88 346.00 298.08 347.12 298.57 348.74
  Q 302.11 360.52 305.43 372.37
  Q 305.46 372.49 309.54 386.06
  Q 311.61 392.93 313.10 400.04"
/>
<path stroke="#af185c" vector-effect="non-scaling-stroke" d="
  M 285.25 400.03
  Q 285.45 396.20 284.09 393.00
  Q 283.08 390.60 282.89 388.85
  Q 282.83 388.37 282.50 388.02
  C 281.88 387.40 282.18 386.82 282.02 386.23
  Q 280.13 379.60 278.14 372.99
  Q 277.70 371.52 277.35 370.88
  Q 277.12 370.45 277.12 369.96
  L 277.12 369.30
  Q 277.12 368.78 276.88 368.32
  Q 276.01 366.67 275.91 364.77
  Q 275.88 364.26 275.45 363.97
  Q 275.01 363.67 275.13 363.16
  A 0.33 0.33 0.0 0 0 275.13 363.00
  L 273.75 357.60
  Q 273.66 357.23 273.42 356.94
  Q 273.15 356.59 273.09 356.18
  Q 272.93 354.96 272.91 354.89
  Q 270.62 347.92 268.81 340.87
  Q 268.59 340.02 268.16 339.57
  Q 267.28 338.64 266.55 339.28"
/>
<path stroke="#5a1474" vector-effect="non-scaling-stroke" d="
  M 332.22 335.98
  Q 339.93 362.46 347.62 388.88
  Q 349.50 395.32 349.54 400.04"
/>
<path stroke="#2c5195" vector-effect="non-scaling-stroke" d="
  M 446.49 335.97
  Q 445.19 337.45 446.55 338.18
  Q 446.95 338.40 446.87 338.84
  Q 446.70 339.79 447.53 340.13
  Q 447.98 340.31 447.88 340.78
  Q 447.68 341.78 448.53 342.13
  Q 448.98 342.31 448.88 342.78
  Q 448.67 343.78 449.53 344.13
  Q 449.98 344.31 449.88 344.78
  Q 449.67 345.78 450.53 346.13
  Q 450.98 346.31 450.88 346.78
  Q 450.67 347.78 451.53 348.13
  Q 451.98 348.31 451.88 348.78
  Q 451.67 349.79 452.54 350.13
  Q 453.00 350.32 452.89 350.80
  Q 452.71 351.61 453.31 352.05
  Q 453.67 352.32 453.79 352.75
  Q 454.22 354.26 455.57 355.14
  Q 455.95 355.39 455.87 355.84
  Q 455.70 356.79 456.53 357.13
  Q 456.98 357.31 456.88 357.78
  Q 456.67 358.78 457.53 359.13
  Q 457.98 359.31 457.88 359.78
  Q 457.67 360.78 458.53 361.13
  Q 458.98 361.31 458.88 361.78
  Q 458.67 362.78 459.53 363.13
  Q 459.98 363.31 459.88 363.78
  Q 459.67 364.78 460.53 365.13
  Q 460.98 365.31 460.88 365.78
  Q 460.67 366.78 461.53 367.13
  Q 461.98 367.31 461.88 367.78
  Q 461.67 368.78 462.53 369.13
  Q 462.98 369.31 462.88 369.78
  Q 462.67 370.78 463.53 371.13
  Q 463.98 371.31 463.88 371.78
  Q 463.67 372.78 464.53 373.13
  Q 464.98 373.31 464.88 373.78
  Q 464.67 374.78 465.53 375.13
  Q 465.98 375.31 465.88 375.78
  Q 465.67 376.78 466.53 377.13
  Q 466.98 377.31 466.88 377.78
  Q 466.67 378.78 467.53 379.13
  Q 467.98 379.31 467.88 379.78
  Q 467.67 380.78 468.53 381.13
  Q 468.98 381.31 468.88 381.78
  Q 468.67 382.78 469.53 383.13
  Q 469.98 383.31 469.88 383.78
  Q 469.67 384.78 470.53 385.13
  Q 470.98 385.31 470.88 385.78
  Q 470.67 386.78 471.53 387.13
  Q 471.98 387.31 471.88 387.78
  Q 471.67 388.78 472.53 389.13
  Q 472.98 389.31 472.88 389.78
  Q 472.67 390.78 473.53 391.13
  Q 473.98 391.31 473.88 391.78
  Q 473.67 392.78 474.53 393.13
  Q 474.98 393.31 474.88 393.78
  Q 474.68 394.78 475.53 395.13
  Q 475.98 395.31 475.88 395.78
  Q 475.70 396.67 476.36 397.05
  Q 476.71 397.25 476.79 397.65
  Q 476.97 398.64 477.78 400.04"
/>
<path stroke="#f97c0a" vector-effect="non-scaling-stroke" d="
  M 143.84 424.99
  L 143.82 488.14
  Q 143.82 488.25 143.89 488.32
  Q 143.96 488.39 144.00 488.39
  A 0.01 0.01 0.0 0 0 144.00 488.37
  Q 143.74 488.32 143.41 488.44
  A 0.22 0.21 70.3 0 0 143.28 488.72
  L 143.39 489.00"
/>
<path stroke="#e85d1d" vector-effect="non-scaling-stroke" d="
  M 177.46 424.99
  L 177.27 425.90
  Q 177.24 426.05 177.37 426.13
  L 177.63 426.30
  Q 177.88 426.46 177.88 426.76
  L 178.02 489.00"
/>
<path stroke="#df4a2d" vector-effect="non-scaling-stroke" d="
  M 189.17 425.00
  L 189.12 489.00"
/>
<path stroke="#dc393a" vector-effect="non-scaling-stroke" d="
  M 208.53 425.00
  Q 209.16 425.30 208.98 425.46
  Q 208.75 425.65 208.51 425.83
  Q 208.12 426.13 208.12 426.63
  Q 208.12 457.19 208.06 487.75
  Q 208.06 487.89 207.99 488.00
  Q 207.92 488.10 208.03 488.14
  Q 208.28 488.23 208.35 488.50
  Q 208.42 488.78 208.25 489.00"
/>
<path stroke="#af185c" vector-effect="non-scaling-stroke" d="
  M 283.65 424.99
  C 283.04 426.84 283.34 429.06 283.16 431.00
  C 282.95 433.26 283.36 435.82 283.37 437.67
  Q 283.48 463.35 282.95 489.00"
/>
<path stroke="#8c1666" vector-effect="non-scaling-stroke" d="
  M 310.22 424.99
  Q 309.16 425.28 309.16 426.00
  Q 309.13 454.29 309.15 482.58
  C 309.15 484.46 310.35 488.07 307.98 489.00"
/>
<path stroke="#5a1474" vector-effect="non-scaling-stroke" d="
  M 336.28 424.99
  L 336.94 425.41
  A 0.24 0.23 -52.1 0 1 336.98 425.77
  L 336.74 426.00
  Q 336.58 426.16 336.59 426.37
  Q 337.10 456.70 336.72 487.03
  Q 336.71 487.89 336.27 488.29
  Q 335.78 488.75 334.98 489.00"
/>
</g>
<path fill="#000000" d="
  M 861.90 0.00
  L 862.87 0.00
  L 950.01 0.00
  L 950.85 0.00
  L 950.85 488.13
  Q 950.85 488.61 950.38 488.61
  L 865.79 488.61
  Q 865.22 488.61 865.22 488.04
  L 865.22 442.03
  Q 865.22 441.46 864.90 441.93
  C 845.45 470.28 816.01 483.31 782.70 487.15
  C 693.90 497.39 618.17 454.25 603.03 361.24
  C 596.42 320.63 600.02 275.60 618.73 238.69
  C 650.24 176.51 714.34 151.42 781.50 159.69
  C 814.43 163.75 843.77 178.11 861.35 206.98
  Q 861.89 207.86 861.89 206.83
  L 861.90 0.00
  Z
  M 861.72 298.00
  C 840.57 204.88 712.34 203.81 692.07 298.01
  C 681.94 345.06 698.31 398.43 747.62 415.11
  Q 771.31 423.12 795.47 417.91
  C 850.89 405.98 873.44 349.60 861.72 298.00
  Z"
/>
<path fill="#000000" d="
  M 1064.02 340.50
  C 1064.46 396.97 1115.01 424.79 1165.81 418.42
  Q 1207.08 413.24 1223.44 375.46
  Q 1225.09 371.64 1227.69 362.96
  Q 1227.83 362.50 1228.28 362.68
  L 1303.19 392.29
  A 0.32 0.32 0.0 0 1 1303.37 392.70
  C 1288.81 434.12 1259.05 465.13 1216.99 478.98
  C 1186.93 488.88 1153.80 490.73 1123.50 487.37
  C 1075.89 482.08 1031.64 459.94 1003.56 420.45
  C 975.63 381.18 968.83 326.05 979.29 279.50
  C 994.70 210.87 1051.14 164.89 1120.26 158.58
  C 1190.54 152.17 1264.42 178.44 1285.85 252.79
  C 1293.74 280.15 1294.17 310.93 1288.32 339.56
  A 0.55 0.55 0.0 0 1 1287.78 340.00
  L 1064.52 340.00
  Q 1064.02 340.00 1064.02 340.50
  Z
  M 1140.50 222.71
  C 1105.24 222.81 1075.95 240.93 1065.41 275.25
  Q 1064.55 278.06 1064.09 280.11
  Q 1063.96 280.68 1064.55 280.68
  L 1205.26 280.68
  A 0.72 0.72 0.0 0 0 1205.97 280.09
  Q 1206.54 276.88 1206.27 273.50
  C 1203.47 238.59 1172.17 222.62 1140.50 222.71
  Z"
/>
<path fill="#000000" d="
  M 1394.18 340.52
  C 1394.82 399.20 1448.61 426.49 1500.74 417.51
  C 1531.33 412.25 1549.77 392.09 1557.79 363.04
  Q 1557.95 362.48 1558.49 362.70
  L 1633.26 392.27
  A 0.40 0.40 0.0 0 1 1633.50 392.79
  C 1613.23 449.91 1567.43 481.21 1508.00 487.49
  C 1473.05 491.18 1436.77 487.85 1403.95 474.93
  C 1331.68 446.48 1298.66 377.26 1305.64 302.50
  C 1313.09 222.78 1372.43 164.84 1452.39 158.38
  C 1533.11 151.86 1609.76 188.06 1620.87 276.12
  Q 1624.86 307.73 1618.51 339.41
  A 0.74 0.72 -84.1 0 1 1617.80 340.00
  L 1394.70 340.00
  Q 1394.17 340.00 1394.18 340.52
  Z
  M 1434.44 230.09
  C 1414.48 239.29 1398.84 257.99 1394.31 280.16
  Q 1394.20 280.68 1394.73 280.68
  L 1535.52 280.68
  Q 1535.90 280.68 1536.00 280.32
  Q 1536.79 277.40 1536.57 274.27
  C 1533.12 224.03 1471.38 213.07 1434.44 230.09
  Z"
/>
<path fill="#000000" d="
  M 2032.85 340.42
  Q 2033.12 375.91 2058.53 398.45
  C 2079.17 416.76 2111.12 422.27 2137.72 417.81
  C 2168.70 412.60 2188.43 393.19 2196.36 363.03
  A 0.50 0.50 0.0 0 1 2197.03 362.69
  L 2271.73 392.22
  Q 2272.10 392.37 2271.97 392.75
  C 2251.43 452.12 2202.69 482.74 2141.74 487.85
  C 2105.13 490.91 2068.96 486.79 2035.54 472.00
  C 1987.90 450.90 1956.56 409.78 1946.86 358.74
  C 1931.80 279.44 1964.72 200.04 2042.56 169.31
  C 2069.64 158.62 2101.21 155.79 2130.51 158.70
  C 2188.11 164.43 2237.62 194.56 2254.52 252.68
  C 2262.53 280.25 2262.87 311.15 2256.98 339.80
  A 0.25 0.24 -84.2 0 1 2256.74 340.00
  L 2033.26 340.00
  Q 2032.85 340.00 2032.85 340.42
  Z
  M 2032.85 279.67
  Q 2032.76 280.04 2032.69 280.26
  A 0.33 0.32 -81.9 0 0 2033.00 280.68
  L 2174.02 280.68
  A 0.66 0.66 0.0 0 0 2174.67 280.14
  Q 2175.27 276.91 2174.97 273.49
  C 2172.72 247.47 2154.54 230.66 2130.00 225.04
  C 2086.99 215.19 2044.20 234.90 2032.85 279.67
  Z"
/>
<rect fill="#40ab5d" x="399.00" y="157.96" width="109.72" height="64.10" rx="0.31"/>
<path fill="#000000" d="
  M 1936.41 489.00
  L 1637.99 489.00
  L 1638.00 412.88
  A 1.13 1.08 -22.9 0 1 1638.34 412.09
  L 1818.89 235.10
  Q 1819.30 234.69 1818.72 234.69
  L 1644.05 234.69
  A 0.39 0.38 90.0 0 1 1643.67 234.30
  L 1643.67 158.27
  A 0.31 0.31 0.0 0 1 1643.98 157.96
  L 1930.78 157.96
  Q 1931.34 157.96 1931.34 158.52
  L 1931.34 231.04
  Q 1931.34 231.60 1930.93 231.99
  L 1749.90 408.20
  A 0.18 0.18 0.0 0 0 1750.03 408.51
  L 1935.75 408.51
  A 0.74 0.73 0.0 0 1 1936.49 409.24
  L 1936.41 489.00
  Z"
/>
<path fill="#000000" d="
  M 2383.99 489.00
  L 2294.51 489.00
  L 2294.53 158.96
  Q 2294.53 158.45 2295.05 158.45
  L 2383.65 158.39
  Q 2384.00 158.39 2384.00 158.74
  L 2384.00 206.28
  Q 2384.00 208.62 2384.96 206.49
  C 2403.20 165.95 2445.68 152.19 2487.08 160.80
  C 2526.50 168.99 2551.83 198.85 2557.45 238.56
  C 2559.26 251.40 2558.84 267.24 2558.62 281.32
  A 0.38 0.37 -0.0 0 1 2558.24 281.69
  L 2472.51 281.69
  Q 2472.03 281.69 2472.02 281.21
  Q 2471.95 276.06 2471.84 271.01
  C 2471.24 242.35 2450.29 219.28 2420.07 224.50
  C 2394.69 228.88 2384.03 251.56 2384.03 275.50
  Q 2384.00 382.25 2383.99 489.00
  Z"
/>
<path fill="#f9b607" d="
  M 192.45 247.01
  Q 188.05 253.14 182.92 258.11
  C 182.22 258.79 181.85 259.75 181.12 260.50
  Q 175.75 265.94 170.39 271.39
  A 0.83 0.83 0.0 0 0 170.15 272.04
  Q 170.17 272.33 170.00 272.50
  Q 164.23 278.29 158.51 284.12
  Q 158.17 284.46 158.16 284.94
  Q 158.14 285.29 157.97 285.47
  Q 153.78 290.04 146.37 297.21
  Q 146.13 297.45 146.14 297.80
  Q 146.14 297.99 146.11 298.17
  Q 146.05 298.47 145.76 298.75
  Q 140.62 303.77 135.37 309.41
  A 0.71 0.71 0.0 0 1 134.27 309.33
  Q 134.15 309.15 133.82 308.95
  L 133.81 247.27
  Q 133.81 246.99 134.10 246.99
  L 192.45 247.01
  Z"
/>
<path fill="#ff9200" d="
  M 192.45 247.01
  L 242.93 247.01
  Q 243.47 247.01 243.47 247.56
  L 243.48 260.74
  Q 241.50 260.27 241.02 261.01
  Q 240.74 261.43 240.71 261.46
  Q 234.93 267.43 229.06 273.32
  Q 228.89 273.50 228.89 273.75
  Q 228.89 273.93 228.85 274.12
  Q 228.78 274.57 228.46 274.89
  L 217.04 286.50
  A 0.69 0.68 60.4 0 0 216.87 287.14
  Q 216.98 287.57 216.68 287.78
  Q 216.38 287.98 216.34 288.02
  Q 212.20 292.13 208.18 296.35
  Q 208.14 296.40 203.71 301.51
  C 201.30 304.31 197.75 306.82 195.71 310.04
  Q 195.37 310.57 196.00 310.58
  Q 197.57 310.60 196.98 311.03
  L 134.46 311.04
  Q 133.95 311.04 133.84 310.54
  Q 133.70 309.84 133.82 308.95
  Q 134.15 309.15 134.27 309.33
  A 0.71 0.71 0.0 0 0 135.37 309.41
  Q 140.62 303.77 145.76 298.75
  Q 146.05 298.47 146.11 298.17
  Q 146.14 297.99 146.14 297.80
  Q 146.13 297.45 146.37 297.21
  Q 153.78 290.04 157.97 285.47
  Q 158.14 285.29 158.16 284.94
  Q 158.17 284.46 158.51 284.12
  Q 164.23 278.29 170.00 272.50
  Q 170.17 272.33 170.15 272.04
  A 0.83 0.83 0.0 0 1 170.39 271.39
  Q 175.75 265.94 181.12 260.50
  C 181.85 259.75 182.22 258.79 182.92 258.11
  Q 188.05 253.14 192.45 247.01
  Z"
/>
<path fill="#40ab5d" d="
  M 508.70 284.36
  L 490.82 284.89
  Q 490.48 284.90 490.19 285.09
  Q 489.97 285.23 489.90 285.47
  Q 489.79 285.88 489.37 285.88
  Q 458.06 285.88 426.74 285.88
  Q 426.45 285.88 426.28 286.00
  Q 426.06 286.15 425.92 286.41
  Q 425.69 286.82 425.21 286.82
  L 399.03 286.80
  L 399.03 247.45
  Q 399.03 246.96 399.52 246.96
  L 508.23 246.96
  Q 508.70 246.96 508.70 247.43
  L 508.70 284.36
  Z"
/>
<path fill="#f26614" d="
  M 243.48 260.74
  L 243.47 310.48
  Q 243.47 311.02 242.93 311.02
  L 196.98 311.03
  Q 197.57 310.60 196.00 310.58
  Q 195.37 310.57 195.71 310.04
  C 197.75 306.82 201.30 304.31 203.71 301.51
  Q 208.14 296.40 208.18 296.35
  Q 212.20 292.13 216.34 288.02
  Q 216.38 287.98 216.68 287.78
  Q 216.98 287.57 216.87 287.14
  A 0.69 0.68 60.4 0 1 217.04 286.50
  L 228.46 274.89
  Q 228.78 274.57 228.85 274.12
  Q 228.89 273.93 228.89 273.75
  Q 228.89 273.50 229.06 273.32
  Q 234.93 267.43 240.71 261.46
  Q 240.74 261.43 241.02 261.01
  Q 241.50 260.27 243.48 260.74
  Z"
/>
<path fill="#34976f" d="
  M 508.70 284.36
  L 508.71 310.58
  A 0.49 0.48 -90.0 0 1 508.23 311.07
  L 399.51 311.06
  Q 399.03 311.06 399.03 310.58
  L 399.03 286.80
  L 425.21 286.82
  Q 425.69 286.82 425.92 286.41
  Q 426.06 286.15 426.28 286.00
  Q 426.45 285.88 426.74 285.88
  Q 458.06 285.88 489.37 285.88
  Q 489.79 285.88 489.90 285.47
  Q 489.97 285.23 490.19 285.09
  Q 490.48 284.90 490.82 284.89
  L 508.70 284.36
  Z"
/>
<path fill="#f9b607" d="
  M 166.35 336.00
  L 162.29 346.70
  Q 162.13 347.14 162.09 347.61
  Q 162.06 348.22 161.72 348.99
  Q 159.32 354.55 156.55 362.82
  C 152.35 375.30 147.73 387.62 143.14 400.03
  L 134.12 400.07
  Q 133.81 400.08 133.81 399.76
  L 133.81 336.50
  Q 133.81 336.00 134.31 336.00
  L 166.35 336.00
  Z"
/>
<path fill="#ff9200" d="
  M 166.35 336.00
  L 198.51 335.99
  Q 198.48 338.14 197.16 339.76
  Q 197.07 339.88 197.13 340.01
  Q 197.19 340.12 197.25 340.24
  Q 197.38 340.49 197.28 340.76
  Q 193.85 349.73 190.59 358.80
  Q 190.31 359.59 190.02 360.38
  Q 187.99 365.90 186.28 371.54
  Q 186.14 372.00 185.83 372.37
  Q 185.54 372.71 185.40 373.13
  Q 183.81 377.85 181.99 382.50
  Q 181.83 382.89 182.03 383.26
  Q 182.17 383.52 181.91 383.60
  Q 181.43 383.73 181.32 384.22
  Q 180.26 388.77 178.42 393.08
  Q 176.91 396.62 175.47 400.04
  L 143.14 400.03
  C 147.73 387.62 152.35 375.30 156.55 362.82
  Q 159.32 354.55 161.72 348.99
  Q 162.06 348.22 162.09 347.61
  Q 162.13 347.14 162.29 346.70
  L 166.35 336.00
  Z"
/>
<path fill="#f26614" d="
  M 198.51 335.99
  L 217.24 335.99
  C 216.01 340.95 213.66 346.44 212.30 350.17
  Q 205.92 367.81 199.50 385.43
  Q 199.31 385.96 198.85 387.60
  C 198.34 389.42 197.28 391.27 196.79 392.88
  Q 195.68 396.49 193.92 400.03
  L 175.47 400.04
  Q 176.91 396.62 178.42 393.08
  Q 180.26 388.77 181.32 384.22
  Q 181.43 383.73 181.91 383.60
  Q 182.17 383.52 182.03 383.26
  Q 181.83 382.89 181.99 382.50
  Q 183.81 377.85 185.40 373.13
  Q 185.54 372.71 185.83 372.37
  Q 186.14 372.00 186.28 371.54
  Q 187.99 365.90 190.02 360.38
  Q 190.31 359.59 190.59 358.80
  Q 193.85 349.73 197.28 340.76
  Q 197.38 340.49 197.25 340.24
  Q 197.19 340.12 197.13 340.01
  Q 197.07 339.88 197.16 339.76
  Q 198.48 338.14 198.51 335.99
  Z"
/>
<path fill="#de5326" d="
  M 217.24 335.99
  L 229.84 336.01
  Q 228.83 336.66 229.25 337.21
  Q 229.51 337.54 229.34 337.92
  Q 229.01 338.64 229.16 339.75
  Q 229.28 340.67 228.46 341.26
  Q 228.09 341.54 228.12 341.99
  Q 228.18 342.82 227.49 343.23
  A 0.82 0.80 -17.2 0 0 227.10 343.95
  Q 227.14 345.23 226.44 346.20
  Q 226.16 346.57 226.12 347.03
  Q 226.03 348.03 225.58 348.90
  C 225.08 349.85 225.03 350.48 224.85 351.44
  Q 224.77 351.90 224.38 352.16
  Q 224.05 352.38 224.06 352.79
  Q 224.08 353.55 224.01 353.68
  Q 223.84 354.03 223.42 354.27
  Q 223.09 354.46 223.13 354.83
  Q 223.25 356.22 222.39 357.34
  Q 222.12 357.69 222.15 358.14
  C 222.25 359.68 221.21 360.31 221.11 361.95
  A 1.55 1.49 -27.9 0 1 220.86 362.71
  Q 219.43 364.87 219.08 366.99
  Q 218.94 367.88 218.40 368.37
  Q 217.99 368.73 218.11 369.26
  Q 218.40 370.61 217.40 371.34
  A 0.81 0.80 -25.7 0 0 217.09 372.21
  Q 217.42 373.49 216.49 374.27
  Q 216.10 374.59 216.13 375.10
  Q 216.17 375.81 215.52 376.19
  Q 215.04 376.47 215.11 377.03
  Q 215.34 378.70 214.02 379.68
  A 0.69 0.68 -36.9 0 0 213.88 380.63
  Q 214.47 381.43 213.75 382.00
  A 0.87 0.01 -65.3 0 0 213.39 382.76
  Q 213.11 383.35 213.10 383.98
  Q 213.10 384.60 212.62 384.98
  Q 212.03 385.45 212.11 386.13
  Q 212.17 386.69 211.69 386.98
  Q 210.91 387.47 211.15 388.72
  Q 211.35 389.74 210.42 390.25
  Q 210.03 390.47 210.13 390.91
  Q 210.46 392.28 209.48 393.20
  Q 209.12 393.54 209.12 394.04
  L 209.12 395.32
  A 0.81 0.80 -9.0 0 1 208.56 396.08
  Q 207.93 396.28 208.12 396.98
  Q 208.26 397.50 207.85 397.84
  Q 206.83 398.67 207.05 400.03
  L 193.92 400.03
  Q 195.68 396.49 196.79 392.88
  C 197.28 391.27 198.34 389.42 198.85 387.60
  Q 199.31 385.96 199.50 385.43
  Q 205.92 367.81 212.30 350.17
  C 213.66 346.44 216.01 340.95 217.24 335.99
  Z"
/>
<path fill="#df4034" d="
  M 229.84 336.01
  L 242.93 336.00
  Q 243.47 336.00 243.47 336.54
  L 243.47 348.25
  Q 242.33 346.44 242.05 349.41
  Q 242.02 349.81 241.64 349.97
  L 241.34 350.09
  A 0.55 0.54 -18.1 0 0 241.02 350.71
  Q 241.33 352.17 240.44 353.19
  Q 240.08 353.59 240.07 354.13
  Q 240.06 354.86 239.42 355.27
  Q 239.00 355.53 239.08 356.02
  Q 239.31 357.48 238.33 358.43
  A 0.93 0.93 0.0 0 0 238.06 359.30
  Q 238.32 360.53 237.40 361.09
  A 0.83 0.81 68.5 0 0 237.03 361.96
  Q 237.29 363.27 236.45 364.15
  Q 236.07 364.55 236.07 365.09
  Q 236.08 365.85 235.42 366.27
  Q 235.03 366.52 235.05 366.99
  Q 235.13 368.27 234.33 369.27
  Q 234.01 369.66 234.09 370.16
  Q 234.31 371.48 233.38 372.12
  Q 232.90 372.45 233.03 373.01
  Q 233.32 374.36 232.45 375.05
  Q 232.02 375.39 232.07 375.94
  Q 232.14 376.81 231.42 377.27
  Q 231.03 377.52 231.05 377.99
  Q 231.12 379.27 230.34 380.25
  Q 230.03 380.64 230.10 381.14
  Q 230.26 382.34 229.46 383.15
  Q 229.10 383.52 229.07 384.04
  L 228.99 385.22
  Q 228.95 385.75 228.50 386.03
  Q 227.72 386.50 227.87 387.53
  A 0.56 0.53 -28.7 0 1 227.72 387.99
  L 227.44 388.30
  Q 227.06 388.69 227.10 389.23
  Q 227.21 390.54 226.36 391.43
  Q 226.04 391.77 226.11 392.23
  Q 226.28 393.49 225.38 394.12
  Q 224.91 394.45 225.03 395.02
  Q 225.33 396.39 224.43 397.11
  Q 224.03 397.42 224.03 397.94
  L 224.03 400.02
  L 207.05 400.03
  Q 206.83 398.67 207.85 397.84
  Q 208.26 397.50 208.12 396.98
  Q 207.93 396.28 208.56 396.08
  A 0.81 0.80 -9.0 0 0 209.12 395.32
  L 209.12 394.04
  Q 209.12 393.54 209.48 393.20
  Q 210.46 392.28 210.13 390.91
  Q 210.03 390.47 210.42 390.25
  Q 211.35 389.74 211.15 388.72
  Q 210.91 387.47 211.69 386.98
  Q 212.17 386.69 212.11 386.13
  Q 212.03 385.45 212.62 384.98
  Q 213.10 384.60 213.10 383.98
  Q 213.11 383.35 213.39 382.76
  A 0.87 0.01 -65.3 0 1 213.75 382.00
  Q 214.47 381.43 213.88 380.63
  A 0.69 0.68 -36.9 0 1 214.02 379.68
  Q 215.34 378.70 215.11 377.03
  Q 215.04 376.47 215.52 376.19
  Q 216.17 375.81 216.13 375.10
  Q 216.10 374.59 216.49 374.27
  Q 217.42 373.49 217.09 372.21
  A 0.81 0.80 -25.7 0 1 217.40 371.34
  Q 218.40 370.61 218.11 369.26
  Q 217.99 368.73 218.40 368.37
  Q 218.94 367.88 219.08 366.99
  Q 219.43 364.87 220.86 362.71
  A 1.55 1.49 -27.9 0 0 221.11 361.95
  C 221.21 360.31 222.25 359.68 222.15 358.14
  Q 222.12 357.69 222.39 357.34
  Q 223.25 356.22 223.13 354.83
  Q 223.09 354.46 223.42 354.27
  Q 223.84 354.03 224.01 353.68
  Q 224.08 353.55 224.06 352.79
  Q 224.05 352.38 224.38 352.16
  Q 224.77 351.90 224.85 351.44
  C 225.03 350.48 225.08 349.85 225.58 348.90
  Q 226.03 348.03 226.12 347.03
  Q 226.16 346.57 226.44 346.20
  Q 227.14 345.23 227.10 343.95
  A 0.82 0.80 -17.2 0 1 227.49 343.23
  Q 228.18 342.82 228.12 341.99
  Q 228.09 341.54 228.46 341.26
  Q 229.28 340.67 229.16 339.75
  Q 229.01 338.64 229.34 337.92
  Q 229.51 337.54 229.25 337.21
  Q 228.83 336.66 229.84 336.01
  Z"
/>
<path fill="#a3175f" d="
  M 295.26 335.99
  Q 295.87 341.30 297.13 344.25
  C 297.88 346.00 298.08 347.12 298.57 348.74
  Q 302.11 360.52 305.43 372.37
  Q 305.46 372.49 309.54 386.06
  Q 311.61 392.93 313.10 400.04
  L 285.25 400.03
  Q 285.45 396.20 284.09 393.00
  Q 283.08 390.60 282.89 388.85
  Q 282.83 388.37 282.50 388.02
  C 281.88 387.40 282.18 386.82 282.02 386.23
  Q 280.13 379.60 278.14 372.99
  Q 277.70 371.52 277.35 370.88
  Q 277.12 370.45 277.12 369.96
  L 277.12 369.30
  Q 277.12 368.78 276.88 368.32
  Q 276.01 366.67 275.91 364.77
  Q 275.88 364.26 275.45 363.97
  Q 275.01 363.67 275.13 363.16
  A 0.33 0.33 0.0 0 0 275.13 363.00
  L 273.75 357.60
  Q 273.66 357.23 273.42 356.94
  Q 273.15 356.59 273.09 356.18
  Q 272.93 354.96 272.91 354.89
  Q 270.62 347.92 268.81 340.87
  Q 268.59 340.02 268.16 339.57
  Q 267.28 338.64 266.55 339.28
  L 266.53 336.53
  Q 266.53 336.00 267.06 336.00
  L 295.26 335.99
  Z"
/>
<path fill="#75156c" d="
  M 295.26 335.99
  L 332.22 335.98
  Q 339.93 362.46 347.62 388.88
  Q 349.50 395.32 349.54 400.04
  L 313.10 400.04
  Q 311.61 392.93 309.54 386.06
  Q 305.46 372.49 305.43 372.37
  Q 302.11 360.52 298.57 348.74
  C 298.08 347.12 297.88 346.00 297.13 344.25
  Q 295.87 341.30 295.26 335.99
  Z"
/>
<path fill="#3f137c" d="
  M 332.22 335.98
  L 375.73 335.99
  Q 376.25 335.99 376.25 336.50
  L 376.25 399.50
  Q 376.25 400.04 375.71 400.04
  L 349.54 400.04
  Q 349.50 395.32 347.62 388.88
  Q 339.93 362.46 332.22 335.98
  Z"
/>
<path fill="#284393" d="
  M 446.49 335.97
  Q 445.19 337.45 446.55 338.18
  Q 446.95 338.40 446.87 338.84
  Q 446.70 339.79 447.53 340.13
  Q 447.98 340.31 447.88 340.78
  Q 447.68 341.78 448.53 342.13
  Q 448.98 342.31 448.88 342.78
  Q 448.67 343.78 449.53 344.13
  Q 449.98 344.31 449.88 344.78
  Q 449.67 345.78 450.53 346.13
  Q 450.98 346.31 450.88 346.78
  Q 450.67 347.78 451.53 348.13
  Q 451.98 348.31 451.88 348.78
  Q 451.67 349.79 452.54 350.13
  Q 453.00 350.32 452.89 350.80
  Q 452.71 351.61 453.31 352.05
  Q 453.67 352.32 453.79 352.75
  Q 454.22 354.26 455.57 355.14
  Q 455.95 355.39 455.87 355.84
  Q 455.70 356.79 456.53 357.13
  Q 456.98 357.31 456.88 357.78
  Q 456.67 358.78 457.53 359.13
  Q 457.98 359.31 457.88 359.78
  Q 457.67 360.78 458.53 361.13
  Q 458.98 361.31 458.88 361.78
  Q 458.67 362.78 459.53 363.13
  Q 459.98 363.31 459.88 363.78
  Q 459.67 364.78 460.53 365.13
  Q 460.98 365.31 460.88 365.78
  Q 460.67 366.78 461.53 367.13
  Q 461.98 367.31 461.88 367.78
  Q 461.67 368.78 462.53 369.13
  Q 462.98 369.31 462.88 369.78
  Q 462.67 370.78 463.53 371.13
  Q 463.98 371.31 463.88 371.78
  Q 463.67 372.78 464.53 373.13
  Q 464.98 373.31 464.88 373.78
  Q 464.67 374.78 465.53 375.13
  Q 465.98 375.31 465.88 375.78
  Q 465.67 376.78 466.53 377.13
  Q 466.98 377.31 466.88 377.78
  Q 466.67 378.78 467.53 379.13
  Q 467.98 379.31 467.88 379.78
  Q 467.67 380.78 468.53 381.13
  Q 468.98 381.31 468.88 381.78
  Q 468.67 382.78 469.53 383.13
  Q 469.98 383.31 469.88 383.78
  Q 469.67 384.78 470.53 385.13
  Q 470.98 385.31 470.88 385.78
  Q 470.67 386.78 471.53 387.13
  Q 471.98 387.31 471.88 387.78
  Q 471.67 388.78 472.53 389.13
  Q 472.98 389.31 472.88 389.78
  Q 472.67 390.78 473.53 391.13
  Q 473.98 391.31 473.88 391.78
  Q 473.67 392.78 474.53 393.13
  Q 474.98 393.31 474.88 393.78
  Q 474.68 394.78 475.53 395.13
  Q 475.98 395.31 475.88 395.78
  Q 475.70 396.67 476.36 397.05
  Q 476.71 397.25 476.79 397.65
  Q 476.97 398.64 477.78 400.04
  L 399.54 400.04
  Q 399.00 400.04 399.00 399.50
  L 399.00 336.27
  Q 399.00 335.97 399.30 335.97
  L 446.49 335.97
  Z"
/>
<path fill="#2f5e96" d="
  M 446.49 335.97
  L 508.44 335.97
  A 0.29 0.28 -0.0 0 1 508.73 336.25
  L 508.72 399.50
  Q 508.72 400.02 508.20 400.02
  L 477.78 400.04
  Q 476.97 398.64 476.79 397.65
  Q 476.71 397.25 476.36 397.05
  Q 475.70 396.67 475.88 395.78
  Q 475.98 395.31 475.53 395.13
  Q 474.68 394.78 474.88 393.78
  Q 474.98 393.31 474.53 393.13
  Q 473.67 392.78 473.88 391.78
  Q 473.98 391.31 473.53 391.13
  Q 472.67 390.78 472.88 389.78
  Q 472.98 389.31 472.53 389.13
  Q 471.67 388.78 471.88 387.78
  Q 471.98 387.31 471.53 387.13
  Q 470.67 386.78 470.88 385.78
  Q 470.98 385.31 470.53 385.13
  Q 469.67 384.78 469.88 383.78
  Q 469.98 383.31 469.53 383.13
  Q 468.67 382.78 468.88 381.78
  Q 468.98 381.31 468.53 381.13
  Q 467.67 380.78 467.88 379.78
  Q 467.98 379.31 467.53 379.13
  Q 466.67 378.78 466.88 377.78
  Q 466.98 377.31 466.53 377.13
  Q 465.67 376.78 465.88 375.78
  Q 465.98 375.31 465.53 375.13
  Q 464.67 374.78 464.88 373.78
  Q 464.98 373.31 464.53 373.13
  Q 463.67 372.78 463.88 371.78
  Q 463.98 371.31 463.53 371.13
  Q 462.67 370.78 462.88 369.78
  Q 462.98 369.31 462.53 369.13
  Q 461.67 368.78 461.88 367.78
  Q 461.98 367.31 461.53 367.13
  Q 460.67 366.78 460.88 365.78
  Q 460.98 365.31 460.53 365.13
  Q 459.67 364.78 459.88 363.78
  Q 459.98 363.31 459.53 363.13
  Q 458.67 362.78 458.88 361.78
  Q 458.98 361.31 458.53 361.13
  Q 457.67 360.78 457.88 359.78
  Q 457.98 359.31 457.53 359.13
  Q 456.67 358.78 456.88 357.78
  Q 456.98 357.31 456.53 357.13
  Q 455.70 356.79 455.87 355.84
  Q 455.95 355.39 455.57 355.14
  Q 454.22 354.26 453.79 352.75
  Q 453.67 352.32 453.31 352.05
  Q 452.71 351.61 452.89 350.80
  Q 453.00 350.32 452.54 350.13
  Q 451.67 349.79 451.88 348.78
  Q 451.98 348.31 451.53 348.13
  Q 450.67 347.78 450.88 346.78
  Q 450.98 346.31 450.53 346.13
  Q 449.67 345.78 449.88 344.78
  Q 449.98 344.31 449.53 344.13
  Q 448.67 343.78 448.88 342.78
  Q 448.98 342.31 448.53 342.13
  Q 447.68 341.78 447.88 340.78
  Q 447.98 340.31 447.53 340.13
  Q 446.70 339.79 446.87 338.84
  Q 446.95 338.40 446.55 338.18
  Q 445.19 337.45 446.49 335.97
  Z"
/>
<path fill="#ba1858" d="
  M 285.25 400.03
  L 267.10 400.02
  Q 266.55 400.02 266.55 399.47
  L 266.55 339.28
  Q 267.28 338.64 268.16 339.57
  Q 268.59 340.02 268.81 340.87
  Q 270.62 347.92 272.91 354.89
  Q 272.93 354.96 273.09 356.18
  Q 273.15 356.59 273.42 356.94
  Q 273.66 357.23 273.75 357.60
  L 275.13 363.00
  A 0.33 0.33 0.0 0 1 275.13 363.16
  Q 275.01 363.67 275.45 363.97
  Q 275.88 364.26 275.91 364.77
  Q 276.01 366.67 276.88 368.32
  Q 277.12 368.78 277.12 369.30
  L 277.12 369.96
  Q 277.12 370.45 277.35 370.88
  Q 277.70 371.52 278.14 372.99
  Q 280.13 379.60 282.02 386.23
  C 282.18 386.82 281.88 387.40 282.50 388.02
  Q 282.83 388.37 282.89 388.85
  Q 283.08 390.60 284.09 393.00
  Q 285.45 396.20 285.25 400.03
  Z"
/>
<path fill="#d8313f" d="
  M 243.47 348.25
  L 243.47 399.47
  Q 243.47 400.02 242.93 400.02
  L 224.03 400.02
  L 224.03 397.94
  Q 224.03 397.42 224.43 397.11
  Q 225.33 396.39 225.03 395.02
  Q 224.91 394.45 225.38 394.12
  Q 226.28 393.49 226.11 392.23
  Q 226.04 391.77 226.36 391.43
  Q 227.21 390.54 227.10 389.23
  Q 227.06 388.69 227.44 388.30
  L 227.72 387.99
  A 0.56 0.53 -28.7 0 0 227.87 387.53
  Q 227.72 386.50 228.50 386.03
  Q 228.95 385.75 228.99 385.22
  L 229.07 384.04
  Q 229.10 383.52 229.46 383.15
  Q 230.26 382.34 230.10 381.14
  Q 230.03 380.64 230.34 380.25
  Q 231.12 379.27 231.05 377.99
  Q 231.03 377.52 231.42 377.27
  Q 232.14 376.81 232.07 375.94
  Q 232.02 375.39 232.45 375.05
  Q 233.32 374.36 233.03 373.01
  Q 232.90 372.45 233.38 372.12
  Q 234.31 371.48 234.09 370.16
  Q 234.01 369.66 234.33 369.27
  Q 235.13 368.27 235.05 366.99
  Q 235.03 366.52 235.42 366.27
  Q 236.08 365.85 236.07 365.09
  Q 236.07 364.55 236.45 364.15
  Q 237.29 363.27 237.03 361.96
  A 0.83 0.81 68.5 0 1 237.40 361.09
  Q 238.32 360.53 238.06 359.30
  A 0.93 0.93 0.0 0 1 238.33 358.43
  Q 239.31 357.48 239.08 356.02
  Q 239.00 355.53 239.42 355.27
  Q 240.06 354.86 240.07 354.13
  Q 240.08 353.59 240.44 353.19
  Q 241.33 352.17 241.02 350.71
  A 0.55 0.54 -18.1 0 1 241.34 350.09
  L 241.64 349.97
  Q 242.02 349.81 242.05 349.41
  Q 242.33 346.44 243.47 348.25
  Z"
/>
<path fill="#ff9200" d="
  M 110.98 489.00
  L 1.40 489.00
  L 1.41 425.55
  Q 1.41 424.97 1.98 424.97
  L 110.49 424.97
  Q 110.98 424.97 110.98 425.47
  L 110.98 489.00
  Z"
/>
<path fill="#ff9200" d="
  M 143.84 424.99
  L 143.82 488.14
  Q 143.82 488.25 143.89 488.32
  Q 143.96 488.39 144.00 488.39
  A 0.01 0.01 0.0 0 0 144.00 488.37
  Q 143.74 488.32 143.41 488.44
  A 0.22 0.21 70.3 0 0 143.28 488.72
  L 143.39 489.00
  L 133.82 489.00
  L 133.82 425.54
  Q 133.82 425.01 134.35 425.01
  L 143.84 424.99
  Z"
/>
<path fill="#f26614" d="
  M 143.84 424.99
  L 177.46 424.99
  L 177.27 425.90
  Q 177.24 426.05 177.37 426.13
  L 177.63 426.30
  Q 177.88 426.46 177.88 426.76
  L 178.02 489.00
  L 143.39 489.00
  L 143.28 488.72
  A 0.22 0.21 70.3 0 1 143.41 488.44
  Q 143.74 488.32 144.00 488.37
  A 0.01 0.01 0.0 0 1 144.00 488.39
  Q 143.96 488.39 143.89 488.32
  Q 143.82 488.25 143.82 488.14
  L 143.84 424.99
  Z"
/>
<path fill="#de5326" d="
  M 177.46 424.99
  L 189.17 425.00
  L 189.12 489.00
  L 178.02 489.00
  L 177.88 426.76
  Q 177.88 426.46 177.63 426.30
  L 177.37 426.13
  Q 177.24 426.05 177.27 425.90
  L 177.46 424.99
  Z"
/>
<path fill="#df4034" d="
  M 189.17 425.00
  L 208.53 425.00
  Q 209.16 425.30 208.98 425.46
  Q 208.75 425.65 208.51 425.83
  Q 208.12 426.13 208.12 426.63
  Q 208.12 457.19 208.06 487.75
  Q 208.06 487.89 207.99 488.00
  Q 207.92 488.10 208.03 488.14
  Q 208.28 488.23 208.35 488.50
  Q 208.42 488.78 208.25 489.00
  L 189.12 489.00
  L 189.17 425.00
  Z"
/>
<path fill="#d8313f" d="
  M 208.53 425.00
  L 242.93 425.01
  Q 243.47 425.01 243.47 425.55
  L 243.47 489.00
  L 208.25 489.00
  Q 208.42 488.78 208.35 488.50
  Q 208.28 488.23 208.03 488.14
  Q 207.92 488.10 207.99 488.00
  Q 208.06 487.89 208.06 487.75
  Q 208.12 457.19 208.12 426.63
  Q 208.12 426.13 208.51 425.83
  Q 208.75 425.65 208.98 425.46
  Q 209.16 425.30 208.53 425.00
  Z"
/>
<path fill="#ba1858" d="
  M 283.65 424.99
  C 283.04 426.84 283.34 429.06 283.16 431.00
  C 282.95 433.26 283.36 435.82 283.37 437.67
  Q 283.48 463.35 282.95 489.00
  L 266.54 489.00
  L 266.55 425.55
  Q 266.55 425.00 267.09 425.00
  L 283.65 424.99
  Z"
/>
<path fill="#a3175f" d="
  M 283.65 424.99
  L 310.22 424.99
  Q 309.16 425.28 309.16 426.00
  Q 309.13 454.29 309.15 482.58
  C 309.15 484.46 310.35 488.07 307.98 489.00
  L 282.95 489.00
  Q 283.48 463.35 283.37 437.67
  C 283.36 435.82 282.95 433.26 283.16 431.00
  C 283.34 429.06 283.04 426.84 283.65 424.99
  Z"
/>
<path fill="#75156c" d="
  M 310.22 424.99
  L 336.28 424.99
  L 336.94 425.41
  A 0.24 0.23 -52.1 0 1 336.98 425.77
  L 336.74 426.00
  Q 336.58 426.16 336.59 426.37
  Q 337.10 456.70 336.72 487.03
  Q 336.71 487.89 336.27 488.29
  Q 335.78 488.75 334.98 489.00
  L 307.98 489.00
  C 310.35 488.07 309.15 484.46 309.15 482.58
  Q 309.13 454.29 309.16 426.00
  Q 309.16 425.28 310.22 424.99
  Z"
/>
<path fill="#3f137c" d="
  M 336.28 424.99
  L 375.67 425.00
  Q 376.22 425.00 376.22 425.54
  L 376.22 489.00
  L 334.98 489.00
  Q 335.78 488.75 336.27 488.29
  Q 336.71 487.89 336.72 487.03
  Q 337.10 456.70 336.59 426.37
  Q 336.58 426.16 336.74 426.00
  L 336.98 425.77
  A 0.24 0.23 -52.1 0 0 336.94 425.41
  L 336.28 424.99
  Z"
/>
<path fill="#284393" d="
  M 508.66 489.00
  L 399.02 489.00
  L 399.02 425.45
  Q 399.02 424.96 399.52 424.96
  L 508.22 424.96
  Q 508.69 424.96 508.69 425.43
  L 508.66 489.00
  Z"
/>
</svg>
