<?xml version="1.0" encoding="UTF-8" standalone="no"?>
<!DOCTYPE svg PUBLIC "-//W3C//DTD SVG 1.1//EN" "http://www.w3.org/Graphics/SVG/1.1/DTD/svg11.dtd">
<svg xmlns="http://www.w3.org/2000/svg" version="1.1" viewBox="0.00 0.00 1041.00 565.00">
<g stroke-width="2.00" fill="none" stroke-linecap="butt">
<path stroke="#0519ee" stroke-opacity="0.933" vector-effect="non-scaling-stroke" d="
  M 842.17 112.92
  Q 842.43 114.61 841.12 115.82
  A 1.28 1.28 0.0 0 1 839.94 116.12
  Q 839.08 115.90 838.96 116.61
  Q 838.89 117.02 838.48 117.02
  L 838.01 117.02
  Q 837.55 117.02 837.22 117.34
  L 835.73 118.80
  Q 835.50 119.02 835.19 119.02
  L 834.88 119.02
  Q 834.51 119.02 834.25 119.28
  L 831.67 121.87
  Q 831.52 122.02 831.31 122.02
  L 831.01 122.02
  Q 830.55 122.02 830.22 122.34
  L 828.73 123.80
  Q 828.50 124.02 828.19 124.02
  L 827.88 124.02
  Q 827.59 124.02 827.38 124.22
  L 825.23 126.25
  Q 824.98 126.48 825.19 126.75
  Q 825.27 126.86 825.25 127.04
  Q 825.20 127.40 824.84 127.32
  Q 824.50 127.25 824.23 127.30"
/>
<path stroke="#010bbc" vector-effect="non-scaling-stroke" d="
  M 937.44 235.56
  L 915.86 243.49"
/>
</g>
<path fill="#034676" fill-opacity="0.463" d="
  M 605.04 3.94
  Q 601.56 4.14 598.27 4.58
  Q 596.63 4.79 596.13 7.13
  Q 596.03 7.61 595.69 7.95
  L 592.30 11.30
  Q 592.12 11.48 592.12 11.74
  L 592.12 12.07
  Q 592.12 12.50 591.81 12.81
  L 589.30 15.30
  Q 589.12 15.49 589.12 15.75
  L 589.12 16.07
  Q 589.12 16.50 588.81 16.81
  L 586.30 19.30
  Q 586.12 19.49 586.12 19.75
  L 586.12 20.22
  A 0.75 0.74 68.3 0 1 585.89 20.76
  L 584.42 22.19
  Q 584.06 22.54 584.07 23.03
  Q 584.10 23.95 585.07 24.40
  Q 537.95 20.35 491.22 26.80
  Q 491.05 25.70 492.83 25.88
  Q 493.42 25.94 493.72 25.74
  Q 494.18 25.42 494.13 24.79
  Q 494.09 24.33 494.50 24.12
  Q 495.36 23.69 495.10 22.75
  A 0.56 0.55 -22.2 0 1 495.36 22.14
  Q 496.77 21.34 497.18 19.85
  Q 497.30 19.39 497.67 19.08
  Q 498.27 18.58 498.12 17.82
  Q 498.04 17.37 498.42 17.14
  Q 499.76 16.31 500.16 14.89
  Q 500.30 14.41 500.68 14.08
  Q 501.27 13.58 501.12 12.82
  Q 501.04 12.37 501.42 12.14
  Q 502.76 11.31 503.16 9.89
  Q 503.30 9.41 503.68 9.08
  Q 504.28 8.58 504.12 7.80
  Q 504.03 7.35 504.42 7.12
  Q 505.98 6.22 506.19 4.52
  Q 506.22 4.21 506.52 4.11
  Q 506.70 4.05 506.85 3.92
  Q 507.26 3.52 506.69 3.47
  Q 505.51 3.36 504.76 2.54
  C 537.86 -0.75 572.09 -0.65 605.04 3.94
  Z"
/>
<path fill="#024161" fill-opacity="0.380" d="
  M 504.76 2.54
  Q 505.51 3.36 506.69 3.47
  Q 507.26 3.52 506.85 3.92
  Q 506.70 4.05 506.52 4.11
  Q 506.22 4.21 506.19 4.52
  Q 505.98 6.22 504.42 7.12
  Q 504.03 7.35 504.12 7.80
  Q 504.28 8.58 503.68 9.08
  Q 503.30 9.41 503.16 9.89
  Q 502.76 11.31 501.42 12.14
  Q 501.04 12.37 501.12 12.82
  Q 501.27 13.58 500.68 14.08
  Q 500.30 14.41 500.16 14.89
  Q 499.76 16.31 498.42 17.14
  Q 498.04 17.37 498.12 17.82
  Q 498.27 18.58 497.67 19.08
  Q 497.30 19.39 497.18 19.85
  Q 496.77 21.34 495.36 22.14
  A 0.56 0.55 -22.2 0 0 495.10 22.75
  Q 495.36 23.69 494.50 24.12
  Q 494.09 24.33 494.13 24.79
  Q 494.18 25.42 493.72 25.74
  Q 493.42 25.94 492.83 25.88
  Q 491.05 25.70 491.22 26.80
  Q 470.06 29.80 449.32 34.88
  Q 449.90 33.02 451.61 33.34
  A 1.12 1.12 0.0 0 0 452.91 32.00
  Q 452.73 31.15 453.52 30.88
  Q 453.99 30.72 453.89 30.24
  Q 453.67 29.21 454.55 28.87
  Q 454.99 28.69 454.89 28.23
  Q 454.67 27.22 455.53 26.87
  A 0.58 0.58 0.0 0 0 455.88 26.21
  Q 455.70 25.31 456.39 24.94
  Q 456.73 24.75 456.80 24.36
  Q 457.06 22.75 458.59 21.90
  Q 458.99 21.68 458.89 21.23
  Q 458.67 20.22 459.53 19.87
  Q 459.98 19.69 459.88 19.22
  Q 459.68 18.22 460.53 17.87
  Q 460.98 17.69 460.88 17.22
  Q 460.68 16.22 461.54 15.87
  Q 462.00 15.68 461.89 15.20
  Q 461.71 14.39 462.31 13.95
  Q 462.67 13.69 462.79 13.25
  Q 463.25 11.63 464.75 10.74
  Q 464.88 10.66 464.88 10.51
  Q 464.88 10.38 464.87 10.24
  Q 464.83 9.74 464.42 9.44
  Q 464.02 9.14 464.21 8.48
  Q 484.38 4.54 504.76 2.54
  Z"
/>
<path fill="#0647a5" fill-opacity="0.643" d="
  M 605.04 3.94
  Q 666.64 11.77 723.52 36.50
  Q 723.57 36.63 723.62 36.76
  Q 723.91 37.50 723.45 38.14
  Q 722.83 39.01 722.09 38.89
  Q 721.58 38.80 721.21 39.17
  L 707.86 52.51
  Q 707.43 52.94 706.87 52.69
  Q 706.41 52.49 705.93 52.79
  Q 705.63 52.98 705.31 52.80
  Q 704.63 52.42 703.95 52.84
  Q 646.58 29.77 585.07 24.40
  Q 584.10 23.95 584.07 23.03
  Q 584.06 22.54 584.42 22.19
  L 585.89 20.76
  A 0.75 0.74 68.3 0 0 586.12 20.22
  L 586.12 19.75
  Q 586.12 19.49 586.30 19.30
  L 588.81 16.81
  Q 589.12 16.50 589.12 16.07
  L 589.12 15.75
  Q 589.12 15.49 589.30 15.30
  L 591.81 12.81
  Q 592.12 12.50 592.12 12.07
  L 592.12 11.74
  Q 592.12 11.48 592.30 11.30
  L 595.69 7.95
  Q 596.03 7.61 596.13 7.13
  Q 596.63 4.79 598.27 4.58
  Q 601.56 4.14 605.04 3.94
  Z"
/>
<path fill="#01384b" fill-opacity="0.294" d="
  M 464.21 8.48
  Q 464.02 9.14 464.42 9.44
  Q 464.83 9.74 464.87 10.24
  Q 464.88 10.38 464.88 10.51
  Q 464.88 10.66 464.75 10.74
  Q 463.25 11.63 462.79 13.25
  Q 462.67 13.69 462.31 13.95
  Q 461.71 14.39 461.89 15.20
  Q 462.00 15.68 461.54 15.87
  Q 460.68 16.22 460.88 17.22
  Q 460.98 17.69 460.53 17.87
  Q 459.68 18.22 459.88 19.22
  Q 459.98 19.69 459.53 19.87
  Q 458.67 20.22 458.89 21.23
  Q 458.99 21.68 458.59 21.90
  Q 457.06 22.75 456.80 24.36
  Q 456.73 24.75 456.39 24.94
  Q 455.70 25.31 455.88 26.21
  A 0.58 0.58 0.0 0 1 455.53 26.87
  Q 454.67 27.22 454.89 28.23
  Q 454.99 28.69 454.55 28.87
  Q 453.67 29.21 453.89 30.24
  Q 453.99 30.72 453.52 30.88
  Q 452.73 31.15 452.91 32.00
  A 1.12 1.12 0.0 0 1 451.61 33.34
  Q 449.90 33.02 449.32 34.88
  Q 401.03 46.75 357.03 69.62
  Q 356.70 68.95 356.03 69.04
  Q 355.82 69.07 355.70 69.24
  Q 355.60 69.40 355.53 69.61
  Q 355.40 70.04 354.99 69.87
  Q 354.01 69.49 353.48 70.23
  Q 352.95 70.96 353.02 70.25
  Q 353.04 70.07 353.06 69.91
  Q 353.10 69.45 353.44 69.15
  Q 354.37 68.34 354.02 67.04
  Q 353.86 66.47 354.35 66.14
  Q 355.42 65.42 355.02 64.08
  Q 354.85 63.48 355.36 63.13
  Q 356.45 62.39 356.00 61.00
  A 0.77 0.77 0.0 0 1 356.48 60.03
  Q 357.19 59.79 357.04 59.00
  Q 356.93 58.44 357.39 58.11
  Q 358.44 57.37 358.00 56.00
  A 0.77 0.77 0.0 0 1 358.48 55.03
  Q 359.19 54.79 359.04 54.00
  Q 358.93 53.44 359.39 53.11
  Q 360.44 52.37 360.00 51.00
  A 0.77 0.77 0.0 0 1 360.48 50.03
  Q 361.19 49.79 361.04 49.00
  Q 360.93 48.44 361.39 48.11
  Q 362.46 47.36 361.98 45.97
  A 0.72 0.72 0.0 0 1 362.38 45.08
  Q 363.37 44.65 363.01 43.54
  Q 362.97 43.39 363.09 43.30
  L 363.47 43.02
  Q 363.89 42.72 363.41 42.54
  Q 361.97 41.99 362.48 41.67
  Q 411.34 18.80 464.21 8.48
  Z"
/>
<path fill="#0940c1" fill-opacity="0.757" d="
  M 723.52 36.50
  Q 755.65 50.47 785.32 69.50
  Q 784.05 70.14 782.85 70.76
  Q 782.65 70.87 782.43 70.88
  Q 782.16 70.89 781.89 70.88
  A 0.96 0.96 0.0 0 0 781.19 71.16
  L 778.71 73.69
  Q 778.53 73.88 778.26 73.88
  L 777.93 73.88
  Q 777.50 73.88 777.20 74.18
  L 772.69 78.70
  Q 772.51 78.88 772.25 78.88
  L 771.92 78.88
  Q 771.48 78.88 771.19 79.22
  Q 768.64 82.26 765.59 83.89
  Q 735.90 65.74 703.95 52.84
  Q 704.63 52.42 705.31 52.80
  Q 705.63 52.98 705.93 52.79
  Q 706.41 52.49 706.87 52.69
  Q 707.43 52.94 707.86 52.51
  L 721.21 39.17
  Q 721.58 38.80 722.09 38.89
  Q 722.83 39.01 723.45 38.14
  Q 723.91 37.50 723.62 36.76
  Q 723.57 36.63 723.52 36.50
  Z"
/>
<path fill="#002227" fill-opacity="0.153" d="
  M 362.48 41.67
  Q 361.97 41.99 363.41 42.54
  Q 363.89 42.72 363.47 43.02
  L 363.09 43.30
  Q 362.97 43.39 363.01 43.54
  Q 363.37 44.65 362.38 45.08
  A 0.72 0.72 0.0 0 0 361.98 45.97
  Q 362.46 47.36 361.39 48.11
  Q 360.93 48.44 361.04 49.00
  Q 361.19 49.79 360.48 50.03
  A 0.77 0.77 0.0 0 0 360.00 51.00
  Q 360.44 52.37 359.39 53.11
  Q 358.93 53.44 359.04 54.00
  Q 359.19 54.79 358.48 55.03
  A 0.77 0.77 0.0 0 0 358.00 56.00
  Q 358.44 57.37 357.39 58.11
  Q 356.93 58.44 357.04 59.00
  Q 357.19 59.79 356.48 60.03
  A 0.77 0.77 0.0 0 0 356.00 61.00
  Q 356.45 62.39 355.36 63.13
  Q 354.85 63.48 355.02 64.08
  Q 355.42 65.42 354.35 66.14
  Q 353.86 66.47 354.02 67.04
  Q 354.37 68.34 353.44 69.15
  Q 353.10 69.45 353.06 69.91
  Q 353.04 70.07 353.02 70.25
  Q 352.95 70.96 353.48 70.23
  Q 354.01 69.49 354.99 69.87
  Q 355.40 70.04 355.53 69.61
  Q 355.60 69.40 355.70 69.24
  Q 355.82 69.07 356.03 69.04
  Q 356.70 68.95 357.03 69.62
  Q 298.61 100.17 252.41 147.06
  Q 252.26 147.20 252.09 147.25
  Q 251.96 147.30 251.83 147.33
  Q 251.73 147.36 251.66 147.43
  L 245.13 153.94
  Q 244.39 154.69 244.03 153.70
  Q 243.39 151.95 244.65 150.58
  Q 244.89 150.32 244.89 149.97
  L 244.89 145.92
  Q 244.89 145.91 244.89 145.91
  Q 244.95 145.09 245.42 144.92
  Q 245.89 144.75 245.89 144.26
  L 245.89 140.75
  A 1.17 0.73 -36.8 0 1 246.13 140.13
  Q 246.25 139.98 246.42 139.92
  Q 246.89 139.75 246.89 139.26
  L 246.89 135.75
  A 1.17 0.73 -36.8 0 1 247.13 135.13
  Q 247.25 134.98 247.43 134.92
  Q 247.89 134.76 247.89 134.26
  L 247.89 131.89
  Q 247.89 131.48 248.13 131.16
  Q 248.31 130.91 248.55 130.88
  Q 248.89 130.84 248.89 130.50
  L 248.89 126.75
  A 1.17 0.73 -36.8 0 1 249.13 126.13
  Q 249.25 125.98 249.43 125.92
  Q 249.89 125.76 249.89 125.26
  L 249.89 122.63
  Q 249.89 122.13 250.37 121.96
  L 250.63 121.87
  Q 250.89 121.78 250.89 121.50
  L 250.89 118.50
  Q 250.89 118.27 250.76 117.75
  Q 250.72 117.59 250.60 117.54
  Q 250.24 117.37 250.53 117.09
  Q 296.80 74.05 353.42 45.91
  Q 357.94 43.66 362.48 41.67
  Z"
/>
<path fill="#0b34dd" fill-opacity="0.867" d="
  M 785.32 69.50
  C 805.31 82.40 824.44 96.90 842.17 112.92
  Q 842.43 114.61 841.12 115.82
  A 1.28 1.28 0.0 0 1 839.94 116.12
  Q 839.08 115.90 838.96 116.61
  Q 838.89 117.02 838.48 117.02
  L 838.01 117.02
  Q 837.55 117.02 837.22 117.34
  L 835.73 118.80
  Q 835.50 119.02 835.19 119.02
  L 834.88 119.02
  Q 834.51 119.02 834.25 119.28
  L 831.67 121.87
  Q 831.52 122.02 831.31 122.02
  L 831.01 122.02
  Q 830.55 122.02 830.22 122.34
  L 828.73 123.80
  Q 828.50 124.02 828.19 124.02
  L 827.88 124.02
  Q 827.59 124.02 827.38 124.22
  L 825.23 126.25
  Q 824.98 126.48 825.19 126.75
  Q 825.27 126.86 825.25 127.04
  Q 825.20 127.40 824.84 127.32
  Q 824.50 127.25 824.23 127.30
  Q 796.67 102.95 765.59 83.89
  Q 768.64 82.26 771.19 79.22
  Q 771.48 78.88 771.92 78.88
  L 772.25 78.88
  Q 772.51 78.88 772.69 78.70
  L 777.20 74.18
  Q 777.50 73.88 777.93 73.88
  L 778.26 73.88
  Q 778.53 73.88 778.71 73.69
  L 781.19 71.16
  A 0.96 0.96 0.0 0 1 781.89 70.88
  Q 782.16 70.89 782.43 70.88
  Q 782.65 70.87 782.85 70.76
  Q 784.05 70.14 785.32 69.50
  Z"
/>
<path fill="#0001fc" d="
  M 842.17 112.92
  Q 900.71 165.64 937.44 235.56
  L 915.86 243.49
  Q 880.45 177.17 824.23 127.30
  Q 824.50 127.25 824.84 127.32
  Q 825.20 127.40 825.25 127.04
  Q 825.27 126.86 825.19 126.75
  Q 824.98 126.48 825.23 126.25
  L 827.38 124.22
  Q 827.59 124.02 827.88 124.02
  L 828.19 124.02
  Q 828.50 124.02 828.73 123.80
  L 830.22 122.34
  Q 830.55 122.02 831.01 122.02
  L 831.31 122.02
  Q 831.52 122.02 831.67 121.87
  L 834.25 119.28
  Q 834.51 119.02 834.88 119.02
  L 835.19 119.02
  Q 835.50 119.02 835.73 118.80
  L 837.22 117.34
  Q 837.55 117.02 838.01 117.02
  L 838.48 117.02
  Q 838.89 117.02 838.96 116.61
  Q 839.08 115.90 839.94 116.12
  A 1.28 1.28 0.0 0 0 841.12 115.82
  Q 842.43 114.61 842.17 112.92
  Z"
/>
<path fill="#01147c" d="
  M 164.06 373.39
  L 165.57 450.13
  Q 165.58 450.68 166.12 450.78
  C 184.41 454.19 204.59 456.09 223.59 454.11
  C 262.45 450.06 318.52 432.66 315.98 382.75
  C 314.59 355.51 294.96 331.25 275.48 314.00
  C 250.97 292.30 221.81 275.12 191.97 262.03
  Q 143.24 240.64 90.24 235.07
  C 70.00 232.94 49.01 233.10 28.99 237.20
  Q 23.58 238.31 18.50 240.48
  Q 17.61 240.86 17.26 241.38
  A 0.80 0.80 0.0 0 0 17.78 242.61
  Q 25.20 244.01 31.77 246.70
  C 34.55 247.84 33.55 251.42 31.50 252.06
  Q 20.37 255.56 9.50 252.99
  C -8.05 248.84 4.71 233.77 10.41 226.65
  C 13.96 222.22 16.98 222.11 21.90 220.53
  C 55.96 209.64 91.99 209.37 126.98 215.39
  C 164.71 221.88 202.63 233.98 236.37 252.13
  C 274.75 272.77 312.16 300.28 335.05 338.24
  C 345.16 355.02 352.20 375.07 349.78 394.77
  C 344.53 437.45 314.03 461.84 275.23 473.78
  C 239.89 484.66 202.46 484.67 166.66 475.69
  Q 166.00 475.53 165.99 476.20
  C 165.89 480.24 165.69 488.20 161.85 490.76
  Q 155.27 495.16 148.48 494.30
  C 136.58 492.78 133.91 474.44 133.25 464.81
  A 1.56 1.55 10.7 0 0 132.35 463.50
  C 105.01 450.96 78.68 431.96 60.10 408.08
  Q 54.04 400.29 52.87 395.59
  C 45.38 365.57 115.76 349.39 134.62 346.18
  A 0.94 0.93 -4.4 0 0 135.40 345.27
  Q 136.00 321.14 140.97 297.54
  C 141.90 293.12 145.01 277.50 152.87 287.13
  C 158.85 294.45 161.12 298.40 162.61 307.52
  Q 165.48 325.01 165.67 342.75
  Q 165.68 343.28 166.21 343.27
  C 171.69 343.16 177.45 342.81 182.61 343.08
  Q 207.51 344.34 231.72 350.34
  C 244.39 353.49 257.67 359.81 265.62 370.12
  C 277.19 385.12 267.56 405.71 250.51 410.49
  C 243.73 412.39 235.69 409.37 229.60 406.22
  A 1.88 1.88 0.0 0 1 228.96 403.42
  C 231.74 399.71 252.07 394.47 244.50 387.00
  C 239.51 382.07 229.98 379.61 223.13 378.22
  Q 194.20 372.36 164.60 372.82
  Q 164.05 372.83 164.06 373.39
  Z
  M 64.52 398.75
  C 82.19 418.08 106.67 432.93 132.11 441.83
  A 0.21 0.20 -78.1 0 0 132.38 441.65
  Q 134.98 407.90 134.97 374.04
  Q 134.97 373.57 134.49 373.59
  C 113.89 374.80 91.79 377.57 72.24 384.44
  Q 67.28 386.19 65.56 387.58
  Q 59.10 392.82 64.52 398.75
  Z"
/>
<path fill="#01147c" d="
  M 361.26 317.12
  C 358.11 323.15 352.51 331.42 345.61 323.61
  C 341.01 318.41 338.71 311.80 341.28 305.05
  A 0.78 0.77 32.1 0 0 341.08 304.20
  C 331.43 295.17 329.38 280.85 335.56 269.27
  C 348.61 244.81 372.37 231.69 399.49 229.33
  C 408.98 228.50 424.04 229.88 428.61 239.87
  Q 428.83 240.35 429.35 240.38
  C 448.47 241.62 457.23 254.72 449.90 272.81
  C 438.41 301.15 397.68 328.21 366.70 318.36
  Q 364.41 317.63 362.13 316.79
  Q 361.55 316.57 361.26 317.12
  Z
  M 350.63 277.43
  Q 348.85 281.73 350.63 286.36
  A 0.47 0.47 0.0 0 0 351.47 286.45
  Q 363.49 267.84 381.41 254.85
  Q 382.50 254.05 381.16 254.22
  Q 359.08 257.03 350.63 277.43
  Z
  M 371.39 297.12
  Q 371.16 297.43 371.54 297.51
  C 394.31 301.80 418.40 295.86 431.40 275.32
  C 434.84 269.88 437.26 257.20 426.99 257.04
  C 406.87 256.73 382.47 281.65 371.39 297.12
  Z"
/>
<path fill="#01147c" d="
  M 937.44 235.56
  Q 946.82 253.34 954.54 272.24
  C 956.72 277.57 954.74 280.40 949.19 280.41
  Q 943.60 280.43 938.00 280.49
  C 933.96 280.54 932.43 278.39 930.85 274.75
  Q 923.93 258.83 915.86 243.49
  L 937.44 235.56
  Z"
/>
<path fill="#01147c" d="
  M 1041.00 378.62
  L 1041.00 392.01
  Q 1040.05 397.01 1033.98 397.00
  Q 1003.72 396.96 973.29 397.02
  Q 972.75 397.02 972.76 397.56
  Q 973.36 429.09 970.21 458.98
  C 969.80 462.84 967.22 463.83 963.56 463.84
  Q 958.11 463.86 952.67 463.82
  C 949.17 463.80 946.27 462.33 946.68 458.50
  Q 949.97 427.96 949.42 397.27
  Q 949.41 397.00 949.15 397.00
  Q 918.37 396.99 887.50 397.00
  C 883.38 397.01 882.06 394.24 882.02 390.40
  Q 881.97 384.45 882.00 378.50
  Q 882.02 373.60 887.50 373.58
  Q 917.76 373.43 947.96 373.41
  Q 948.47 373.41 948.44 372.90
  Q 946.52 341.23 940.39 310.26
  C 939.59 306.24 942.97 305.00 946.41 305.00
  Q 952.59 305.00 958.75 305.00
  C 962.66 305.01 963.65 307.25 964.32 310.84
  C 968.42 333.02 970.36 352.84 971.96 372.88
  Q 972.00 373.43 972.55 373.43
  Q 1003.68 373.44 1034.74 373.42
  Q 1040.14 373.42 1041.00 378.62
  Z"
/>
<path fill="#01147c" d="
  M 555.59 390.52
  Q 554.82 391.16 554.58 393.24
  C 552.74 409.40 553.29 425.74 551.88 441.99
  C 551.45 446.97 550.76 454.35 546.27 457.50
  Q 541.42 460.89 536.31 458.94
  C 529.01 456.15 527.33 449.10 526.59 442.00
  C 524.07 417.79 527.88 391.36 534.46 368.05
  C 536.59 360.51 543.77 340.35 555.38 350.36
  Q 559.70 354.08 564.42 360.09
  C 577.34 376.56 587.39 394.73 598.73 412.25
  Q 600.02 414.26 601.75 415.25
  A 1.59 1.59 0.0 0 0 604.12 414.05
  Q 604.82 407.84 603.65 401.22
  Q 597.91 368.87 588.54 337.39
  C 587.51 333.94 584.99 322.54 591.18 322.01
  Q 593.51 321.81 595.55 323.21
  C 628.90 346.07 634.41 397.29 625.48 433.00
  C 622.05 446.71 609.00 459.05 594.59 449.18
  Q 592.20 447.54 587.93 442.08
  C 575.41 426.08 567.92 408.01 557.50 390.84
  Q 556.73 389.58 555.59 390.52
  Z"
/>
<path fill="#01147c" d="
  M 757.18 414.21
  A 0.30 0.30 0.0 0 0 757.72 414.31
  C 770.13 394.85 784.48 375.91 801.89 360.66
  C 812.18 351.64 830.30 340.40 842.27 353.47
  C 848.99 360.80 851.28 373.12 851.28 383.04
  C 851.29 396.39 848.13 409.79 841.21 421.33
  C 827.72 443.83 801.97 466.86 773.29 460.70
  A 0.64 0.63 17.0 0 0 772.58 461.07
  Q 752.40 508.27 746.17 558.77
  Q 746.05 559.76 745.05 561.75
  C 742.24 567.42 735.99 563.55 732.44 560.54
  C 716.04 546.63 715.57 527.31 719.77 507.74
  C 724.85 484.10 733.27 463.08 742.99 441.07
  Q 743.19 440.60 742.94 440.15
  C 728.12 414.67 739.92 382.43 755.33 360.58
  C 757.98 356.82 776.95 332.20 781.82 335.95
  C 784.00 337.63 782.76 345.60 782.27 348.03
  Q 781.51 351.77 778.74 357.07
  Q 772.12 369.76 765.01 382.18
  C 760.00 390.93 755.15 404.07 757.18 414.21
  Z
  M 809.09 423.09
  C 825.20 413.95 837.93 394.40 835.63 375.51
  Q 835.26 372.44 832.91 371.72
  C 830.12 370.87 827.43 373.35 825.57 375.31
  Q 801.94 400.21 785.80 430.46
  A 0.26 0.25 10.3 0 0 786.06 430.83
  Q 798.47 429.11 809.09 423.09
  Z"
/>
<path fill="#01147c" d="
  M 427.79 372.78
  C 425.52 373.52 423.30 377.43 427.27 378.17
  Q 448.46 382.09 469.99 382.72
  Q 484.47 383.15 498.23 387.58
  C 510.65 391.58 518.20 400.19 519.54 413.24
  Q 520.83 425.79 517.78 436.25
  Q 515.23 445.00 506.46 449.38
  C 475.43 464.91 436.79 465.45 411.77 438.51
  Q 409.51 436.08 407.59 430.74
  C 402.56 416.72 414.42 405.64 427.51 403.73
  C 442.72 401.50 458.23 403.70 472.92 407.78
  C 476.89 408.89 480.11 410.43 483.43 412.58
  C 492.27 418.29 481.01 423.96 476.46 425.14
  Q 457.78 429.97 440.47 420.57
  C 433.61 416.84 422.27 413.69 418.99 424.27
  C 417.51 429.07 425.79 432.47 429.28 433.13
  C 446.91 436.45 465.46 434.62 482.31 428.99
  C 487.85 427.14 498.51 422.67 500.01 416.22
  C 501.39 410.25 494.89 407.03 489.97 405.64
  Q 471.22 400.33 451.74 399.45
  Q 442.25 399.02 432.75 398.52
  C 425.41 398.14 409.92 397.03 404.42 391.84
  C 398.44 386.21 401.95 369.80 404.77 363.74
  C 411.52 349.24 443.59 342.39 458.57 340.34
  C 472.81 338.39 487.96 339.10 502.50 340.63
  C 509.07 341.33 516.51 342.56 522.28 345.98
  C 525.77 348.04 523.84 352.86 522.27 355.81
  C 519.23 361.51 514.85 362.44 508.22 362.89
  Q 474.37 365.18 440.77 369.94
  Q 433.25 371.00 427.79 372.78
  Z"
/>
<path fill="#01147c" d="
  M 679.35 385.92
  Q 698.27 384.41 712.26 385.70
  C 715.44 386.00 716.25 389.01 716.38 391.95
  C 716.80 401.43 717.07 405.60 706.75 406.21
  Q 688.68 407.27 670.60 407.98
  Q 670.09 408.00 669.95 408.48
  Q 667.00 418.42 664.08 428.22
  C 663.45 430.31 664.36 431.29 666.51 430.82
  Q 686.35 426.50 709.49 423.51
  Q 714.75 422.83 718.43 426.04
  C 722.85 429.90 725.32 436.69 720.86 441.37
  C 707.61 455.29 679.86 468.90 660.50 468.02
  C 652.79 467.67 645.92 461.97 641.35 455.90
  C 631.12 442.31 636.78 423.03 642.51 408.71
  Q 642.70 408.24 642.51 407.77
  C 640.79 403.56 636.74 391.85 642.62 389.34
  Q 646.41 387.72 650.54 387.38
  Q 651.10 387.33 651.34 386.83
  L 659.93 368.97
  Q 660.20 368.42 659.59 368.40
  Q 644.42 367.86 639.18 354.26
  C 637.00 348.60 647.17 347.15 651.64 346.29
  Q 679.08 341.01 707.00 339.85
  Q 718.23 339.38 721.25 339.79
  C 729.54 340.89 737.16 351.75 739.70 358.75
  Q 741.50 363.71 736.52 365.52
  Q 732.99 366.80 718.75 368.22
  Q 701.41 369.95 684.00 370.83
  Q 683.50 370.86 683.35 371.33
  L 678.87 385.32
  Q 678.66 385.98 679.35 385.92
  Z"
/>
<path fill="#01147c" d="
  M 383.85 462.69
  C 378.28 463.98 367.91 463.07 365.06 457.20
  C 362.08 451.08 362.03 440.71 361.93 432.00
  Q 361.66 407.61 362.66 383.25
  C 363.13 372.01 363.70 359.77 366.57 348.87
  C 367.95 343.58 374.01 339.25 378.68 343.80
  Q 380.31 345.39 383.59 350.63
  C 387.63 357.08 387.69 361.77 388.16 370.66
  Q 389.58 397.57 390.78 424.50
  C 391.25 435.08 391.41 446.29 389.45 456.76
  Q 388.54 461.60 383.85 462.69
  Z"
/>
</svg>
