<?xml version="1.0" encoding="UTF-8" standalone="no"?>
<!DOCTYPE svg PUBLIC "-//W3C//DTD SVG 1.1//EN" "http://www.w3.org/Graphics/SVG/1.1/DTD/svg11.dtd">
<svg xmlns="http://www.w3.org/2000/svg" version="1.1" viewBox="0.00 0.00 2560.00 537.00">
<path fill="#f61e22" d="
  M 391.39 0.00
  L 406.00 0.00
  C 416.57 2.78 433.85 -0.58 439.36 11.50
  Q 440.84 14.74 441.27 24.72
  C 442.40 50.26 442.27 75.93 442.29 101.50
  Q 442.39 240.25 442.01 379.00
  Q 441.98 388.51 441.19 398.00
  C 440.47 406.74 436.79 412.90 427.37 413.65
  C 408.62 415.14 392.51 416.05 376.51 413.91
  C 368.20 412.79 362.17 409.98 360.38 401.23
  C 358.61 392.53 357.73 384.64 357.71 375.21
  Q 357.31 204.99 357.71 34.77
  C 357.72 29.04 358.28 23.41 358.76 17.74
  Q 359.94 3.90 373.77 2.34
  Q 382.61 1.34 391.39 0.00
  Z"
/>
<path fill="#f61e22" d="
  M 848.33 0.00
  L 872.00 0.00
  C 883.78 2.01 898.19 1.36 901.23 16.24
  C 902.71 23.45 903.28 31.15 903.31 39.30
  Q 903.50 95.03 902.87 150.69
  A 1.59 1.59 0.0 0 0 903.80 152.15
  Q 905.19 152.78 906.72 151.66
  Q 911.67 148.03 916.57 144.30
  C 933.00 131.80 951.11 122.27 971.63 118.63
  C 987.80 115.75 1006.08 115.89 1022.44 118.23
  C 1064.55 124.26 1100.35 151.81 1115.19 191.90
  Q 1117.94 199.32 1121.03 211.02
  C 1132.80 255.49 1133.77 304.79 1114.72 347.37
  C 1099.71 380.90 1074.26 404.48 1038.75 415.65
  C 995.55 429.23 952.45 422.79 915.80 396.18
  Q 907.39 390.07 899.45 383.34
  Q 898.77 382.75 898.27 382.50
  A 0.72 0.72 0.0 0 0 897.24 382.98
  Q 896.06 388.27 894.82 392.97
  Q 889.65 412.41 869.49 414.72
  Q 857.18 416.14 844.00 414.89
  C 833.86 413.94 822.39 412.35 819.64 400.52
  Q 818.93 397.48 818.93 391.00
  Q 818.71 208.25 818.73 25.50
  C 818.73 12.87 824.68 2.21 838.27 1.14
  Q 845.94 0.53 848.33 0.00
  Z
  M 903.78 279.39
  C 906.71 301.45 913.32 321.64 931.58 335.40
  Q 950.00 349.27 974.74 349.31
  C 1015.41 349.37 1041.03 320.42 1044.85 281.83
  C 1046.97 260.42 1044.00 238.52 1033.32 219.69
  C 1019.54 195.41 993.85 187.13 967.14 188.92
  C 920.59 192.05 898.21 237.57 903.78 279.39
  Z"
/>
<path fill="#f61e22" d="
  M 1919.38 22.22
  C 1927.53 28.98 1929.05 39.43 1929.05 49.55
  Q 1929.07 211.90 1929.07 374.25
  C 1929.07 384.91 1925.77 396.08 1916.47 401.97
  Q 1912.06 404.77 1904.45 407.80
  Q 1888.64 414.10 1872.64 419.86
  C 1865.02 422.60 1853.11 421.56 1849.60 413.21
  Q 1848.40 410.36 1848.44 402.13
  Q 1848.74 335.93 1848.12 269.74
  Q 1848.02 259.33 1848.03 249.75
  Q 1848.23 132.13 1848.07 14.50
  Q 1848.06 11.62 1849.53 8.57
  C 1853.11 1.11 1860.64 -0.23 1867.96 2.10
  Q 1888.06 8.50 1907.68 16.22
  Q 1916.16 19.55 1919.38 22.22
  Z"
/>
<path fill="#f61e22" d="
  M 2170.39 380.28
  Q 2168.79 380.21 2167.19 381.93
  C 2141.91 408.87 2109.95 421.32 2073.25 422.58
  C 2048.25 423.44 2020.89 417.23 1999.80 402.93
  C 1979.59 389.24 1967.98 368.86 1965.26 344.23
  C 1962.02 315.06 1970.15 286.65 1993.12 267.87
  C 2038.87 230.47 2104.97 237.88 2157.97 249.60
  C 2161.58 250.40 2163.42 250.08 2163.36 245.87
  C 2163.01 219.63 2152.46 194.83 2125.28 187.32
  Q 2118.27 185.38 2105.56 184.14
  Q 2074.28 181.09 2044.90 192.43
  Q 2043.91 192.81 2033.88 197.56
  C 2021.84 203.26 2004.81 207.20 1996.04 193.61
  Q 1988.10 181.29 1985.59 176.70
  C 1979.77 166.07 1980.21 155.64 1990.81 148.33
  C 2025.58 124.33 2067.45 113.27 2109.49 114.72
  Q 2142.99 115.87 2175.22 129.23
  C 2217.76 146.87 2239.21 184.38 2243.19 228.77
  Q 2243.76 235.14 2243.76 248.76
  Q 2243.81 318.00 2243.45 387.25
  Q 2243.42 393.56 2242.04 399.72
  C 2239.96 408.95 2234.09 411.72 2224.95 413.52
  Q 2207.67 416.93 2191.50 413.82
  Q 2181.49 411.90 2178.04 401.56
  Q 2174.92 392.19 2171.78 381.38
  Q 2171.48 380.33 2170.39 380.28
  Z
  M 2105.81 292.89
  C 2094.98 292.36 2083.08 294.50 2072.67 297.42
  Q 2051.26 303.41 2045.54 324.41
  C 2044.69 327.56 2045.17 329.86 2046.12 332.85
  C 2051.96 351.36 2066.92 360.18 2085.74 361.02
  Q 2115.85 362.35 2137.74 342.25
  C 2147.99 332.82 2155.49 321.92 2158.39 308.11
  C 2159.17 304.36 2158.76 301.96 2154.74 301.01
  C 2137.07 296.86 2122.42 293.70 2105.81 292.89
  Z"
/>
<path fill="#f61e22" d="
  M 180.12 537.00
  L 120.02 537.00
  Q 111.50 535.33 103.03 533.53
  Q 57.73 523.93 18.01 500.17
  C 5.58 492.73 5.06 482.23 10.41 469.87
  Q 17.80 452.77 30.14 440.88
  C 36.97 434.29 48.64 437.05 56.52 441.28
  Q 67.10 446.97 78.11 451.79
  C 110.85 466.12 146.63 470.55 181.02 460.09
  C 220.10 448.20 230.50 410.76 228.27 374.31
  A 1.65 1.64 84.5 0 0 226.42 372.78
  C 225.33 372.93 224.09 373.40 223.16 374.17
  C 212.04 383.50 200.26 391.97 186.98 396.95
  C 138.08 415.31 79.20 406.73 41.79 368.81
  Q 9.68 336.26 3.51 289.99
  Q 2.57 282.95 1.44 277.42
  Q 0.51 272.86 0.50 268.99
  Q 0.50 262.03 0.49 255.07
  C 0.49 250.80 1.96 247.39 2.50 243.30
  C 7.28 206.74 22.53 173.41 49.62 148.37
  C 69.46 130.02 96.76 119.68 124.04 116.70
  C 162.13 112.54 197.48 123.11 226.36 148.35
  C 228.17 149.94 230.21 151.19 232.19 152.52
  A 0.49 0.49 0.0 0 0 232.91 152.33
  C 236.62 144.54 238.07 137.13 244.15 130.16
  C 248.54 125.14 254.89 122.86 261.89 121.99
  Q 276.21 120.21 290.46 122.21
  Q 298.29 123.30 302.11 125.66
  C 313.40 132.62 312.06 149.69 312.06 161.25
  C 312.06 233.99 313.20 306.78 312.58 379.52
  Q 312.47 393.06 311.92 399.49
  C 306.38 464.21 263.41 518.42 198.97 532.92
  Q 189.59 535.03 180.12 537.00
  Z
  M 119.74 329.33
  C 152.00 346.67 202.04 337.74 219.79 303.30
  C 238.54 266.93 230.96 213.79 190.79 194.44
  Q 166.64 182.81 140.24 188.45
  C 104.59 196.07 88.15 224.32 87.77 259.25
  C 87.49 286.13 94.17 315.59 119.74 329.33
  Z"
/>
<path fill="#f61e22" d="
  M 474.53 269.75
  C 473.50 210.50 507.59 153.48 562.63 129.87
  Q 590.12 118.07 618.25 116.38
  Q 634.73 115.38 657.50 118.02
  Q 687.94 121.54 715.77 137.67
  C 747.80 156.22 769.36 184.31 779.26 220.51
  C 790.22 260.60 788.58 302.20 769.69 339.43
  C 751.98 374.34 723.70 400.95 686.29 413.33
  C 633.73 430.73 578.84 424.53 533.23 392.51
  C 493.00 364.27 475.37 317.63 474.53 269.75
  Z
  M 591.32 337.67
  C 607.23 348.06 628.38 352.18 647.02 348.26
  C 694.48 338.30 707.87 281.46 697.63 241.60
  C 692.63 222.17 681.31 205.90 663.44 196.30
  C 634.33 180.67 597.14 187.86 576.84 214.59
  C 566.25 228.53 559.10 246.29 559.27 264.00
  C 559.53 291.45 566.81 321.66 591.32 337.67
  Z"
/>
<path fill="#f61e22" d="
  M 1368.11 413.59
  C 1314.98 430.54 1258.78 423.81 1213.60 390.43
  C 1191.60 374.18 1175.78 352.56 1166.98 326.48
  C 1149.36 274.25 1154.78 219.40 1188.59 174.80
  C 1222.13 130.56 1275.82 112.42 1330.25 117.49
  Q 1350.50 119.37 1366.72 124.28
  Q 1403.37 135.36 1428.38 161.12
  C 1454.87 188.40 1467.23 223.76 1469.49 261.26
  C 1473.48 327.53 1432.21 393.14 1368.11 413.59
  Z
  M 1249.58 308.46
  C 1263.33 341.09 1298.20 355.35 1331.97 347.36
  Q 1359.03 340.95 1371.94 316.47
  C 1387.56 286.83 1388.08 252.25 1373.07 222.19
  Q 1363.51 203.02 1343.96 194.91
  C 1310.81 181.14 1270.40 190.91 1252.95 223.75
  C 1239.26 249.50 1238.14 281.33 1249.58 308.46
  Z"
/>
<path fill="#f61e22" d="
  M 1585.79 388.64
  C 1585.70 428.87 1586.11 469.28 1585.44 509.74
  C 1585.24 521.87 1581.48 533.17 1567.25 533.85
  Q 1541.35 535.07 1525.75 534.79
  Q 1521.71 534.72 1515.01 532.96
  C 1508.11 531.16 1505.05 526.86 1503.10 519.91
  Q 1501.00 512.45 1501.01 506.00
  Q 1501.02 328.38 1500.98 150.75
  C 1500.98 138.84 1503.04 126.83 1517.01 124.33
  Q 1532.95 121.49 1553.50 122.89
  C 1573.91 124.29 1577.52 138.53 1579.38 155.83
  C 1579.62 158.08 1582.24 159.05 1584.17 157.41
  C 1585.63 156.16 1587.33 154.07 1589.01 152.60
  C 1612.70 131.84 1638.79 118.57 1670.50 117.09
  C 1726.66 114.47 1774.19 138.78 1797.57 190.29
  C 1821.64 243.30 1821.13 304.88 1793.40 356.51
  C 1776.18 388.57 1749.25 409.52 1713.24 417.98
  C 1671.30 427.84 1632.74 421.22 1597.99 395.48
  Q 1592.88 391.70 1587.28 387.86
  A 0.95 0.95 0.0 0 0 1585.79 388.64
  Z
  M 1683.76 192.73
  C 1655.65 183.65 1620.84 189.77 1601.93 214.19
  Q 1591.00 228.30 1587.51 246.50
  C 1586.31 252.78 1585.01 262.24 1585.32 269.55
  C 1586.50 296.90 1594.55 324.90 1619.59 339.40
  Q 1645.59 354.46 1674.96 347.63
  Q 1701.41 341.47 1714.85 319.53
  C 1733.45 289.15 1732.42 253.26 1716.82 221.68
  Q 1706.09 199.94 1683.76 192.73
  Z"
/>
<path fill="#f61e22" d="
  M 2338.37 537.00
  L 2321.00 537.00
  Q 2289.94 533.84 2266.64 513.87
  C 2255.83 504.61 2250.23 495.41 2257.70 481.26
  Q 2263.42 470.42 2272.50 461.00
  C 2279.56 453.67 2286.94 449.18 2297.26 453.51
  C 2305.92 457.14 2313.07 460.88 2323.04 463.53
  C 2330.86 465.62 2336.89 462.85 2342.89 457.86
  Q 2354.90 447.87 2362.98 434.46
  Q 2370.48 422.00 2372.25 417.75
  C 2373.94 413.67 2372.19 410.30 2370.05 405.60
  Q 2312.03 278.56 2254.03 151.52
  C 2247.74 137.75 2254.65 122.63 2270.50 121.90
  C 2283.14 121.32 2295.75 121.55 2308.38 121.59
  Q 2323.83 121.64 2327.03 122.51
  Q 2337.21 125.30 2341.59 136.46
  Q 2375.91 223.89 2410.60 311.19
  Q 2411.28 312.90 2411.86 313.91
  A 1.06 1.06 0.0 0 0 2413.78 313.73
  Q 2445.07 223.87 2475.72 134.73
  Q 2478.65 126.20 2486.16 123.26
  Q 2489.93 121.78 2500.49 121.75
  Q 2530.23 121.66 2539.74 121.80
  Q 2548.25 121.92 2554.91 127.56
  C 2556.28 128.71 2557.57 130.52 2558.93 131.98
  Q 2559.27 132.34 2559.28 132.84
  Q 2559.52 140.58 2559.52 148.33
  Q 2559.52 150.75 2558.50 153.00
  Q 2552.69 165.79 2550.83 170.59
  C 2517.72 255.88 2485.68 337.12 2448.81 425.54
  Q 2432.14 465.54 2406.65 498.85
  C 2391.28 518.95 2373.36 531.51 2347.74 535.65
  Q 2343.07 536.41 2338.37 537.00
  Z"
/>
</svg>
