<?xml version="1.0" encoding="UTF-8" standalone="no"?>
<!DOCTYPE svg PUBLIC "-//W3C//DTD SVG 1.1//EN" "http://www.w3.org/Graphics/SVG/1.1/DTD/svg11.dtd">
<svg xmlns="http://www.w3.org/2000/svg" version="1.1" viewBox="0.00 0.00 2308.00 400.00">
<path fill="#000000" d="
  M 758.59 0.00
  L 782.01 0.00
  Q 834.00 2.18 877.91 29.60
  C 927.14 60.33 961.18 112.95 968.42 170.65
  C 973.19 208.65 968.39 246.84 952.58 281.82
  Q 931.02 329.52 889.15 360.87
  Q 840.15 397.56 778.75 400.00
  L 761.95 400.00
  Q 748.89 399.19 739.51 397.79
  C 676.13 388.39 622.68 347.12 593.64 290.50
  Q 593.27 289.78 593.22 290.59
  C 590.89 330.96 565.83 365.32 531.29 384.33
  Q 511.64 395.14 489.23 397.42
  Q 483.45 398.00 469.24 398.00
  Q 387.73 398.00 306.26 398.00
  A 0.26 0.26 0.0 0 1 306.00 397.74
  L 306.00 6.99
  A 0.89 0.89 0.0 0 1 306.76 6.11
  Q 307.89 5.94 309.25 5.94
  Q 399.87 5.97 490.50 6.08
  C 537.98 6.13 580.32 50.26 590.81 93.98
  C 591.86 98.34 592.36 103.83 593.39 108.73
  A 0.19 0.19 0.0 0 0 593.75 108.77
  Q 598.84 97.19 606.09 86.63
  C 641.35 35.26 696.13 3.68 758.59 0.00
  Z
  M 470.32 96.15
  C 465.11 94.05 459.29 93.93 453.75 93.95
  Q 430.98 94.03 408.27 94.00
  A 0.27 0.27 0.0 0 0 408.00 94.27
  L 408.00 158.03
  A 1.02 1.01 0.0 0 0 409.02 159.04
  Q 432.54 158.93 455.75 158.96
  C 459.52 158.97 463.49 159.10 467.03 158.00
  Q 484.21 152.61 488.43 134.39
  C 489.08 131.60 489.82 128.99 489.70 126.14
  C 489.17 113.56 482.47 101.04 470.32 96.15
  Z
  M 871.19 199.13
  A 98.91 98.91 0.0 0 0 772.28 100.22
  A 98.91 98.91 0.0 0 0 673.37 199.13
  A 98.91 98.91 0.0 0 0 772.28 298.04
  A 98.91 98.91 0.0 0 0 871.19 199.13
  Z
  M 541.32 200.63
  Q 554.07 206.54 563.96 216.55
  Q 568.14 220.79 571.69 224.14
  Q 573.96 226.28 573.11 223.27
  C 572.43 220.88 572.00 218.79 571.99 216.19
  Q 571.98 203.85 571.84 191.50
  Q 571.78 185.93 573.14 179.98
  Q 573.64 177.78 571.70 178.93
  C 567.12 181.64 563.40 185.58 558.11 189.02
  C 553.03 192.32 544.88 197.06 538.90 198.24
  Q 536.63 198.69 538.66 199.80
  C 539.27 200.13 540.51 200.25 541.32 200.63
  Z
  M 488.78 266.28
  C 485.94 252.74 474.80 241.11 460.24 241.00
  Q 446.85 240.89 408.46 241.04
  Q 408.00 241.04 408.00 241.51
  L 408.00 305.00
  A 1.02 1.02 0.0 0 0 409.02 306.02
  Q 435.63 305.97 462.50 305.99
  C 478.38 306.00 487.95 290.78 489.60 276.59
  C 490.00 273.13 489.50 269.69 488.78 266.28
  Z"
/>
<path fill="#000000" d="
  M 1147.26 0.00
  L 1170.06 0.00
  C 1208.26 1.42 1246.43 15.15 1272.88 43.43
  A 0.79 0.79 0.0 0 0 1274.01 43.45
  C 1277.53 39.93 1280.99 36.25 1284.66 33.23
  C 1310.13 12.29 1341.67 1.71 1374.51 0.00
  L 1396.78 0.00
  C 1455.09 2.04 1506.41 32.03 1528.06 87.34
  C 1534.53 103.87 1537.86 122.08 1538.68 139.84
  C 1539.25 152.17 1539.00 165.92 1539.00 176.76
  Q 1539.00 278.38 1539.08 380.00
  C 1539.09 385.36 1540.05 394.63 1536.05 397.64
  Q 1534.31 398.96 1530.50 398.98
  Q 1516.37 399.07 1502.27 399.18
  C 1497.06 399.22 1490.27 398.51 1485.39 396.77
  C 1474.57 392.91 1465.69 383.53 1462.90 372.20
  Q 1461.99 368.53 1461.99 359.74
  Q 1462.01 256.87 1461.99 154.00
  Q 1461.99 150.43 1460.94 138.00
  C 1458.97 114.66 1445.32 94.25 1424.37 83.65
  C 1402.63 72.64 1374.05 72.25 1351.90 82.26
  C 1325.67 94.12 1312.31 118.50 1312.25 147.50
  Q 1311.99 269.00 1311.94 390.50
  C 1311.94 398.21 1309.61 398.85 1302.62 398.91
  Q 1289.82 399.04 1277.00 399.20
  C 1262.97 399.37 1251.26 396.25 1242.27 384.99
  C 1235.61 376.66 1234.80 368.19 1234.82 357.75
  Q 1235.06 258.63 1234.98 159.50
  Q 1234.97 146.12 1233.59 135.78
  C 1229.24 103.07 1205.91 80.97 1173.77 76.16
  C 1131.24 69.79 1090.97 92.06 1085.67 137.26
  Q 1085.16 141.63 1085.15 150.50
  Q 1085.02 271.00 1084.98 391.50
  C 1084.98 399.43 1080.58 398.84 1074.02 398.94
  Q 1057.60 399.18 1048.75 399.17
  C 1043.04 399.17 1036.46 398.60 1031.25 396.60
  C 1020.85 392.59 1011.92 383.49 1009.02 372.49
  Q 1008.01 368.66 1008.01 358.93
  Q 1007.99 249.34 1008.01 139.75
  Q 1008.01 127.08 1012.10 109.29
  Q 1026.04 48.56 1078.62 18.90
  C 1099.17 7.31 1123.77 1.31 1147.26 0.00
  Z"
/>
<path fill="#000000" d="
  M 1729.78 0.00
  L 1744.53 0.00
  Q 1760.24 0.66 1775.74 3.39
  C 1801.66 7.95 1824.30 17.81 1845.80 32.88
  Q 1847.24 33.90 1847.68 32.18
  C 1851.15 18.50 1864.54 7.05 1878.75 6.18
  Q 1887.30 5.66 1914.80 6.04
  Q 1918.26 6.08 1919.86 7.16
  C 1924.89 10.55 1923.01 25.84 1923.01 30.91
  Q 1922.98 209.46 1923.27 388.00
  C 1923.28 392.20 1921.77 399.02 1917.01 399.00
  Q 1903.25 398.95 1889.50 399.13
  Q 1880.76 399.25 1876.69 398.60
  C 1859.90 395.93 1848.90 384.44 1845.77 367.79
  Q 1845.63 367.09 1845.05 367.51
  C 1817.22 387.75 1784.36 398.58 1749.64 400.00
  L 1723.48 400.00
  C 1663.21 396.42 1610.13 364.10 1582.07 310.60
  C 1560.62 269.70 1554.63 221.82 1558.23 176.00
  C 1561.70 131.78 1575.60 90.23 1604.75 56.38
  C 1636.31 19.74 1682.01 2.04 1729.78 0.00
  Z
  M 1651.84 279.45
  C 1671.01 308.88 1703.09 325.00 1738.00 324.90
  C 1779.28 324.77 1814.70 302.98 1831.92 265.17
  C 1842.64 241.60 1846.01 215.95 1844.73 190.00
  C 1842.80 150.64 1827.97 112.14 1793.45 90.45
  C 1764.20 72.08 1725.37 70.47 1694.00 84.24
  C 1654.35 101.64 1634.42 142.46 1631.57 183.51
  C 1629.23 217.32 1633.07 250.65 1651.84 279.45
  Z"
/>
<path fill="#000000" d="
  M 0.00 397.97
  L 0.00 6.06
  L 108.53 6.01
  A 0.47 0.47 0.0 0 1 109.00 6.48
  L 109.00 151.25
  A 0.75 0.75 0.0 0 0 109.75 152.00
  L 176.25 152.00
  A 0.75 0.75 0.0 0 0 177.00 151.25
  L 177.00 6.75
  Q 177.00 6.00 177.75 6.00
  L 284.25 6.00
  A 0.75 0.75 0.0 0 1 285.00 6.75
  L 285.00 398.25
  A 0.75 0.74 0.0 0 1 284.25 398.99
  L 177.75 399.00
  A 0.75 0.75 0.0 0 1 177.00 398.25
  L 177.00 248.25
  A 1.25 1.25 0.0 0 0 175.75 247.00
  L 109.50 247.00
  Q 109.00 247.00 109.00 247.50
  L 109.00 397.04
  A 0.94 0.94 0.0 0 1 108.06 397.98
  L 0.00 397.97
  Z"
/>
<path fill="#000000" d="
  M 2308.00 8.81
  L 2308.00 12.54
  C 2303.75 20.03 2297.23 28.76 2293.80 33.95
  Q 2279.94 54.95 2265.81 75.77
  Q 2242.96 109.42 2220.27 143.18
  C 2212.82 154.28 2203.52 167.52 2195.40 179.87
  Q 2190.74 186.96 2189.32 191.71
  Q 2186.20 202.21 2189.45 212.70
  Q 2190.87 217.29 2195.50 224.25
  C 2220.89 262.43 2246.73 300.30 2272.26 338.38
  Q 2275.53 343.26 2283.56 354.88
  Q 2296.44 373.51 2308.00 392.40
  L 2308.00 395.64
  Q 2306.32 398.85 2300.50 398.89
  Q 2264.36 399.13 2252.50 399.05
  C 2235.01 398.93 2221.23 395.38 2209.32 382.44
  Q 2206.40 379.27 2197.47 365.78
  Q 2182.98 343.91 2168.19 322.23
  C 2158.92 308.64 2148.58 292.13 2139.83 280.45
  Q 2136.02 275.36 2128.48 274.08
  C 2117.88 272.28 2111.12 277.93 2105.61 286.17
  C 2092.97 305.04 2079.83 324.16 2067.16 343.30
  C 2059.76 354.47 2051.79 365.84 2044.26 377.23
  Q 2032.05 395.67 2008.77 398.36
  Q 2005.17 398.77 1997.75 398.84
  Q 1973.87 399.05 1950.00 398.98
  C 1944.26 398.97 1937.98 396.91 1942.70 389.89
  Q 1997.04 309.21 2051.54 228.63
  C 2060.03 216.08 2065.21 205.38 2059.44 190.02
  Q 2057.27 184.24 2051.04 175.21
  C 2014.23 121.88 1978.39 67.84 1942.09 14.16
  C 1939.35 10.11 1942.30 6.06 1946.75 6.05
  C 1966.70 5.98 1986.63 5.89 2006.58 6.23
  C 2017.87 6.42 2029.28 11.76 2037.21 19.23
  Q 2041.41 23.18 2049.40 35.02
  Q 2078.68 78.41 2107.91 121.84
  C 2112.47 128.62 2120.11 132.35 2128.18 130.75
  C 2135.44 129.32 2140.28 124.08 2144.28 118.10
  Q 2173.14 74.92 2202.30 31.95
  Q 2209.01 22.07 2213.45 18.10
  Q 2226.69 6.27 2245.50 6.04
  Q 2262.53 5.83 2303.10 6.10
  Q 2306.85 6.13 2308.00 8.81
  Z"
/>
<circle fill="#000000" cx="771.84" cy="198.99" r="78.91"/>
</svg>
