<?xml version="1.0" encoding="UTF-8" standalone="no"?>
<!DOCTYPE svg PUBLIC "-//W3C//DTD SVG 1.1//EN" "http://www.w3.org/Graphics/SVG/1.1/DTD/svg11.dtd">
<svg xmlns="http://www.w3.org/2000/svg" version="1.1" viewBox="0.00 0.00 2188.00 958.00">
<path fill="#0065d0" d="
  M 301.12 0.00
  L 318.50 0.00
  L 352.79 1.98
  Q 353.36 2.02 353.27 2.58
  C 353.07 3.96 352.51 5.02 352.51 6.36
  Q 352.51 378.55 352.51 750.65
  Q 352.51 750.93 352.79 750.99
  C 382.76 757.91 411.31 770.16 438.86 783.62
  C 467.32 797.52 495.70 811.60 525.35 822.85
  C 560.35 836.12 596.97 843.78 634.50 843.69
  C 662.02 843.62 689.25 835.35 713.66 823.22
  A 0.65 0.65 0.0 0 1 714.58 823.67
  C 729.58 893.17 685.90 950.82 616.12 958.00
  L 591.25 958.00
  C 550.26 952.67 514.55 929.94 481.96 906.00
  Q 451.72 883.80 421.59 861.44
  C 396.57 842.89 369.10 825.06 340.33 812.10
  Q 292.14 790.38 239.67 795.74
  A 0.74 0.72 -2.9 0 1 238.86 795.02
  L 238.87 62.28
  Q 238.87 61.97 238.57 61.84
  Q 237.96 61.58 237.20 61.80
  Q 212.72 68.93 190.08 80.62
  C 133.18 110.01 95.97 160.71 89.02 224.92
  Q 85.39 258.36 90.58 291.78
  C 95.74 324.98 110.08 350.22 134.71 371.57
  Q 135.58 372.32 134.43 372.32
  C 82.85 372.14 29.55 357.56 9.43 303.99
  C 3.21 287.44 1.00 270.69 0.00 253.13
  L 0.00 239.73
  C 4.37 157.13 61.27 90.47 129.79 50.04
  Q 208.94 3.35 301.12 0.00
  Z"
/>
<path fill="#0065d0" d="
  M 2188.00 654.37
  L 2188.00 688.51
  C 2179.27 730.40 2142.64 756.56 2103.97 768.58
  C 2013.24 796.80 1916.33 761.36 1872.27 674.95
  A 0.57 0.57 0.0 0 0 1871.23 675.01
  C 1854.09 722.13 1821.94 771.55 1767.25 777.13
  C 1721.53 781.80 1672.96 769.83 1648.56 727.45
  C 1637.11 707.57 1632.34 683.74 1632.48 660.75
  Q 1632.87 595.93 1633.19 576.25
  Q 1633.43 561.72 1632.91 549.26
  C 1631.38 512.58 1618.23 474.41 1575.24 470.83
  Q 1542.86 468.14 1520.14 487.25
  C 1502.22 502.33 1490.63 526.48 1483.07 548.18
  Q 1482.03 551.15 1482.03 554.50
  Q 1482.05 663.03 1482.03 771.48
  A 0.29 0.29 0.0 0 1 1481.74 771.77
  L 1378.27 771.77
  A 0.50 0.50 0.0 0 1 1377.77 771.27
  L 1377.77 438.76
  Q 1377.77 438.27 1377.31 438.46
  Q 1340.15 454.27 1300.26 460.84
  Q 1299.78 460.92 1299.76 461.41
  Q 1299.54 468.88 1299.80 473.75
  C 1302.74 529.06 1298.68 585.88 1283.10 639.23
  C 1263.26 707.19 1218.96 767.57 1144.00 776.75
  Q 1103.43 781.72 1063.43 769.04
  C 1024.11 756.57 991.46 731.60 968.64 697.12
  C 938.40 651.42 927.89 595.14 927.28 541.25
  Q 926.70 490.00 936.76 439.91
  A 0.19 0.19 0.0 0 0 936.50 439.70
  Q 900.59 454.51 862.25 460.84
  A 0.71 0.71 0.0 0 0 861.66 461.55
  Q 861.85 475.38 862.29 489.25
  Q 863.80 536.60 857.21 583.50
  C 845.72 665.18 807.64 758.05 715.50 775.22
  C 686.88 780.55 655.93 778.23 627.98 769.83
  C 586.15 757.28 551.38 730.31 528.15 693.33
  C 494.33 639.48 487.18 573.82 489.92 511.77
  C 494.88 399.44 541.64 255.78 677.01 245.75
  C 735.19 241.44 790.17 258.21 822.83 309.19
  C 841.56 338.41 851.60 374.75 856.23 409.17
  A 0.84 0.83 86.4 0 0 857.04 409.89
  Q 906.57 410.85 950.38 388.11
  A 2.51 2.45 86.6 0 0 951.59 386.71
  C 962.79 354.04 980.53 321.85 1004.72 296.85
  C 1035.06 265.50 1074.59 247.80 1118.51 245.41
  C 1145.13 243.96 1172.49 246.91 1197.46 256.67
  C 1261.05 281.52 1285.63 346.78 1294.18 408.91
  Q 1294.31 409.82 1295.23 409.84
  Q 1338.18 410.80 1377.32 393.41
  Q 1377.77 393.21 1377.77 392.72
  L 1377.77 56.92
  Q 1377.77 56.35 1378.33 56.28
  L 1481.53 41.84
  Q 1482.04 41.77 1482.04 42.27
  L 1482.04 419.25
  Q 1482.04 420.53 1483.12 419.82
  Q 1483.20 419.77 1483.41 419.27
  Q 1483.53 418.98 1483.75 418.78
  Q 1571.79 335.31 1659.86 251.86
  C 1661.89 249.93 1665.20 250.30 1667.75 250.30
  Q 1714.94 250.43 1761.71 250.35
  Q 1762.61 250.35 1761.91 250.91
  L 1589.23 390.51
  Q 1588.33 391.23 1589.48 391.21
  C 1643.39 389.86 1693.83 403.66 1720.65 454.59
  C 1740.54 492.34 1741.99 537.57 1740.21 579.25
  Q 1739.08 605.75 1737.89 632.25
  C 1736.73 658.00 1738.52 694.27 1772.52 698.42
  C 1819.03 704.10 1838.59 650.82 1848.82 616.32
  C 1849.67 613.42 1850.25 611.97 1849.66 608.89
  C 1837.61 546.29 1842.37 479.61 1858.85 418.26
  C 1882.89 328.73 1939.29 245.05 2042.50 244.91
  Q 2067.97 244.88 2092.00 250.51
  C 2160.21 266.51 2183.27 323.98 2180.68 388.04
  C 2177.70 462.14 2122.77 512.54 2057.90 538.39
  C 2025.07 551.48 1990.27 559.26 1955.19 563.08
  A 0.55 0.55 0.0 0 0 1954.70 563.67
  C 1959.39 619.22 1979.02 684.43 2043.00 695.91
  Q 2083.63 703.20 2123.00 692.49
  Q 2160.80 682.22 2184.78 651.20
  C 2185.39 650.41 2185.96 649.14 2186.72 648.22
  Q 2187.10 647.76 2187.18 648.35
  L 2188.00 654.37
  Z
  M 1960.13 445.13
  Q 1953.54 483.36 1953.61 522.02
  A 0.40 0.39 85.1 0 0 1954.07 522.41
  C 2034.23 510.16 2114.86 459.99 2114.16 369.01
  C 2113.93 338.53 2107.64 301.33 2070.12 296.72
  C 2029.08 291.68 2001.28 325.74 1985.81 358.82
  C 1972.97 386.28 1965.40 414.55 1960.13 445.13
  Z
  M 606.94 459.35
  Q 599.46 511.27 603.07 563.63
  C 606.98 620.34 627.45 695.06 697.75 698.70
  C 787.64 703.36 805.73 594.12 809.41 529.25
  C 810.62 508.01 811.42 486.06 809.62 464.84
  A 1.01 1.00 88.4 0 0 808.64 463.91
  C 790.55 463.49 769.51 458.70 759.81 442.16
  C 752.81 430.24 752.09 412.88 754.17 398.99
  C 757.43 377.29 773.07 367.14 794.17 367.32
  A 0.53 0.53 0.0 0 0 794.68 366.62
  C 788.08 347.37 777.83 328.37 761.76 315.95
  C 741.32 300.13 712.35 299.01 689.23 308.38
  C 635.39 330.19 614.33 408.08 606.94 459.35
  Z
  M 1049.83 432.62
  Q 1037.41 492.69 1040.36 554.01
  C 1043.39 616.96 1064.38 702.56 1146.13 698.63
  C 1232.06 694.51 1245.82 578.80 1248.07 516.75
  C 1248.69 499.52 1249.07 481.95 1247.62 464.75
  A 0.87 0.86 -1.1 0 0 1246.79 463.96
  C 1220.44 463.03 1196.48 454.88 1192.16 425.14
  Q 1190.02 410.44 1192.56 396.51
  C 1196.35 375.62 1212.64 367.79 1232.25 367.22
  A 0.44 0.44 0.0 0 0 1232.65 366.64
  C 1226.29 347.64 1215.75 328.37 1199.75 315.96
  C 1181.70 301.94 1156.74 299.48 1135.30 305.57
  C 1083.28 320.33 1059.54 385.67 1049.83 432.62
  Z"
/>
</svg>
