<?xml version="1.0" encoding="UTF-8" standalone="no"?>
<!DOCTYPE svg PUBLIC "-//W3C//DTD SVG 1.1//EN" "http://www.w3.org/Graphics/SVG/1.1/DTD/svg11.dtd">
<svg xmlns="http://www.w3.org/2000/svg" version="1.1" viewBox="0.00 0.00 1200.00 325.00">
<path fill="#d81f26" d="
  M 3.38 0.00
  L 48.12 0.00
  L 113.34 182.40
  Q 114.00 184.25 114.00 182.28
  Q 114.01 92.12 114.01 1.75
  Q 114.01 0.24 115.12 0.00
  L 164.00 0.00
  Q 165.00 0.29 165.00 2.00
  Q 165.01 152.75 165.00 303.45
  A 0.39 0.38 -4.4 0 1 164.67 303.83
  C 146.58 306.73 128.35 308.17 110.06 310.37
  Q 109.60 310.42 109.45 309.98
  L 52.19 142.07
  Q 51.57 140.27 51.57 142.18
  L 51.63 317.36
  A 0.41 0.39 -4.2 0 1 51.28 317.75
  L 0.00 324.48
  L 0.00 2.00
  L 0.27 0.86
  Q 0.39 0.35 0.92 0.29
  L 3.38 0.00
  Z"
/>
<path fill="#d81f26" d="
  M 214.13 0.00
  L 354.37 0.00
  L 354.37 50.35
  Q 354.37 50.74 353.99 50.74
  L 265.26 50.74
  Q 264.75 50.74 264.75 51.24
  L 264.75 118.49
  Q 264.75 118.98 265.24 118.97
  L 331.96 117.93
  A 0.54 0.54 0.0 0 1 332.51 118.47
  L 332.51 168.23
  Q 332.51 168.67 332.07 168.67
  C 309.71 168.81 289.55 168.64 265.14 169.62
  Q 264.75 169.64 264.75 170.02
  L 264.75 244.74
  A 0.41 0.41 0.0 0 0 265.19 245.15
  C 294.78 243.01 324.37 240.93 354.02 239.74
  A 0.35 0.34 -0.8 0 1 354.38 240.08
  L 354.38 288.15
  A 0.43 0.43 0.0 0 1 353.98 288.58
  L 214.40 299.61
  A 0.26 0.26 0.0 0 1 214.12 299.35
  L 214.13 0.00
  Z"
/>
<path fill="#d81f26" d="
  M 387.24 0.00
  L 542.79 0.00
  L 542.77 50.22
  Q 542.77 50.74 542.25 50.74
  L 490.76 50.74
  Q 490.25 50.74 490.25 51.24
  L 490.25 283.70
  A 0.31 0.30 -90.0 0 1 489.95 284.01
  L 440.07 284.53
  Q 439.60 284.53 439.60 284.07
  L 439.60 51.17
  Q 439.60 50.74 439.17 50.74
  L 387.53 50.74
  Q 387.06 50.74 387.06 50.27
  L 387.24 0.00
  Z"
/>
<path fill="#d81f26" d="
  M 575.49 0.00
  L 716.87 0.00
  L 716.98 50.50
  A 0.24 0.24 0.0 0 1 716.74 50.74
  L 625.72 50.74
  A 0.55 0.54 -0.0 0 0 625.17 51.28
  L 625.17 115.26
  A 0.19 0.19 0.0 0 0 625.36 115.45
  L 694.17 115.44
  A 0.35 0.34 90.0 0 1 694.51 115.79
  L 694.51 165.77
  A 0.36 0.36 0.0 0 1 694.15 166.13
  L 625.53 166.13
  A 0.36 0.35 -0.0 0 0 625.17 166.48
  L 625.17 281.04
  Q 625.17 281.25 624.96 281.25
  L 575.76 281.25
  A 0.26 0.26 0.0 0 1 575.50 280.99
  L 575.49 0.00
  Z"
/>
<path fill="#d81f26" d="
  M 748.75 0.00
  L 799.32 0.00
  L 799.32 236.62
  A 0.20 0.19 90.0 0 0 799.51 236.82
  Q 842.26 238.37 884.93 241.36
  Q 885.50 241.40 885.50 241.98
  L 885.50 290.99
  Q 885.50 291.46 885.03 291.43
  Q 817.20 286.65 749.24 284.65
  Q 748.75 284.63 748.75 284.14
  L 748.75 0.00
  Z"
/>
<path fill="#d81f26" d="
  M 928.26 0.00
  L 977.98 0.00
  L 977.99 298.05
  A 0.35 0.34 -87.7 0 1 977.62 298.40
  L 928.63 294.71
  A 0.40 0.40 0.0 0 1 928.26 294.31
  L 928.26 0.00
  Z"
/>
<path fill="#d81f26" d="
  M 1021.40 0.00
  L 1075.84 0.00
  L 1108.86 84.72
  Q 1109.10 85.34 1109.36 84.72
  L 1144.59 0.00
  L 1200.00 0.00
  L 1200.00 0.50
  Q 1199.95 0.50 1199.89 0.50
  Q 1199.79 0.49 1199.75 0.59
  Q 1167.78 77.24 1135.89 153.99
  A 1.28 1.24 47.2 0 0 1135.87 154.91
  L 1199.73 324.04
  Q 1200.05 324.88 1199.17 324.73
  L 1143.57 315.66
  Q 1143.04 315.58 1142.84 315.07
  L 1106.95 222.58
  Q 1106.57 221.60 1106.15 222.57
  L 1069.68 307.48
  A 0.55 0.55 0.0 0 1 1069.09 307.80
  C 1051.30 304.88 1033.23 303.43 1015.35 301.26
  A 0.21 0.21 0.0 0 1 1015.18 300.97
  L 1080.15 152.88
  A 0.96 0.96 0.0 0 0 1080.17 152.15
  L 1021.40 0.00
  Z"
/>
</svg>
