<?xml version="1.0" encoding="UTF-8" standalone="no"?>
<!DOCTYPE svg PUBLIC "-//W3C//DTD SVG 1.1//EN" "http://www.w3.org/Graphics/SVG/1.1/DTD/svg11.dtd">
<svg xmlns="http://www.w3.org/2000/svg" version="1.1" viewBox="0.00 0.00 2833.00 740.00">
<path fill="#e60012" d="
  M 359.12 0.00
  L 2474.00 0.00
  Q 2482.82 0.50 2491.61 1.04
  C 2589.01 7.01 2680.61 49.51 2744.00 123.60
  C 2795.03 183.24 2824.73 257.33 2831.38 335.51
  Q 2832.46 348.28 2833.00 361.12
  L 2833.00 380.50
  Q 2832.51 389.88 2831.87 399.24
  C 2820.72 564.31 2707.87 699.45 2544.24 731.99
  Q 2509.01 739.00 2472.13 740.00
  L 361.00 740.00
  Q 353.12 739.57 345.26 739.14
  C 231.60 732.88 127.83 678.78 63.69 583.84
  C 28.20 531.32 7.19 470.28 1.66 407.37
  Q 0.68 396.24 0.00 380.62
  L 0.00 360.75
  Q 0.47 352.24 1.00 343.76
  C 7.07 247.70 48.84 155.10 121.19 90.83
  C 187.66 31.79 270.68 2.68 359.12 0.00
  Z
  M 152.18 185.10
  C 97.30 249.31 78.40 337.44 91.15 419.76
  C 107.06 522.38 175.60 606.12 276.24 636.03
  C 307.16 645.22 338.94 649.28 371.50 649.28
  Q 1415.12 649.30 2458.75 649.29
  Q 2472.31 649.29 2478.75 649.01
  C 2532.40 646.66 2584.85 631.94 2629.39 601.84
  C 2685.35 564.02 2722.74 506.10 2737.59 440.86
  C 2769.74 299.59 2704.55 152.19 2561.73 106.34
  Q 2513.98 91.01 2465.00 91.01
  Q 1421.62 90.98 378.25 91.00
  Q 364.47 91.00 358.26 91.24
  C 279.09 94.26 204.40 123.99 152.18 185.10
  Z"
/>
<path fill="#e60012" d="
  M 382.73 301.06
  L 382.73 543.04
  Q 382.73 543.55 382.21 543.55
  L 281.25 543.54
  A 0.26 0.25 -90.0 0 1 281.00 543.28
  L 281.00 195.50
  A 0.26 0.25 -90.0 0 1 281.25 195.24
  L 383.01 195.24
  Q 383.33 195.24 383.49 195.51
  L 524.26 436.99
  Q 525.00 438.26 525.00 436.78
  L 524.96 195.54
  Q 524.96 195.30 525.21 195.30
  L 626.02 195.30
  Q 626.49 195.30 626.49 195.77
  L 626.49 543.03
  Q 626.49 543.54 625.97 543.54
  L 525.27 543.54
  A 0.38 0.38 0.0 0 1 524.94 543.35
  L 382.98 300.99
  A 0.14 0.13 -60.3 0 0 382.73 301.06
  Z"
/>
<rect fill="#e60012" x="682.79" y="195.24" width="99.00" height="71.14" rx="0.43"/>
<path fill="#e60012" d="
  M 2140.43 322.98
  L 2140.45 195.99
  A 0.69 0.69 0.0 0 1 2141.14 195.30
  L 2237.16 195.30
  Q 2237.89 195.30 2237.89 196.03
  L 2237.88 542.50
  Q 2237.88 543.62 2236.75 543.62
  L 2140.69 543.64
  Q 2140.24 543.64 2140.24 543.19
  L 2140.25 530.98
  A 0.42 0.41 73.3 0 0 2139.61 530.63
  C 2083.33 568.41 2009.79 549.51 1976.06 491.69
  Q 1957.16 459.28 1959.02 420.75
  C 1962.07 357.74 2015.53 297.72 2082.01 302.67
  C 2102.56 304.20 2122.79 311.89 2140.02 323.20
  Q 2140.43 323.47 2140.43 322.98
  Z
  M 2067.09 364.11
  Q 2063.79 373.16 2063.73 381.75
  Q 2063.59 404.07 2063.73 471.25
  C 2063.77 494.00 2078.66 513.12 2102.51 512.87
  C 2126.70 512.61 2140.82 493.63 2141.01 470.75
  Q 2141.16 451.52 2141.19 387.25
  C 2141.19 369.58 2136.11 350.68 2118.07 343.39
  C 2098.03 335.29 2074.73 343.18 2067.09 364.11
  Z"
/>
<path fill="#e60012" d="
  M 2608.9207 214.2383
  A 53.89 53.70 -43.7 0 1 2607.0604 290.2933
  A 53.89 53.70 -43.7 0 1 2530.9993 288.7017
  A 53.89 53.70 -43.7 0 1 2532.8596 212.6467
  A 53.89 53.70 -43.7 0 1 2608.9207 214.2383
  Z
  M 2614.04 251.72
  A 43.54 43.54 0.0 0 0 2570.50 208.18
  A 43.54 43.54 0.0 0 0 2526.96 251.72
  A 43.54 43.54 0.0 0 0 2570.50 295.26
  A 43.54 43.54 0.0 0 0 2614.04 251.72
  Z"
/>
<path fill="#e60012" d="
  M 2565.94 256.79
  L 2565.95 280.05
  Q 2565.95 280.55 2565.45 280.55
  L 2552.78 280.55
  Q 2552.26 280.55 2552.26 280.03
  L 2552.26 221.76
  Q 2552.26 221.23 2552.79 221.23
  Q 2565.31 221.16 2578.12 221.50
  C 2586.17 221.72 2594.61 224.37 2597.24 232.76
  C 2600.04 241.71 2595.96 251.21 2586.70 253.82
  A 0.67 0.66 69.7 0 0 2586.28 254.74
  L 2598.11 279.90
  Q 2598.42 280.55 2597.70 280.55
  L 2583.98 280.55
  Q 2583.32 280.55 2583.06 279.95
  L 2572.84 256.67
  Q 2572.67 256.28 2572.25 256.28
  L 2566.46 256.28
  Q 2565.94 256.28 2565.94 256.79
  Z
  M 2565.95 230.65
  L 2565.93 247.33
  A 0.25 0.25 0.0 0 0 2566.18 247.58
  L 2574.86 247.60
  A 9.29 7.63 0.1 0 0 2584.16 239.99
  L 2584.16 238.07
  A 9.29 7.63 0.1 0 0 2574.88 230.42
  L 2566.21 230.40
  A 0.25 0.25 0.0 0 0 2565.95 230.65
  Z"
/>
<path fill="#e60012" d="
  M 1178.70 277.50
  L 1178.71 231.65
  A 0.51 0.51 0.0 0 1 1179.22 231.14
  L 1277.04 231.13
  A 0.51 0.51 0.0 0 1 1277.55 231.64
  L 1277.53 277.48
  A 0.51 0.51 0.0 0 0 1278.04 277.99
  L 1330.61 278.00
  A 0.51 0.51 0.0 0 1 1331.12 278.51
  L 1331.04 311.89
  A 0.51 0.51 0.0 0 1 1330.53 312.40
  L 1278.14 312.40
  A 0.51 0.51 0.0 0 0 1277.63 312.91
  L 1277.63 543.11
  A 0.51 0.51 0.0 0 1 1277.12 543.62
  L 1179.19 543.63
  A 0.51 0.51 0.0 0 1 1178.68 543.12
  L 1178.68 312.89
  A 0.51 0.51 0.0 0 0 1178.17 312.38
  L 1125.52 312.40
  A 0.51 0.51 0.0 0 1 1125.01 311.89
  L 1124.93 278.52
  A 0.51 0.51 0.0 0 1 1125.44 278.01
  L 1178.19 278.01
  A 0.51 0.51 0.0 0 0 1178.70 277.50
  Z"
/>
<path fill="#e60012" d="
  M 2558.84 426.17
  A 144.38 130.05 0.0 0 1 2414.46 556.22
  A 144.38 130.05 0.0 0 1 2270.08 426.17
  A 144.38 130.05 0.0 0 1 2414.46 296.12
  A 144.38 130.05 0.0 0 1 2558.84 426.17
  Z
  M 2431.04 522.91
  C 2446.58 514.93 2453.98 495.58 2454.07 478.75
  Q 2454.21 454.04 2453.73 373.51
  Q 2453.63 358.33 2447.70 346.55
  C 2437.13 325.60 2411.41 317.88 2391.69 331.85
  C 2382.16 338.60 2376.41 350.51 2374.33 361.82
  Q 2373.29 367.46 2373.25 381.76
  Q 2373.11 426.18 2373.23 470.61
  C 2373.27 487.54 2375.30 506.43 2389.31 518.18
  C 2401.05 528.04 2417.45 529.88 2431.04 522.91
  Z"
/>
<path fill="#e60012" d="
  M 1423.04 429.24
  Q 1422.82 471.14 1423.09 481.74
  C 1423.53 498.85 1430.93 516.44 1447.11 524.39
  C 1462.39 531.89 1481.13 528.47 1492.60 516.02
  C 1506.08 501.38 1505.23 481.60 1505.22 463.06
  Q 1505.22 462.54 1505.74 462.54
  L 1602.98 462.52
  A 0.50 0.49 -79.7 0 1 1603.44 463.19
  C 1592.35 492.71 1572.45 517.91 1545.87 534.76
  Q 1505.54 560.32 1455.49 557.27
  Q 1432.67 555.88 1413.99 549.85
  C 1359.27 532.17 1316.63 483.96 1318.13 424.23
  C 1318.77 398.64 1328.21 373.49 1343.94 353.45
  C 1375.11 313.75 1425.23 294.32 1475.25 297.97
  C 1544.53 303.04 1608.23 354.76 1609.32 428.27
  A 0.55 0.55 0.0 0 1 1608.77 428.82
  L 1423.54 428.74
  Q 1423.04 428.74 1423.04 429.24
  Z
  M 1505.87 388.37
  C 1506.74 373.03 1504.34 351.73 1494.02 339.69
  C 1474.90 317.38 1437.80 323.44 1427.88 351.85
  Q 1420.99 371.59 1423.02 392.10
  Q 1423.09 392.74 1423.73 392.74
  L 1505.05 392.74
  Q 1505.70 392.74 1505.71 392.10
  Q 1505.73 390.87 1505.87 388.37
  Z"
/>
<path fill="#e60012" d="
  M 934.87 335.73
  Q 960.21 310.41 994.98 303.44
  C 1063.44 289.71 1125.91 344.33 1124.49 413.42
  Q 1124.28 423.50 1124.28 423.59
  Q 1124.30 483.44 1124.28 543.24
  Q 1124.28 543.54 1123.98 543.54
  L 1026.51 543.54
  A 0.43 0.42 90.0 0 1 1026.09 543.11
  Q 1026.09 467.39 1026.10 391.50
  C 1026.10 372.57 1011.31 355.76 994.00 350.53
  C 968.47 342.81 940.59 359.12 935.06 385.26
  Q 934.10 389.79 934.11 399.82
  Q 934.15 471.56 934.25 543.23
  A 0.29 0.29 0.0 0 1 933.96 543.52
  L 836.73 543.52
  Q 836.20 543.52 836.20 542.98
  L 836.20 312.21
  A 0.34 0.34 0.0 0 1 836.54 311.87
  L 934.01 311.87
  A 0.32 0.32 0.0 0 1 934.33 312.19
  L 934.29 335.49
  Q 934.29 336.31 934.87 335.73
  Z"
/>
<path fill="#e60012" d="
  M 1737.74 335.74
  Q 1739.40 334.41 1741.08 332.84
  Q 1769.76 305.99 1808.25 301.83
  C 1844.82 297.87 1881.66 314.49 1904.12 342.88
  Q 1922.65 366.29 1926.60 396.05
  Q 1927.52 402.92 1927.48 415.99
  Q 1927.30 478.27 1927.43 542.63
  Q 1927.44 543.54 1926.52 543.54
  L 1829.52 543.54
  A 0.29 0.29 0.0 0 1 1829.23 543.25
  Q 1829.25 473.91 1829.29 404.50
  Q 1829.30 393.50 1829.12 390.00
  C 1828.34 375.08 1818.76 361.46 1806.41 354.54
  C 1779.80 339.64 1745.90 354.48 1738.53 383.73
  Q 1737.21 388.97 1737.23 398.38
  Q 1737.34 470.69 1737.27 542.98
  Q 1737.27 543.52 1736.74 543.52
  L 1639.76 543.52
  Q 1639.26 543.52 1639.26 543.01
  L 1639.26 312.23
  A 0.36 0.36 0.0 0 1 1639.62 311.87
  L 1736.71 311.87
  A 0.59 0.58 90.0 0 1 1737.29 312.46
  L 1737.25 335.51
  A 0.30 0.30 0.0 0 0 1737.74 335.74
  Z"
/>
<rect fill="#e60012" x="683.01" y="312.01" width="98.78" height="231.62" rx="0.70"/>
</svg>
