<?xml version="1.0" encoding="UTF-8" standalone="no"?>
<!DOCTYPE svg PUBLIC "-//W3C//DTD SVG 1.1//EN" "http://www.w3.org/Graphics/SVG/1.1/DTD/svg11.dtd">
<svg xmlns="http://www.w3.org/2000/svg" version="1.1" viewBox="0.00 0.00 300.00 187.00">
<path fill="#0064ff" d="
  M 150.57 50.05
  C 145.88 51.92 143.17 57.13 140.42 61.01
  C 138.89 63.16 136.86 64.02 135.30 66.00
  Q 124.75 79.43 114.16 92.83
  C 112.92 94.40 111.20 94.30 110.00 95.84
  Q 103.23 104.52 96.43 113.17
  C 94.76 115.28 93.28 116.48 91.06 117.72
  A 0.74 0.73 -31.9 0 1 90.09 117.50
  C 75.68 97.08 71.96 71.85 80.58 48.43
  C 98.87 -1.28 162.47 -15.72 200.60 20.40
  C 227.68 46.05 231.27 87.20 209.61 117.51
  Q 209.31 117.94 208.84 117.70
  Q 205.82 116.19 203.60 113.40
  Q 194.19 101.59 184.13 90.34
  C 181.52 87.43 179.10 85.56 175.67 84.34
  A 2.27 2.23 -4.8 0 1 174.48 83.35
  Q 167.56 71.17 160.53 58.84
  C 158.13 54.62 155.51 52.26 151.48 50.10
  Q 151.04 49.87 150.57 50.05
  Z
  M 151.61 12.52
  A 0.34 0.34 0.0 0 1 151.27 12.27
  L 150.18 8.47
  A 0.34 0.34 0.0 0 0 149.52 8.47
  L 148.43 12.27
  A 0.34 0.34 0.0 0 1 148.09 12.52
  L 144.14 12.38
  A 0.34 0.34 0.0 0 0 143.94 13.00
  L 147.21 15.22
  A 0.34 0.34 0.0 0 1 147.34 15.61
  L 146.00 19.33
  A 0.34 0.34 0.0 0 0 146.53 19.71
  L 149.64 17.28
  A 0.34 0.34 0.0 0 1 150.06 17.28
  L 153.17 19.71
  A 0.34 0.34 0.0 0 0 153.70 19.33
  L 152.36 15.61
  A 0.34 0.34 0.0 0 1 152.49 15.22
  L 155.76 13.00
  A 0.34 0.34 0.0 0 0 155.56 12.38
  L 151.61 12.52
  Z
  M 170.55 16.01
  A 0.35 0.35 0.0 0 1 170.30 15.67
  L 170.40 11.82
  A 0.35 0.35 0.0 0 0 169.76 11.62
  L 167.59 14.79
  A 0.35 0.35 0.0 0 1 167.18 14.93
  L 163.56 13.64
  A 0.35 0.35 0.0 0 0 163.16 14.19
  L 165.52 17.23
  A 0.35 0.35 0.0 0 1 165.52 17.66
  L 163.18 20.71
  A 0.35 0.35 0.0 0 0 163.57 21.25
  L 167.19 19.96
  A 0.35 0.35 0.0 0 1 167.60 20.09
  L 169.78 23.26
  A 0.35 0.35 0.0 0 0 170.42 23.05
  L 170.30 19.20
  A 0.35 0.35 0.0 0 1 170.55 18.86
  L 174.24 17.77
  A 0.35 0.35 0.0 0 0 174.24 17.09
  L 170.55 16.01
  Z
  M 132.55 14.94
  A 0.35 0.35 0.0 0 1 132.14 14.81
  L 129.96 11.59
  A 0.35 0.35 0.0 0 0 129.32 11.79
  L 129.43 15.69
  A 0.35 0.35 0.0 0 1 129.18 16.03
  L 125.44 17.11
  A 0.35 0.35 0.0 0 0 125.44 17.79
  L 129.17 18.88
  A 0.35 0.35 0.0 0 1 129.43 19.23
  L 129.30 23.12
  A 0.35 0.35 0.0 0 0 129.94 23.33
  L 132.13 20.11
  A 0.35 0.35 0.0 0 1 132.54 19.98
  L 136.20 21.30
  A 0.35 0.35 0.0 0 0 136.60 20.76
  L 134.22 17.68
  A 0.35 0.35 0.0 0 1 134.22 17.25
  L 136.61 14.18
  A 0.35 0.35 0.0 0 0 136.21 13.63
  L 132.55 14.94
  Z
  M 117.50 25.27
  A 0.34 0.34 0.0 0 1 117.37 24.87
  L 118.73 21.12
  A 0.34 0.34 0.0 0 0 118.20 20.74
  L 115.07 23.21
  A 0.34 0.34 0.0 0 1 114.65 23.21
  L 111.50 20.75
  A 0.34 0.34 0.0 0 0 110.97 21.13
  L 112.35 24.88
  A 0.34 0.34 0.0 0 1 112.22 25.28
  L 108.91 27.51
  A 0.34 0.34 0.0 0 0 109.11 28.13
  L 113.10 27.98
  A 0.34 0.34 0.0 0 1 113.44 28.22
  L 114.54 32.06
  A 0.34 0.34 0.0 0 0 115.20 32.06
  L 116.28 28.22
  A 0.34 0.34 0.0 0 1 116.62 27.97
  L 120.61 28.11
  A 0.34 0.34 0.0 0 0 120.81 27.49
  L 117.50 25.27
  Z
  M 187.49 25.28
  A 0.35 0.35 0.0 0 1 187.36 24.88
  L 188.68 21.21
  A 0.35 0.35 0.0 0 0 188.14 20.81
  L 185.05 23.20
  A 0.35 0.35 0.0 0 1 184.63 23.20
  L 181.54 20.81
  A 0.35 0.35 0.0 0 0 181.00 21.21
  L 182.32 24.88
  A 0.35 0.35 0.0 0 1 182.19 25.28
  L 178.96 27.48
  A 0.35 0.35 0.0 0 0 179.17 28.12
  L 183.07 27.99
  A 0.35 0.35 0.0 0 1 183.42 28.24
  L 184.50 31.99
  A 0.35 0.35 0.0 0 0 185.18 31.99
  L 186.26 28.24
  A 0.35 0.35 0.0 0 1 186.61 27.99
  L 190.51 28.12
  A 0.35 0.35 0.0 0 0 190.72 27.48
  L 187.49 25.28
  Z
  M 199.04 36.57
  A 0.34 0.34 0.0 0 1 198.64 36.44
  L 196.40 33.07
  A 0.34 0.34 0.0 0 0 195.78 33.27
  L 195.95 37.31
  A 0.34 0.34 0.0 0 1 195.70 37.66
  L 191.80 38.74
  A 0.34 0.34 0.0 0 0 191.80 39.40
  L 195.70 40.48
  A 0.34 0.34 0.0 0 1 195.95 40.83
  L 195.78 44.87
  A 0.34 0.34 0.0 0 0 196.40 45.07
  L 198.64 41.70
  A 0.34 0.34 0.0 0 1 199.04 41.57
  L 202.84 42.98
  A 0.34 0.34 0.0 0 0 203.22 42.45
  L 200.71 39.28
  A 0.34 0.34 0.0 0 1 200.71 38.86
  L 203.22 35.69
  A 0.34 0.34 0.0 0 0 202.84 35.16
  L 199.04 36.57
  Z
  M 104.04 37.66
  A 0.35 0.35 0.0 0 1 103.79 37.31
  L 103.89 33.45
  A 0.35 0.35 0.0 0 0 103.25 33.24
  L 101.07 36.43
  A 0.35 0.35 0.0 0 1 100.66 36.57
  L 97.01 35.28
  A 0.35 0.35 0.0 0 0 96.62 35.82
  L 98.99 38.88
  A 0.35 0.35 0.0 0 1 98.99 39.31
  L 96.63 42.38
  A 0.35 0.35 0.0 0 0 97.03 42.92
  L 100.67 41.62
  A 0.35 0.35 0.0 0 1 101.08 41.75
  L 103.27 44.94
  A 0.35 0.35 0.0 0 0 103.91 44.73
  L 103.79 40.86
  A 0.35 0.35 0.0 0 1 104.04 40.51
  L 107.75 39.42
  A 0.35 0.35 0.0 0 0 107.75 38.74
  L 104.04 37.66
  Z
  M 95.04 53.61
  A 0.35 0.35 0.0 0 1 94.69 53.36
  L 93.60 49.60
  A 0.35 0.35 0.0 0 0 92.92 49.60
  L 91.84 53.37
  A 0.35 0.35 0.0 0 1 91.50 53.62
  L 87.57 53.50
  A 0.35 0.35 0.0 0 0 87.37 54.14
  L 90.62 56.33
  A 0.35 0.35 0.0 0 1 90.75 56.74
  L 89.42 60.43
  A 0.35 0.35 0.0 0 0 89.97 60.82
  L 93.06 58.41
  A 0.35 0.35 0.0 0 1 93.49 58.41
  L 96.59 60.81
  A 0.35 0.35 0.0 0 0 97.13 60.42
  L 95.79 56.73
  A 0.35 0.35 0.0 0 1 95.92 56.32
  L 99.17 54.12
  A 0.35 0.35 0.0 0 0 98.96 53.48
  L 95.04 53.61
  Z
  M 208.22 53.65
  A 0.34 0.34 0.0 0 1 207.88 53.41
  L 206.78 49.58
  A 0.34 0.34 0.0 0 0 206.12 49.58
  L 205.04 53.41
  A 0.34 0.34 0.0 0 1 204.70 53.66
  L 200.72 53.52
  A 0.34 0.34 0.0 0 0 200.52 54.15
  L 203.82 56.36
  A 0.34 0.34 0.0 0 1 203.95 56.76
  L 202.60 60.50
  A 0.34 0.34 0.0 0 0 203.13 60.88
  L 206.26 58.42
  A 0.34 0.34 0.0 0 1 206.67 58.42
  L 209.81 60.87
  A 0.34 0.34 0.0 0 0 210.34 60.49
  L 208.97 56.75
  A 0.34 0.34 0.0 0 1 209.10 56.35
  L 212.39 54.12
  A 0.34 0.34 0.0 0 0 212.19 53.50
  L 208.22 53.65
  Z
  M 91.38 71.52
  A 0.35 0.35 0.0 0 1 90.98 71.39
  L 88.78 68.23
  A 0.35 0.35 0.0 0 0 88.15 68.44
  L 88.21 72.28
  A 0.35 0.35 0.0 0 1 87.97 72.62
  L 84.28 73.73
  A 0.35 0.35 0.0 0 0 84.28 74.40
  L 87.96 75.53
  A 0.35 0.35 0.0 0 1 88.21 75.87
  L 88.13 79.71
  A 0.35 0.35 0.0 0 0 88.76 79.92
  L 90.97 76.77
  A 0.35 0.35 0.0 0 1 91.37 76.64
  L 95.00 77.91
  A 0.35 0.35 0.0 0 0 95.39 77.37
  L 93.08 74.30
  A 0.35 0.35 0.0 0 1 93.08 73.87
  L 95.41 70.81
  A 0.35 0.35 0.0 0 0 95.01 70.27
  L 91.38 71.52
  Z
  M 211.68 72.64
  A 0.35 0.35 0.0 0 1 211.43 72.29
  L 211.56 68.35
  A 0.35 0.35 0.0 0 0 210.92 68.15
  L 208.72 71.42
  A 0.35 0.35 0.0 0 1 208.31 71.55
  L 204.60 70.21
  A 0.35 0.35 0.0 0 0 204.21 70.76
  L 206.64 73.86
  A 0.35 0.35 0.0 0 1 206.64 74.29
  L 204.22 77.40
  A 0.35 0.35 0.0 0 0 204.62 77.95
  L 208.32 76.59
  A 0.35 0.35 0.0 0 1 208.73 76.72
  L 210.94 79.99
  A 0.35 0.35 0.0 0 0 211.58 79.78
  L 211.44 75.84
  A 0.35 0.35 0.0 0 1 211.69 75.49
  L 215.48 74.40
  A 0.35 0.35 0.0 0 0 215.48 73.72
  L 211.68 72.64
  Z
  M 209.11 91.78
  A 0.35 0.35 0.0 0 1 208.98 91.37
  L 210.30 87.73
  A 0.35 0.35 0.0 0 0 209.76 87.33
  L 206.69 89.70
  A 0.35 0.35 0.0 0 1 206.26 89.70
  L 203.20 87.32
  A 0.35 0.35 0.0 0 0 202.66 87.71
  L 203.96 91.37
  A 0.35 0.35 0.0 0 1 203.83 91.77
  L 200.62 93.95
  A 0.35 0.35 0.0 0 0 200.82 94.59
  L 204.70 94.47
  A 0.35 0.35 0.0 0 1 205.05 94.72
  L 206.12 98.45
  A 0.35 0.35 0.0 0 0 206.80 98.45
  L 207.88 94.73
  A 0.35 0.35 0.0 0 1 208.23 94.48
  L 212.11 94.61
  A 0.35 0.35 0.0 0 0 212.32 93.97
  L 209.11 91.78
  Z
  M 95.90 91.79
  A 0.35 0.35 0.0 0 1 95.77 91.38
  L 97.09 87.72
  A 0.35 0.35 0.0 0 0 96.55 87.32
  L 93.47 89.70
  A 0.35 0.35 0.0 0 1 93.04 89.70
  L 89.97 87.31
  A 0.35 0.35 0.0 0 0 89.42 87.71
  L 90.73 91.37
  A 0.35 0.35 0.0 0 1 90.60 91.78
  L 87.38 93.96
  A 0.35 0.35 0.0 0 0 87.58 94.60
  L 91.48 94.49
  A 0.35 0.35 0.0 0 1 91.82 94.74
  L 92.90 98.48
  A 0.35 0.35 0.0 0 0 93.58 98.48
  L 94.67 94.75
  A 0.35 0.35 0.0 0 1 95.02 94.49
  L 98.91 94.62
  A 0.35 0.35 0.0 0 0 99.12 93.98
  L 95.90 91.79
  Z"
/>
<path fill="#0064ff" d="
  M 174.29 90.34
  Q 174.44 89.65 174.36 88.98
  A 0.47 0.47 0.0 0 1 175.01 88.48
  Q 178.01 89.78 180.36 92.39
  Q 191.06 104.31 201.53 117.39
  Q 201.94 117.91 201.28 117.89
  L 185.56 117.58
  Q 185.11 117.57 184.89 117.17
  Q 180.57 109.26 174.71 102.57
  Q 174.18 101.98 173.51 102.16
  A 0.65 0.64 72.5 0 0 173.07 103.01
  C 174.16 105.89 177.73 113.50 176.98 116.28
  A 0.76 0.75 -77.7 0 1 176.13 116.83
  L 161.65 114.45
  A 0.34 0.33 88.8 0 0 161.27 114.85
  L 161.77 117.22
  Q 161.90 117.82 161.28 117.82
  L 149.23 117.77
  A 0.66 0.65 -4.0 0 1 148.58 117.21
  C 147.72 110.88 151.05 103.02 153.85 97.30
  A 0.41 0.41 0.0 0 0 153.64 96.74
  C 148.26 94.51 143.23 94.33 137.51 94.59
  A 0.27 0.26 10.3 0 1 137.25 94.22
  L 144.94 76.50
  Q 145.17 75.98 144.89 75.49
  Q 144.49 74.78 143.73 74.47
  Q 143.15 74.23 143.40 73.66
  L 151.30 55.50
  A 0.46 0.46 0.0 0 1 151.99 55.30
  C 153.85 56.57 155.17 57.82 156.35 59.88
  Q 165.06 75.14 173.72 90.43
  Q 174.12 91.13 174.29 90.34
  Z"
/>
<path fill="#0064ff" d="
  M 123.48 101.91
  L 123.35 101.67
  A 0.61 0.59 47.8 0 1 123.37 101.09
  C 127.53 94.39 131.41 86.19 137.43 81.26
  Q 139.12 79.88 138.12 81.82
  Q 135.70 86.54 133.20 92.00
  Q 131.93 94.75 133.69 96.48
  Q 134.06 96.84 133.85 97.32
  L 131.90 101.84
  Q 131.69 102.34 131.17 102.48
  C 126.63 103.74 122.90 108.83 120.62 112.67
  Q 120.00 113.72 119.24 112.76
  L 118.94 112.37
  A 1.42 1.41 41.7 0 1 118.84 110.77
  L 123.44 103.08
  Q 123.78 102.51 123.48 101.91
  Z"
/>
<path fill="#0064ff" d="
  M 18.86 187.00
  L 12.54 187.00
  C 6.31 185.29 1.56 184.33 0.00 177.12
  L 0.00 173.53
  Q 1.55 169.70 4.66 171.31
  A 2.27 2.27 0.0 0 1 5.81 173.91
  C 3.65 181.98 10.20 186.14 17.74 185.14
  C 27.11 183.90 32.42 177.05 36.33 169.15
  Q 41.17 159.34 45.64 149.34
  C 48.70 142.49 53.29 134.65 59.72 130.47
  Q 61.92 129.04 60.53 131.27
  Q 54.30 141.26 51.83 152.82
  Q 51.71 153.39 52.29 153.29
  Q 62.24 151.47 66.47 143.72
  C 71.72 134.10 68.03 122.81 56.44 120.62
  C 41.37 117.76 21.90 123.72 16.89 139.92
  C 15.50 144.42 15.55 150.99 18.62 154.75
  C 24.18 161.56 34.75 156.86 34.25 148.08
  Q 34.13 145.86 36.35 145.84
  L 36.99 145.83
  A 1.80 1.79 89.0 0 1 38.80 147.59
  C 39.05 158.94 25.30 161.16 17.40 157.36
  C 9.21 153.42 9.43 142.33 13.37 135.12
  C 22.01 119.30 45.34 115.50 61.27 119.22
  C 70.56 121.39 78.28 128.22 76.46 138.51
  C 74.60 149.00 60.76 154.34 51.29 155.52
  Q 50.79 155.58 50.66 156.07
  C 46.51 171.74 35.78 185.02 18.86 187.00
  Z"
/>
<path fill="#0064ff" d="
  M 300.00 148.97
  Q 300.00 149.07 300.00 149.18
  L 297.73 154.28
  A 0.82 0.81 -77.5 0 1 296.99 154.76
  L 282.76 154.75
  A 0.78 0.78 0.0 0 0 282.04 155.23
  L 276.28 168.55
  Q 276.18 168.77 275.94 168.77
  L 269.23 168.76
  Q 268.92 168.76 269.05 168.48
  L 274.82 155.24
  Q 275.04 154.74 274.49 154.74
  L 259.91 154.78
  Q 259.71 154.78 259.79 154.60
  L 262.25 149.04
  Q 262.32 148.88 262.49 148.88
  L 276.93 148.87
  A 0.97 0.97 0.0 0 0 277.82 148.28
  L 283.53 135.09
  Q 283.65 134.81 283.96 134.81
  L 290.64 134.82
  A 0.16 0.16 0.0 0 1 290.79 135.04
  L 284.93 148.50
  A 0.29 0.29 0.0 0 0 285.20 148.91
  L 300.00 148.97
  Z"
/>
<path fill="#0064ff" d="
  M 124.53 172.23
  Q 125.07 171.13 124.15 171.94
  Q 120.92 174.78 118.17 175.22
  C 115.31 175.68 113.60 173.49 114.09 170.74
  Q 114.23 169.96 113.64 170.50
  Q 112.65 171.41 111.16 172.89
  C 107.31 176.72 99.47 176.37 100.76 168.99
  Q 101.83 162.86 105.45 158.45
  A 0.34 0.34 0.0 0 0 105.01 157.94
  Q 103.01 159.14 100.65 158.70
  A 1.71 1.70 16.5 0 1 99.38 156.38
  L 100.30 154.14
  Q 100.51 153.63 99.97 153.53
  Q 99.61 153.46 99.29 153.80
  Q 96.77 156.46 95.08 160.30
  Q 91.95 167.40 88.87 174.43
  A 0.73 0.73 0.0 0 1 88.20 174.87
  L 82.73 174.91
  A 0.38 0.38 0.0 0 1 82.39 174.36
  L 83.60 171.83
  Q 84.10 170.79 83.22 171.54
  C 80.91 173.53 75.79 177.34 73.52 174.48
  Q 72.30 172.94 72.50 171.98
  Q 72.96 169.75 71.59 171.57
  C 68.70 175.41 59.98 177.97 59.50 170.76
  Q 59.29 167.68 61.01 163.83
  C 65.61 153.54 74.86 146.10 86.83 149.08
  A 1.00 1.00 0.0 0 1 87.50 150.45
  Q 83.59 159.25 79.63 168.56
  Q 79.18 169.62 79.17 169.70
  Q 78.76 173.05 81.34 170.88
  C 87.11 166.06 90.52 156.04 93.47 149.14
  A 0.59 0.58 46.0 0 1 94.01 148.78
  L 98.99 148.77
  Q 99.69 148.77 99.40 149.41
  L 98.17 152.05
  A 0.11 0.10 18.8 0 0 98.25 152.20
  Q 98.39 152.23 98.52 152.25
  Q 98.64 152.28 98.72 152.19
  C 100.27 150.43 103.54 147.68 106.06 148.46
  A 1.45 1.45 0.0 0 1 107.02 150.25
  Q 106.28 152.81 104.75 155.00
  A 0.61 0.61 0.0 0 0 105.25 155.96
  Q 106.00 155.96 106.88 155.34
  C 113.97 150.43 117.93 147.08 127.57 148.88
  A 1.31 1.31 0.0 0 1 128.53 150.69
  L 120.25 169.65
  A 1.11 1.11 0.0 0 0 121.62 171.14
  C 126.68 169.43 131.53 156.40 134.37 149.71
  Q 134.77 148.78 135.78 148.78
  L 139.97 148.78
  Q 141.03 148.78 140.56 149.73
  L 139.70 151.48
  Q 139.01 152.90 140.19 151.86
  Q 142.94 149.47 145.68 148.64
  C 148.54 147.78 151.47 148.56 150.89 152.25
  Q 150.77 153.02 151.35 152.50
  C 153.77 150.32 160.99 145.51 163.46 150.25
  C 165.07 153.36 158.91 164.55 157.27 167.78
  Q 156.45 169.39 156.60 170.34
  A 1.21 1.20 -25.6 0 0 158.60 171.04
  C 161.95 168.02 163.44 166.02 165.09 161.40
  C 167.44 154.79 173.09 147.70 180.75 148.38
  C 184.07 148.67 186.92 150.67 187.00 154.15
  A 1.91 1.90 83.1 0 0 189.32 155.97
  C 192.77 155.21 194.43 152.70 195.49 149.64
  Q 195.80 148.75 196.75 148.74
  L 201.77 148.74
  Q 202.62 148.74 202.27 149.52
  L 193.08 169.67
  A 1.16 1.16 0.0 0 0 194.49 171.25
  C 200.22 169.39 205.60 154.21 207.78 149.03
  Q 207.91 148.74 208.22 148.74
  L 214.46 148.75
  A 0.14 0.14 0.0 0 1 214.59 148.95
  L 205.39 170.18
  A 0.78 0.78 0.0 0 0 206.21 171.26
  C 211.59 170.52 217.85 154.03 219.87 149.40
  Q 220.10 148.88 220.68 148.87
  L 225.78 148.86
  Q 226.43 148.86 226.14 149.45
  L 224.87 152.05
  A 0.10 0.09 -76.1 0 0 224.95 152.19
  Q 225.10 152.19 225.24 152.19
  Q 225.34 152.19 225.41 152.12
  C 228.02 149.50 233.96 146.06 236.55 150.37
  C 237.61 152.13 236.74 154.84 235.95 156.44
  Q 232.73 163.01 229.80 169.63
  Q 229.18 171.04 230.71 171.23
  C 235.10 171.75 242.23 154.79 243.71 151.42
  A 0.47 0.46 -80.4 0 0 243.25 150.77
  L 241.38 150.92
  Q 240.72 150.98 241.00 150.38
  L 241.50 149.30
  Q 241.70 148.87 242.18 148.87
  L 244.25 148.88
  A 0.88 0.87 11.9 0 0 245.05 148.36
  L 248.80 139.78
  Q 248.89 139.58 249.11 139.58
  L 255.31 139.60
  A 0.17 0.16 11.3 0 1 255.47 139.83
  L 251.66 148.29
  Q 251.40 148.88 252.04 148.87
  L 255.03 148.86
  Q 255.74 148.85 255.50 149.53
  L 255.31 150.04
  Q 254.97 150.98 253.97 150.93
  L 251.24 150.80
  Q 250.59 150.77 250.32 151.37
  Q 246.87 159.15 243.33 166.94
  Q 241.65 170.64 241.75 173.97
  A 2.07 2.06 81.4 0 0 244.36 175.90
  C 248.00 174.88 250.31 171.94 252.34 169.11
  A 0.45 0.45 0.0 0 1 253.06 169.10
  L 253.39 169.51
  Q 253.73 169.94 253.42 170.39
  C 251.03 173.83 247.83 177.53 243.52 178.50
  C 239.45 179.41 235.85 177.75 235.79 173.16
  C 235.77 172.23 236.20 171.11 236.29 170.00
  Q 236.35 169.15 235.81 169.81
  C 233.48 172.58 224.70 179.48 223.01 172.50
  C 222.17 169.07 228.71 157.23 230.42 153.52
  A 1.15 1.14 6.9 0 0 229.16 151.92
  C 223.56 153.01 217.69 169.51 215.56 174.47
  A 0.88 0.87 -78.1 0 1 214.76 175.00
  L 209.18 174.99
  Q 208.56 174.99 208.83 174.43
  L 210.15 171.73
  Q 210.62 170.77 209.80 171.45
  C 207.70 173.18 206.14 175.47 203.01 175.57
  C 200.50 175.64 198.65 174.03 199.23 171.45
  Q 199.81 168.83 198.24 171.01
  C 196.43 173.52 189.00 178.39 186.73 173.54
  C 185.11 170.06 190.20 161.08 191.88 157.87
  Q 192.22 157.21 191.51 157.43
  Q 189.65 157.99 187.76 157.61
  Q 187.18 157.50 187.09 158.08
  Q 185.92 165.34 181.12 170.87
  C 176.51 176.17 165.57 179.01 163.60 169.19
  Q 163.46 168.46 163.03 169.06
  C 160.41 172.70 156.80 176.29 152.01 175.31
  C 149.01 174.70 149.45 170.54 150.62 168.08
  Q 154.01 160.96 157.28 153.70
  A 1.14 1.14 0.0 0 0 156.18 152.09
  C 150.76 152.40 144.41 170.33 142.47 174.78
  A 0.34 0.34 0.0 0 1 142.16 174.98
  L 135.80 175.00
  A 0.17 0.16 11.3 0 1 135.64 174.77
  L 144.82 153.55
  A 1.03 1.02 -83.6 0 0 143.69 152.13
  C 138.05 153.23 132.29 169.53 130.12 174.46
  A 0.71 0.70 11.3 0 1 129.47 174.89
  L 123.98 174.89
  Q 123.25 174.89 123.57 174.23
  L 124.53 172.23
  Z
  M 80.64 151.27
  Q 80.99 150.44 80.11 150.63
  C 72.76 152.26 67.49 162.48 66.07 169.44
  A 1.71 1.71 0.0 0 0 68.64 171.24
  C 74.44 167.66 77.92 157.72 80.64 151.27
  Z
  M 121.96 151.00
  Q 122.17 150.54 121.66 150.60
  C 114.87 151.43 107.10 163.74 107.30 169.99
  A 1.51 1.50 79.2 0 0 109.31 171.36
  C 115.09 169.25 119.49 156.38 121.96 151.00
  Z
  M 170.4458 173.4318
  A 12.55 3.58 114.7 0 0 178.9425 163.5260
  A 12.55 3.58 114.7 0 0 180.9342 150.6282
  A 12.55 3.58 114.7 0 0 172.4375 160.5340
  A 12.55 3.58 114.7 0 0 170.4458 173.4318
  Z"
/>
</svg>
