<?xml version="1.0" encoding="UTF-8" standalone="no"?>
<!DOCTYPE svg PUBLIC "-//W3C//DTD SVG 1.1//EN" "http://www.w3.org/Graphics/SVG/1.1/DTD/svg11.dtd">
<svg xmlns="http://www.w3.org/2000/svg" version="1.1" viewBox="0.00 0.00 1200.00 428.00">
<g stroke-width="2.00" fill="none" stroke-linecap="butt">
<path stroke="#808080" vector-effect="non-scaling-stroke" d="
  M 371.72 339.05
  Q 371.99 338.37 372.84 338.01
  Q 373.46 337.75 373.02 337.25
  L 372.81 337.00
  A 0.69 0.69 0.0 0 0 371.90 336.87
  Q 370.96 337.49 371.30 338.76
  Q 371.33 338.87 371.72 339.05"
/>
<path stroke="#808080" vector-effect="non-scaling-stroke" d="
  M 49.10 230.95
  L 50.22 225.79
  Q 50.39 225.00 49.75 225.49
  Q 47.09 227.53 45.48 230.73"
/>
<path stroke="#808080" vector-effect="non-scaling-stroke" d="
  M 16.54 160.88
  Q 17.72 160.68 18.34 159.83
  Q 18.66 159.39 18.34 158.95
  Q 18.07 158.58 17.56 158.32"
/>
<path stroke="#808080" vector-effect="non-scaling-stroke" d="
  M 669.06 249.42
  Q 651.93 241.98 619.50 230.43
  Q 593.33 221.11 565.98 207.72
  C 539.85 194.92 519.03 177.37 496.66 159.67
  C 482.77 148.68 467.69 139.24 453.93 128.27
  Q 434.21 112.54 414.81 96.41
  C 403.58 87.08 388.86 77.66 376.12 68.11
  C 362.52 57.91 349.78 49.91 333.95 44.39
  A 3.74 3.72 -44.4 0 0 331.60 44.37
  C 313.27 50.34 293.92 55.90 274.76 58.83
  C 261.48 60.86 252.75 58.10 244.43 47.28
  Q 238.76 39.90 232.40 33.09
  Q 220.56 20.43 203.00 20.34
  C 179.94 20.23 154.94 24.94 133.19 31.38
  C 131.65 31.83 129.77 32.64 128.59 33.35
  Q 93.78 54.45 60.88 78.40
  Q 48.58 87.36 37.12 97.38
  C 31.26 102.50 24.85 108.51 21.07 115.38
  C 20.53 116.35 20.72 116.99 20.96 117.98
  C 24.24 131.43 30.42 141.78 38.84 152.58
  Q 42.52 157.29 43.04 159.62
  C 44.21 164.87 41.31 167.78 37.03 170.90
  Q 33.26 173.66 29.75 176.75
  C 23.02 182.66 19.65 187.33 20.62 195.82
  A 1.66 1.66 0.0 0 0 21.27 196.96
  L 37.21 209.07
  A 0.67 0.66 -48.4 0 0 38.09 209.01
  C 58.47 188.42 80.47 168.90 104.88 153.16
  C 121.52 142.43 149.08 129.02 165.67 148.07
  C 170.29 153.37 172.28 160.53 173.73 167.92
  Q 174.72 173.01 176.21 175.28
  C 180.96 182.52 192.93 184.09 201.01 183.45
  C 219.79 181.96 237.12 175.60 254.71 169.35
  Q 265.15 165.65 270.99 165.43
  Q 279.10 165.13 295.49 167.80
  C 309.20 170.03 318.92 178.09 326.07 189.44
  Q 331.28 197.72 333.26 202.61
  C 337.01 211.87 335.95 221.22 333.68 230.74
  C 328.75 251.48 321.13 271.91 326.92 293.49
  A 2.16 2.16 0.0 0 0 328.52 295.03
  Q 346.79 299.30 363.46 307.99
  C 382.50 317.91 397.39 332.13 418.89 337.38
  C 425.30 338.95 434.40 339.63 440.51 340.75
  C 453.99 343.22 468.04 349.47 481.32 354.32
  C 494.73 359.21 506.34 359.59 521.73 358.94
  Q 557.82 357.40 591.48 344.86
  Q 592.71 344.40 591.47 343.97
  Q 580.96 340.38 570.65 335.22
  C 563.74 331.76 563.13 322.17 569.48 318.33
  Q 571.69 316.99 577.36 316.40
  Q 622.13 311.74 666.90 307.15
  Q 672.85 306.54 681.05 305.35
  C 694.68 303.37 707.95 303.18 721.40 302.97
  Q 733.31 302.78 744.58 299.39
  A 0.56 0.56 0.0 0 0 744.80 298.44
  C 723.07 277.86 696.48 261.33 669.06 249.42"
/>
<path stroke="#735100" vector-effect="non-scaling-stroke" d="
  M 359.45 328.27
  C 347.27 321.06 333.33 316.09 319.53 313.15
  C 313.54 311.88 311.29 308.67 309.26 302.93
  C 300.83 279.06 306.68 255.35 313.15 231.74
  C 314.94 225.23 317.29 215.74 315.41 211.08
  C 313.22 205.68 308.48 197.92 304.90 194.04
  C 297.25 185.74 284.78 185.95 274.25 185.25
  C 268.99 184.90 262.46 187.60 257.53 189.36
  Q 244.38 194.05 230.99 197.94
  C 205.97 205.22 168.71 209.35 156.30 179.45
  C 153.74 173.28 154.61 159.37 145.79 158.35
  C 135.79 157.20 122.23 165.38 114.16 170.71
  Q 90.79 186.17 70.48 205.49
  Q 69.32 206.59 68.86 208.11
  C 33.81 324.06 134.49 434.19 253.00 409.72
  C 298.22 400.38 337.76 370.18 359.69 329.14
  A 0.66 0.66 0.0 0 0 359.45 328.27"
/>
<path stroke="#735100" vector-effect="non-scaling-stroke" d="
  M 90.67 220.98
  C 84.86 236.76 87.95 255.30 101.11 266.37
  C 117.94 280.51 140.94 274.38 150.87 255.60
  C 153.16 251.27 153.24 246.62 148.76 243.98
  Q 124.87 229.87 101.07 215.62
  C 96.10 212.64 92.33 216.47 90.67 220.98"
/>
<path stroke="#735100" vector-effect="non-scaling-stroke" d="
  M 282.11 267.49
  L 230.52 250.03
  A 7.01 7.01 0.0 0 0 221.64 254.42
  L 221.56 254.64
  A 40.08 34.17 -71.3 0 0 241.08 303.56
  L 241.21 303.60
  A 40.08 34.17 -71.3 0 0 286.43 276.59
  L 286.50 276.38
  A 7.01 7.01 0.0 0 0 282.11 267.49"
/>
</g>
<path fill="#000000" d="
  M 371.72 339.05
  Q 371.99 338.37 372.84 338.01
  Q 373.46 337.75 373.02 337.25
  L 372.81 337.00
  A 0.69 0.69 0.0 0 0 371.90 336.87
  Q 370.96 337.49 371.30 338.76
  Q 371.33 338.87 371.72 339.05
  C 368.48 340.91 367.24 344.16 365.45 347.22
  C 362.62 352.04 358.92 356.51 355.66 361.13
  C 349.32 370.10 340.58 378.03 332.57 385.52
  Q 329.93 387.99 326.76 390.26
  Q 323.71 392.44 320.66 394.63
  Q 299.67 409.73 275.26 418.32
  Q 268.99 420.52 251.29 424.52
  Q 245.44 425.84 239.58 426.04
  Q 220.15 426.71 200.72 426.06
  Q 194.79 425.87 188.89 424.55
  Q 174.35 421.31 167.00 419.08
  Q 154.90 415.40 140.65 408.08
  C 136.21 405.81 131.32 402.56 126.57 399.92
  Q 120.47 396.51 108.41 386.59
  Q 103.31 382.39 94.44 373.05
  Q 87.02 365.23 81.89 358.26
  Q 67.05 338.10 58.73 316.24
  Q 54.29 304.58 51.18 290.06
  C 48.05 275.44 47.47 260.59 47.97 245.69
  C 48.11 241.28 48.91 235.91 49.10 230.95
  L 50.22 225.79
  Q 50.39 225.00 49.75 225.49
  Q 47.09 227.53 45.48 230.73
  C 43.74 231.10 42.09 232.01 40.45 232.18
  C 36.34 232.60 33.37 231.59 29.91 228.95
  Q 22.37 223.19 14.86 217.40
  Q 7.93 212.06 3.46 206.53
  C -0.94 201.09 0.24 186.13 2.65 179.96
  C 4.43 175.41 7.99 169.52 11.98 165.60
  Q 14.35 163.28 16.54 160.88
  Q 17.72 160.68 18.34 159.83
  Q 18.66 159.39 18.34 158.95
  Q 18.07 158.58 17.56 158.32
  L 17.64 157.94
  Q 17.73 157.52 17.48 157.17
  Q 6.11 141.21 1.54 122.11
  C -0.58 113.25 2.42 106.49 7.78 99.51
  Q 15.67 89.23 19.19 86.17
  C 30.23 76.55 41.68 67.25 53.69 58.80
  Q 84.05 37.45 115.56 17.82
  C 119.58 15.31 124.14 13.11 129.06 11.77
  C 143.48 7.88 156.25 5.55 168.99 2.79
  Q 172.54 2.01 175.07 1.91
  C 186.94 1.43 198.25 0.16 210.16 1.18
  Q 219.03 1.93 225.08 4.15
  C 241.93 10.34 252.50 26.64 264.51 38.40
  C 266.86 40.70 277.28 38.37 278.91 37.90
  C 283.57 36.55 288.96 35.81 293.00 34.79
  Q 310.83 30.27 328.35 24.64
  Q 334.14 22.78 339.83 24.94
  Q 356.60 31.32 371.96 40.57
  Q 375.33 42.59 385.60 50.22
  C 398.57 59.85 414.81 70.21 424.98 78.77
  C 433.76 86.16 443.05 93.30 451.56 100.56
  Q 467.09 113.80 474.70 119.08
  C 493.46 132.10 511.75 145.41 529.31 160.03
  Q 547.99 175.59 564.58 184.41
  Q 585.06 195.31 597.26 200.19
  C 616.62 207.94 636.04 215.25 655.57 222.56
  C 666.57 226.68 678.99 231.77 687.55 235.92
  Q 721.86 252.51 751.13 276.87
  C 755.92 280.86 765.01 289.04 767.09 294.90
  C 770.36 304.09 762.98 312.28 755.00 316.29
  Q 749.32 319.15 741.32 320.81
  C 727.88 323.61 713.45 321.50 699.66 323.08
  Q 690.99 324.08 682.37 325.44
  C 668.07 327.70 658.59 329.13 647.37 333.65
  Q 644.36 334.86 641.62 337.37
  C 630.08 347.96 617.79 355.47 602.80 361.44
  Q 590.49 366.34 577.79 370.12
  C 567.97 373.04 556.99 374.91 546.33 376.80
  Q 539.92 377.93 533.58 378.08
  Q 516.48 378.47 499.39 378.15
  Q 494.82 378.06 490.21 377.07
  C 482.67 375.45 476.26 374.03 468.09 370.72
  C 458.54 366.84 450.61 364.22 441.66 361.37
  C 437.14 359.92 432.38 359.51 427.65 358.70
  C 423.67 358.02 418.42 358.15 414.01 356.78
  Q 408.34 355.02 399.20 351.80
  C 390.48 348.72 383.27 343.64 375.51 338.83
  C 374.09 337.95 373.00 338.19 371.72 339.05
  Z
  M 669.06 249.42
  Q 651.93 241.98 619.50 230.43
  Q 593.33 221.11 565.98 207.72
  C 539.85 194.92 519.03 177.37 496.66 159.67
  C 482.77 148.68 467.69 139.24 453.93 128.27
  Q 434.21 112.54 414.81 96.41
  C 403.58 87.08 388.86 77.66 376.12 68.11
  C 362.52 57.91 349.78 49.91 333.95 44.39
  A 3.74 3.72 -44.4 0 0 331.60 44.37
  C 313.27 50.34 293.92 55.90 274.76 58.83
  C 261.48 60.86 252.75 58.10 244.43 47.28
  Q 238.76 39.90 232.40 33.09
  Q 220.56 20.43 203.00 20.34
  C 179.94 20.23 154.94 24.94 133.19 31.38
  C 131.65 31.83 129.77 32.64 128.59 33.35
  Q 93.78 54.45 60.88 78.40
  Q 48.58 87.36 37.12 97.38
  C 31.26 102.50 24.85 108.51 21.07 115.38
  C 20.53 116.35 20.72 116.99 20.96 117.98
  C 24.24 131.43 30.42 141.78 38.84 152.58
  Q 42.52 157.29 43.04 159.62
  C 44.21 164.87 41.31 167.78 37.03 170.90
  Q 33.26 173.66 29.75 176.75
  C 23.02 182.66 19.65 187.33 20.62 195.82
  A 1.66 1.66 0.0 0 0 21.27 196.96
  L 37.21 209.07
  A 0.67 0.66 -48.4 0 0 38.09 209.01
  C 58.47 188.42 80.47 168.90 104.88 153.16
  C 121.52 142.43 149.08 129.02 165.67 148.07
  C 170.29 153.37 172.28 160.53 173.73 167.92
  Q 174.72 173.01 176.21 175.28
  C 180.96 182.52 192.93 184.09 201.01 183.45
  C 219.79 181.96 237.12 175.60 254.71 169.35
  Q 265.15 165.65 270.99 165.43
  Q 279.10 165.13 295.49 167.80
  C 309.20 170.03 318.92 178.09 326.07 189.44
  Q 331.28 197.72 333.26 202.61
  C 337.01 211.87 335.95 221.22 333.68 230.74
  C 328.75 251.48 321.13 271.91 326.92 293.49
  A 2.16 2.16 0.0 0 0 328.52 295.03
  Q 346.79 299.30 363.46 307.99
  C 382.50 317.91 397.39 332.13 418.89 337.38
  C 425.30 338.95 434.40 339.63 440.51 340.75
  C 453.99 343.22 468.04 349.47 481.32 354.32
  C 494.73 359.21 506.34 359.59 521.73 358.94
  Q 557.82 357.40 591.48 344.86
  Q 592.71 344.40 591.47 343.97
  Q 580.96 340.38 570.65 335.22
  C 563.74 331.76 563.13 322.17 569.48 318.33
  Q 571.69 316.99 577.36 316.40
  Q 622.13 311.74 666.90 307.15
  Q 672.85 306.54 681.05 305.35
  C 694.68 303.37 707.95 303.18 721.40 302.97
  Q 733.31 302.78 744.58 299.39
  A 0.56 0.56 0.0 0 0 744.80 298.44
  C 723.07 277.86 696.48 261.33 669.06 249.42
  Z
  M 359.45 328.27
  C 347.27 321.06 333.33 316.09 319.53 313.15
  C 313.54 311.88 311.29 308.67 309.26 302.93
  C 300.83 279.06 306.68 255.35 313.15 231.74
  C 314.94 225.23 317.29 215.74 315.41 211.08
  C 313.22 205.68 308.48 197.92 304.90 194.04
  C 297.25 185.74 284.78 185.95 274.25 185.25
  C 268.99 184.90 262.46 187.60 257.53 189.36
  Q 244.38 194.05 230.99 197.94
  C 205.97 205.22 168.71 209.35 156.30 179.45
  C 153.74 173.28 154.61 159.37 145.79 158.35
  C 135.79 157.20 122.23 165.38 114.16 170.71
  Q 90.79 186.17 70.48 205.49
  Q 69.32 206.59 68.86 208.11
  C 33.81 324.06 134.49 434.19 253.00 409.72
  C 298.22 400.38 337.76 370.18 359.69 329.14
  A 0.66 0.66 0.0 0 0 359.45 328.27
  Z"
/>
<path fill="#ffffff" d="
  M 669.06 249.42
  C 696.48 261.33 723.07 277.86 744.80 298.44
  A 0.56 0.56 0.0 0 1 744.58 299.39
  Q 733.31 302.78 721.40 302.97
  C 707.95 303.18 694.68 303.37 681.05 305.35
  Q 672.85 306.54 666.90 307.15
  Q 622.13 311.74 577.36 316.40
  Q 571.69 316.99 569.48 318.33
  C 563.13 322.17 563.74 331.76 570.65 335.22
  Q 580.96 340.38 591.47 343.97
  Q 592.71 344.40 591.48 344.86
  Q 557.82 357.40 521.73 358.94
  C 506.34 359.59 494.73 359.21 481.32 354.32
  C 468.04 349.47 453.99 343.22 440.51 340.75
  C 434.40 339.63 425.30 338.95 418.89 337.38
  C 397.39 332.13 382.50 317.91 363.46 307.99
  Q 346.79 299.30 328.52 295.03
  A 2.16 2.16 0.0 0 1 326.92 293.49
  C 321.13 271.91 328.75 251.48 333.68 230.74
  C 335.95 221.22 337.01 211.87 333.26 202.61
  Q 331.28 197.72 326.07 189.44
  C 318.92 178.09 309.20 170.03 295.49 167.80
  Q 279.10 165.13 270.99 165.43
  Q 265.15 165.65 254.71 169.35
  C 237.12 175.60 219.79 181.96 201.01 183.45
  C 192.93 184.09 180.96 182.52 176.21 175.28
  Q 174.72 173.01 173.73 167.92
  C 172.28 160.53 170.29 153.37 165.67 148.07
  C 149.08 129.02 121.52 142.43 104.88 153.16
  C 80.47 168.90 58.47 188.42 38.09 209.01
  A 0.67 0.66 -48.4 0 1 37.21 209.07
  L 21.27 196.96
  A 1.66 1.66 0.0 0 1 20.62 195.82
  C 19.65 187.33 23.02 182.66 29.75 176.75
  Q 33.26 173.66 37.03 170.90
  C 41.31 167.78 44.21 164.87 43.04 159.62
  Q 42.52 157.29 38.84 152.58
  C 30.42 141.78 24.24 131.43 20.96 117.98
  C 20.72 116.99 20.53 116.35 21.07 115.38
  C 24.85 108.51 31.26 102.50 37.12 97.38
  Q 48.58 87.36 60.88 78.40
  Q 93.78 54.45 128.59 33.35
  C 129.77 32.64 131.65 31.83 133.19 31.38
  C 154.94 24.94 179.94 20.23 203.00 20.34
  Q 220.56 20.43 232.40 33.09
  Q 238.76 39.90 244.43 47.28
  C 252.75 58.10 261.48 60.86 274.76 58.83
  C 293.92 55.90 313.27 50.34 331.60 44.37
  A 3.74 3.72 -44.4 0 1 333.95 44.39
  C 349.78 49.91 362.52 57.91 376.12 68.11
  C 388.86 77.66 403.58 87.08 414.81 96.41
  Q 434.21 112.54 453.93 128.27
  C 467.69 139.24 482.77 148.68 496.66 159.67
  C 519.03 177.37 539.85 194.92 565.98 207.72
  Q 593.33 221.11 619.50 230.43
  Q 651.93 241.98 669.06 249.42
  Z"
/>
<path fill="#000000" d="
  M 1060.58 262.74
  C 1064.86 293.79 1080.28 320.42 1113.52 326.43
  C 1139.42 331.11 1167.21 323.27 1190.58 312.19
  A 0.62 0.61 77.3 0 1 1191.46 312.75
  L 1191.46 358.74
  A 0.43 0.43 0.0 0 1 1191.19 359.14
  C 1160.81 371.26 1130.03 375.90 1097.50 371.19
  C 1031.99 361.68 1005.92 310.08 1003.89 249.50
  C 1002.71 214.32 1007.81 177.69 1027.49 148.00
  C 1048.57 116.19 1082.46 100.22 1120.50 99.12
  C 1144.59 98.43 1167.85 100.67 1190.96 107.78
  A 0.71 0.70 -81.8 0 1 1191.46 108.46
  L 1191.46 157.53
  A 0.39 0.39 0.0 0 1 1190.90 157.88
  C 1169.29 147.38 1143.50 141.25 1119.77 143.66
  C 1060.76 149.68 1054.42 218.09 1060.58 262.74
  Z"
/>
<path fill="#000000" d="
  M 836.00 284.55
  L 836.00 368.52
  Q 836.00 369.04 835.48 369.04
  L 786.00 369.04
  Q 785.45 369.04 785.45 368.50
  L 785.41 103.53
  Q 785.41 103.04 785.89 103.04
  Q 836.55 102.90 866.98 103.02
  C 917.07 103.21 965.59 122.94 969.94 180.00
  C 973.39 225.22 950.63 263.37 906.97 277.36
  C 883.47 284.89 863.89 284.06 836.49 284.05
  Q 836.00 284.05 836.00 284.55
  Z
  M 917.14 184.09
  C 913.87 156.34 890.47 145.05 864.99 145.00
  Q 850.58 144.97 836.20 145.08
  A 0.20 0.20 0.0 0 0 836.00 145.28
  L 836.00 241.24
  A 0.72 0.72 0.0 0 0 836.71 241.96
  Q 850.11 242.05 863.75 242.10
  C 898.48 242.24 921.36 219.82 917.14 184.09
  Z"
/>
<path fill="#ffffff" d="
  M 17.56 158.32
  Q 18.07 158.58 18.34 158.95
  Q 18.66 159.39 18.34 159.83
  Q 17.72 160.68 16.54 160.88
  L 17.56 158.32
  Z"
/>
<path fill="#e6a100" d="
  M 319.53 313.15
  C 333.33 316.09 347.27 321.06 359.45 328.27
  A 0.66 0.66 0.0 0 1 359.69 329.14
  C 337.76 370.18 298.22 400.38 253.00 409.72
  C 134.49 434.19 33.81 324.06 68.86 208.11
  Q 69.32 206.59 70.48 205.49
  Q 90.79 186.17 114.16 170.71
  C 122.23 165.38 135.79 157.20 145.79 158.35
  C 154.61 159.37 153.74 173.28 156.30 179.45
  C 168.71 209.35 205.97 205.22 230.99 197.94
  Q 244.38 194.05 257.53 189.36
  C 262.46 187.60 268.99 184.90 274.25 185.25
  C 284.78 185.95 297.25 185.74 304.90 194.04
  C 308.48 197.92 313.22 205.68 315.41 211.08
  C 317.29 215.74 314.94 225.23 313.15 231.74
  C 306.68 255.35 300.83 279.06 309.26 302.93
  C 311.29 308.67 313.54 311.88 319.53 313.15
  Z
  M 90.67 220.98
  C 84.86 236.76 87.95 255.30 101.11 266.37
  C 117.94 280.51 140.94 274.38 150.87 255.60
  C 153.16 251.27 153.24 246.62 148.76 243.98
  Q 124.87 229.87 101.07 215.62
  C 96.10 212.64 92.33 216.47 90.67 220.98
  Z
  M 282.11 267.49
  L 230.52 250.03
  A 7.01 7.01 0.0 0 0 221.64 254.42
  L 221.56 254.64
  A 40.08 34.17 -71.3 0 0 241.08 303.56
  L 241.21 303.60
  A 40.08 34.17 -71.3 0 0 286.43 276.59
  L 286.50 276.38
  A 7.01 7.01 0.0 0 0 282.11 267.49
  Z"
/>
<path fill="#000000" d="
  M 101.11 266.37
  C 87.95 255.30 84.86 236.76 90.67 220.98
  C 92.33 216.47 96.10 212.64 101.07 215.62
  Q 124.87 229.87 148.76 243.98
  C 153.24 246.62 153.16 251.27 150.87 255.60
  C 140.94 274.38 117.94 280.51 101.11 266.37
  Z"
/>
<path fill="#ffffff" d="
  M 49.10 230.95
  Q 47.87 229.26 45.48 230.73
  Q 47.09 227.53 49.75 225.49
  Q 50.39 225.00 50.22 225.79
  L 49.10 230.95
  Z"
/>
<path fill="#000000" d="
  M 282.11 267.49
  A 7.01 7.01 0.0 0 1 286.50 276.38
  L 286.43 276.59
  A 40.08 34.17 -71.3 0 1 241.21 303.60
  L 241.08 303.56
  A 40.08 34.17 -71.3 0 1 221.56 254.64
  L 221.64 254.42
  A 7.01 7.01 0.0 0 1 230.52 250.03
  L 282.11 267.49
  Z"
/>
<path fill="#ffffff" d="
  M 371.72 339.05
  Q 371.33 338.87 371.30 338.76
  Q 370.96 337.49 371.90 336.87
  A 0.69 0.69 0.0 0 1 372.81 337.00
  L 373.02 337.25
  Q 373.46 337.75 372.84 338.01
  Q 371.99 338.37 371.72 339.05
  Z"
/>
</svg>
