<?xml version="1.0" encoding="UTF-8" standalone="no"?>
<!DOCTYPE svg PUBLIC "-//W3C//DTD SVG 1.1//EN" "http://www.w3.org/Graphics/SVG/1.1/DTD/svg11.dtd">
<svg xmlns="http://www.w3.org/2000/svg" version="1.1" viewBox="0.00 0.00 2560.00 463.00">
<path fill="#000000" d="
  M 210.67 0.00
  Q 210.98 0.00 211.30 0.00
  Q 256.72 9.49 301.07 23.21
  C 353.78 39.52 417.91 56.40 435.15 117.57
  C 439.35 132.44 440.94 147.89 441.27 163.49
  C 441.73 185.61 438.97 209.96 426.08 228.73
  C 405.48 258.72 369.03 257.05 339.38 242.22
  A 0.65 0.64 13.7 0 1 339.03 241.65
  Q 339.09 174.33 339.01 107.14
  C 339.00 97.91 338.45 90.40 335.05 82.99
  C 330.29 72.63 313.52 64.88 306.28 77.52
  C 302.95 83.32 302.53 89.99 302.53 97.65
  Q 302.51 265.90 302.52 434.07
  Q 302.52 434.58 302.03 434.43
  L 210.95 405.58
  A 0.41 0.40 -81.3 0 1 210.67 405.19
  L 210.67 0.00
  Z"
/>
<rect fill="#000000" x="952.63" y="106.42" width="46.68" height="260.84" rx="0.99"/>
<path fill="#000000" d="
  M 797.74 135.55
  L 797.70 365.78
  A 1.48 1.48 0.0 0 1 796.22 367.26
  L 751.91 367.26
  A 0.85 0.85 0.0 0 1 751.06 366.41
  L 751.06 107.27
  A 0.84 0.84 0.0 0 1 751.90 106.43
  Q 803.98 106.39 856.01 106.44
  Q 869.94 106.45 875.91 107.71
  C 916.23 116.17 926.83 162.79 924.69 197.25
  C 922.72 228.90 906.52 262.14 872.45 268.59
  Q 866.77 269.66 852.51 269.60
  Q 835.73 269.54 818.60 269.60
  A 0.86 0.86 0.0 0 1 817.73 268.74
  L 817.73 241.76
  A 0.71 0.71 0.0 0 1 818.44 241.05
  Q 832.19 241.03 846.08 241.05
  Q 853.49 241.06 857.31 239.70
  C 878.06 232.30 879.12 198.48 878.52 181.25
  C 877.93 164.15 872.91 135.69 850.40 134.86
  Q 839.43 134.46 798.20 135.08
  Q 797.74 135.09 797.74 135.55
  Z"
/>
<path fill="#000000" d="
  M 1543.00 220.77
  C 1571.15 233.00 1577.92 266.13 1577.52 293.75
  C 1577.02 328.18 1564.01 360.09 1526.14 366.24
  Q 1520.18 367.21 1507.81 367.23
  Q 1470.79 367.30 1433.74 367.24
  A 1.23 1.23 0.0 0 1 1432.51 366.01
  L 1432.52 340.00
  Q 1432.52 338.75 1433.76 338.75
  Q 1462.90 338.85 1492.04 338.74
  Q 1504.55 338.69 1509.31 337.22
  C 1531.56 330.37 1532.58 303.29 1530.78 284.50
  C 1529.28 268.89 1520.59 254.01 1503.51 252.84
  Q 1492.00 252.05 1480.52 250.99
  C 1430.19 246.30 1414.29 195.36 1426.43 152.67
  C 1435.39 121.15 1462.95 106.19 1494.25 106.28
  Q 1528.01 106.39 1561.73 106.45
  A 1.06 1.06 0.0 0 1 1562.79 107.51
  L 1562.79 133.73
  A 1.24 1.23 -0.0 0 1 1561.55 134.96
  Q 1534.08 134.94 1506.42 134.97
  Q 1493.37 134.98 1488.22 136.55
  Q 1472.51 141.35 1468.86 159.77
  C 1464.53 181.65 1467.18 210.77 1495.76 213.08
  C 1511.68 214.36 1528.11 214.30 1543.00 220.77
  Z"
/>
<rect fill="#000000" x="2048.79" y="106.42" width="46.64" height="39.16" rx="1.00"/>
<path fill="#000000" d="
  M 1657.21 197.51
  Q 1657.01 255.01 1657.20 312.50
  C 1657.23 321.40 1658.17 333.34 1666.80 337.34
  Q 1669.90 338.78 1677.88 338.78
  Q 1685.88 338.78 1693.78 338.78
  A 0.95 0.95 0.0 0 1 1694.73 339.73
  L 1694.73 366.47
  A 0.80 0.80 0.0 0 1 1693.93 367.27
  Q 1682.38 367.24 1670.75 367.26
  Q 1656.41 367.28 1650.83 366.05
  C 1623.95 360.11 1610.64 333.76 1610.62 308.00
  Q 1610.55 222.36 1610.56 135.91
  A 0.95 0.95 0.0 0 1 1611.51 134.96
  L 1656.49 134.96
  A 0.71 0.71 0.0 0 1 1657.20 135.67
  L 1657.21 168.20
  A 0.49 0.49 0.0 0 0 1657.70 168.69
  L 1705.98 168.69
  Q 1707.03 168.69 1707.03 169.73
  L 1707.03 195.71
  A 1.24 1.24 0.0 0 1 1705.79 196.95
  L 1657.76 196.95
  Q 1657.21 196.95 1657.21 197.51
  Z"
/>
<path fill="#000000" d="
  M 1971.76 196.95
  Q 1971.37 196.95 1971.37 197.35
  Q 1971.35 254.79 1971.30 312.25
  C 1971.29 320.77 1972.27 334.14 1981.95 337.83
  Q 1984.19 338.69 1989.67 338.74
  Q 1998.85 338.83 2008.01 338.76
  A 0.76 0.76 0.0 0 1 2008.77 339.52
  L 2008.77 366.51
  A 0.76 0.76 0.0 0 1 2008.01 367.27
  Q 1996.42 367.24 1984.74 367.26
  Q 1970.52 367.30 1964.82 366.06
  C 1939.14 360.46 1925.07 334.95 1924.99 309.74
  Q 1924.70 222.68 1924.73 135.70
  A 0.74 0.74 0.0 0 1 1925.47 134.96
  L 1970.41 134.96
  A 0.95 0.95 0.0 0 1 1971.36 135.91
  L 1971.33 168.00
  A 0.68 0.67 90.0 0 0 1972.00 168.68
  L 2020.23 168.69
  A 0.79 0.79 0.0 0 1 2021.02 169.48
  L 2021.02 195.72
  A 1.24 1.23 -0.0 0 1 2019.78 196.95
  L 1971.76 196.95
  Z"
/>
<path fill="#000000" d="
  M 1147.79 197.04
  Q 1129.85 196.90 1111.75 197.08
  C 1091.00 197.28 1084.11 212.90 1081.66 230.85
  Q 1079.74 244.88 1079.59 256.00
  Q 1079.20 283.62 1079.41 311.25
  C 1079.49 323.32 1081.26 338.77 1096.74 338.75
  Q 1112.18 338.73 1127.35 338.81
  A 0.92 0.92 0.0 0 1 1128.26 339.73
  L 1128.26 366.23
  A 1.03 1.03 0.0 0 1 1127.23 367.26
  Q 1109.96 367.25 1092.50 367.26
  Q 1078.27 367.28 1072.59 365.97
  C 1045.96 359.86 1032.90 333.55 1032.76 308.00
  Q 1032.56 273.73 1032.85 259.50
  C 1033.57 223.03 1043.10 184.26 1083.27 172.77
  Q 1098.07 168.54 1113.50 168.57
  Q 1153.75 168.64 1193.99 168.73
  A 0.77 0.77 0.0 0 1 1194.76 169.50
  L 1194.76 366.25
  A 1.01 1.01 0.0 0 1 1193.75 367.26
  L 1148.99 367.26
  A 0.77 0.77 0.0 0 1 1148.22 366.49
  L 1148.25 197.50
  A 0.46 0.46 0.0 0 0 1147.79 197.04
  Z"
/>
<path fill="#000000" d="
  M 1289.43 463.00
  L 1248.76 463.00
  L 1286.16 366.63
  A 3.49 3.48 46.3 0 0 1286.21 364.27
  L 1219.73 169.76
  A 0.81 0.81 0.0 0 1 1220.50 168.69
  L 1267.27 168.69
  A 1.26 1.24 80.5 0 1 1268.45 169.54
  L 1311.95 297.00
  Q 1312.46 298.50 1313.03 297.02
  L 1362.32 169.51
  A 1.29 1.29 0.0 0 1 1363.52 168.69
  L 1406.06 168.69
  A 0.56 0.56 0.0 0 1 1406.58 169.46
  L 1289.43 463.00
  Z"
/>
<path fill="#000000" d="
  M 1840.10 197.05
  Q 1826.03 196.89 1811.84 197.00
  Q 1797.88 197.11 1792.98 198.91
  Q 1782.51 202.75 1778.10 214.57
  C 1772.05 230.82 1771.50 250.88 1771.52 268.25
  Q 1771.55 299.78 1771.73 315.00
  C 1771.83 322.95 1774.17 334.55 1782.68 337.77
  Q 1785.48 338.83 1793.91 338.80
  Q 1806.84 338.75 1819.57 338.80
  A 0.93 0.92 0.0 0 1 1820.50 339.72
  L 1820.50 366.23
  A 1.02 1.01 -0.3 0 1 1819.49 367.24
  Q 1800.55 367.30 1781.40 367.24
  Q 1769.52 367.20 1763.76 365.71
  C 1737.83 359.02 1725.10 333.33 1725.00 308.25
  Q 1724.85 270.88 1725.02 259.75
  C 1725.57 224.58 1734.74 186.59 1771.99 173.78
  Q 1787.23 168.54 1805.25 168.57
  Q 1845.62 168.64 1886.26 168.73
  A 0.77 0.77 0.0 0 1 1887.03 169.50
  L 1887.03 366.61
  A 0.65 0.64 90.0 0 1 1886.39 367.26
  L 1841.24 367.26
  A 0.77 0.76 90.0 0 1 1840.48 366.49
  L 1840.53 197.49
  A 0.44 0.44 0.0 0 0 1840.10 197.05
  Z"
/>
<rect fill="#000000" x="2048.78" y="168.68" width="46.64" height="198.58" rx="0.98"/>
<path fill="#000000" d="
  M 2294.75 264.76
  C 2295.07 302.17 2289.56 344.72 2249.96 360.69
  C 2231.42 368.16 2208.32 368.89 2188.50 365.71
  C 2129.49 356.22 2123.17 301.00 2125.81 253.00
  C 2127.97 213.76 2141.93 179.58 2184.62 171.17
  Q 2214.54 165.27 2241.61 172.61
  C 2285.11 184.39 2294.40 225.14 2294.75 264.76
  Z
  M 2225.30 199.17
  C 2216.35 196.34 2204.15 196.11 2195.69 198.91
  C 2180.76 203.86 2175.72 220.45 2174.03 234.50
  C 2171.73 253.73 2171.24 274.62 2173.18 293.98
  C 2175.50 317.20 2180.84 339.70 2210.01 339.07
  C 2225.28 338.74 2235.27 334.70 2241.28 320.14
  Q 2244.81 311.56 2245.95 302.50
  Q 2250.16 268.87 2245.98 234.51
  C 2244.40 221.53 2239.73 203.74 2225.30 199.17
  Z"
/>
<path fill="#000000" d="
  M 2371.46 197.05
  A 0.42 0.42 0.0 0 0 2371.04 197.47
  L 2371.13 366.19
  A 1.07 1.07 0.0 0 1 2370.06 367.26
  L 2325.78 367.26
  Q 2324.55 367.26 2324.55 366.03
  L 2324.60 169.53
  A 0.83 0.82 -0.4 0 1 2325.42 168.71
  Q 2367.58 168.61 2410.00 168.74
  C 2424.88 168.79 2441.30 172.79 2453.65 180.59
  C 2483.02 199.13 2486.43 237.56 2486.50 269.25
  Q 2486.61 317.86 2486.53 366.49
  A 0.77 0.77 0.0 0 1 2485.76 367.26
  L 2441.01 367.26
  A 0.93 0.93 0.0 0 1 2440.08 366.33
  Q 2440.14 309.76 2439.81 253.75
  C 2439.72 236.95 2438.62 206.14 2419.49 199.08
  Q 2414.93 197.39 2408.99 197.29
  Q 2390.21 196.94 2371.46 197.05
  Z"
/>
<path fill="#000000" d="
  M 0.00 336.93
  L 0.00 332.48
  C 2.07 321.76 9.47 316.39 18.40 311.22
  Q 36.61 300.68 56.44 293.64
  Q 124.51 269.48 192.50 245.24
  A 0.30 0.29 80.3 0 1 192.89 245.52
  L 192.89 297.87
  A 0.88 0.87 -10.1 0 1 192.31 298.69
  Q 144.76 315.69 97.00 332.82
  C 92.80 334.32 85.59 337.76 84.05 342.16
  C 81.23 350.19 99.09 352.99 103.76 353.41
  Q 119.78 354.85 135.30 351.66
  Q 141.97 350.29 154.40 345.81
  Q 173.38 338.96 192.36 332.16
  Q 192.89 331.97 192.89 332.53
  L 192.89 378.97
  Q 192.89 379.50 192.36 379.60
  Q 130.79 391.38 69.79 377.28
  Q 51.90 373.15 34.48 367.34
  C 20.12 362.55 3.26 353.07 0.00 336.93
  Z"
/>
<path fill="#000000" d="
  M 480.74 308.05
  C 477.46 303.95 467.69 302.13 462.76 301.67
  Q 439.28 299.47 417.11 307.23
  Q 368.75 324.16 320.33 341.19
  A 0.24 0.24 0.0 0 1 320.01 340.97
  L 320.01 286.52
  Q 320.01 286.03 320.48 285.87
  C 390.88 262.26 464.41 261.83 533.66 289.42
  C 544.21 293.62 556.47 300.63 561.68 311.06
  C 573.15 334.06 533.77 351.62 518.66 357.06
  Q 419.61 392.73 320.47 428.33
  A 0.35 0.34 -9.7 0 1 320.01 428.01
  L 320.01 375.80
  Q 320.01 375.37 320.41 375.23
  Q 394.86 348.73 469.21 322.10
  C 474.30 320.28 485.82 314.39 480.74 308.05
  Z"
/>
<path fill="#000000" d="
  M 2560.00 343.81
  L 2560.00 348.00
  Q 2558.50 358.56 2550.18 363.92
  C 2539.35 370.91 2524.09 366.53 2518.98 354.73
  C 2510.59 335.38 2530.95 317.30 2549.28 327.18
  Q 2558.39 332.09 2560.00 343.81
  Z
  M 2556.36 345.80
  A 17.86 17.86 0.0 0 0 2538.50 327.94
  A 17.86 17.86 0.0 0 0 2520.64 345.80
  A 17.86 17.86 0.0 0 0 2538.50 363.66
  A 17.86 17.86 0.0 0 0 2556.36 345.80
  Z"
/>
<path fill="#000000" d="
  M 2533.66 348.03
  L 2533.67 356.82
  Q 2533.67 357.31 2533.18 357.31
  L 2529.99 357.31
  A 0.57 0.57 0.0 0 1 2529.42 356.74
  L 2529.42 333.75
  A 0.33 0.32 -90.0 0 1 2529.74 333.42
  Q 2536.04 333.37 2542.25 333.49
  C 2548.59 333.61 2550.36 340.93 2546.37 345.17
  Q 2545.99 345.57 2546.39 345.94
  C 2548.72 348.10 2548.21 351.82 2548.35 354.68
  A 0.93 0.89 18.9 0 0 2548.69 355.34
  Q 2549.33 355.87 2549.51 356.70
  A 0.51 0.50 -6.0 0 1 2549.01 357.31
  L 2545.03 357.31
  A 0.58 0.57 -1.6 0 1 2544.46 356.78
  L 2543.90 349.71
  A 2.30 2.30 0.0 0 0 2541.64 347.60
  L 2534.22 347.48
  A 0.56 0.55 -0.0 0 0 2533.66 348.03
  Z
  M 2533.66 337.54
  L 2533.64 343.32
  A 0.43 0.43 0.0 0 0 2534.07 343.75
  L 2541.15 343.78
  A 3.23 3.03 0.2 0 0 2544.39 340.76
  L 2544.39 340.18
  A 3.23 3.03 0.2 0 0 2541.17 337.14
  L 2534.09 337.11
  A 0.43 0.43 0.0 0 0 2533.66 337.54
  Z"
/>
<path fill="#000000" d="
  M 550.80 412.44
  A 21.48 21.48 0.0 0 1 529.32 433.92
  A 21.48 21.48 0.0 0 1 507.84 412.44
  A 21.48 21.48 0.0 0 1 529.32 390.96
  A 21.48 21.48 0.0 0 1 550.80 412.44
  Z
  M 547.15 412.40
  A 17.86 17.86 0.0 0 0 529.29 394.54
  A 17.86 17.86 0.0 0 0 511.43 412.40
  A 17.86 17.86 0.0 0 0 529.29 430.26
  A 17.86 17.86 0.0 0 0 547.15 412.40
  Z"
/>
<path fill="#000000" d="
  M 524.45 414.75
  L 524.45 423.26
  Q 524.45 423.97 523.74 423.97
  L 520.82 423.95
  Q 520.20 423.94 520.20 423.32
  L 520.18 400.34
  A 0.32 0.32 0.0 0 1 520.49 400.02
  Q 526.62 399.94 532.75 400.05
  C 539.29 400.16 541.33 407.30 537.15 411.79
  Q 536.79 412.18 537.18 412.54
  C 540.10 415.26 538.07 421.01 539.63 422.25
  A 0.97 0.96 -25.2 0 1 539.00 423.97
  L 535.97 423.93
  Q 535.27 423.93 535.22 423.23
  L 534.70 416.15
  A 2.06 2.05 -2.0 0 0 532.66 414.25
  L 525.00 414.20
  Q 524.45 414.20 524.45 414.75
  Z
  M 524.46 404.04
  L 524.44 410.10
  A 0.32 0.32 0.0 0 0 524.76 410.42
  L 531.89 410.43
  A 3.27 2.89 0.1 0 0 535.17 407.55
  L 535.17 406.63
  A 3.27 2.89 0.1 0 0 531.91 403.73
  L 524.78 403.72
  A 0.32 0.32 0.0 0 0 524.46 404.04
  Z"
/>
</svg>
