<?xml version="1.0" encoding="UTF-8" standalone="no"?>
<!DOCTYPE svg PUBLIC "-//W3C//DTD SVG 1.1//EN" "http://www.w3.org/Graphics/SVG/1.1/DTD/svg11.dtd">
<svg xmlns="http://www.w3.org/2000/svg" version="1.1" viewBox="0.00 0.00 1280.00 394.00">
<rect fill="#00a8e1" x="240.06" y="0.45" width="40.70" height="37.52" rx="17.16"/>
<rect fill="#232f3e" x="-20.29" y="-18.83" transform="translate(843.77,19.19) rotate(-0.5)" width="40.58" height="37.66" rx="17.22"/>
<path fill="#232f3e" d="
  M 971.30 172.57
  C 969.26 173.95 967.04 175.76 965.28 176.87
  Q 941.41 191.91 915.15 180.85
  C 902.44 175.50 893.23 162.51 888.79 149.68
  C 881.80 129.51 882.88 102.35 891.77 82.90
  C 905.77 52.27 941.60 45.57 968.92 63.32
  Q 969.40 63.62 969.68 63.65
  A 0.70 0.70 0.0 0 0 970.45 62.94
  Q 970.38 34.50 970.46 6.00
  Q 970.47 1.38 975.50 1.32
  Q 987.76 1.17 1000.01 1.30
  C 1006.49 1.38 1006.04 4.62 1006.04 10.07
  Q 1006.07 93.66 1006.04 177.25
  Q 1006.04 182.11 1001.01 182.18
  Q 983.94 182.39 979.25 182.24
  C 973.47 182.06 973.89 176.63 972.16 172.81
  Q 971.88 172.18 971.30 172.57
  Z
  M 934.40 83.52
  C 919.49 91.70 919.51 119.45 921.80 133.50
  C 923.13 141.64 926.51 149.72 933.53 154.21
  C 943.39 160.51 957.99 158.39 968.04 152.73
  C 969.22 152.07 970.58 150.76 970.58 149.50
  Q 970.41 119.91 970.67 90.33
  C 970.69 88.38 970.35 86.47 968.64 85.60
  C 959.17 80.82 943.93 78.29 934.40 83.52
  Z"
/>
<path fill="#232f3e" d="
  M 1280.00 110.35
  L 1280.00 129.48
  C 1279.12 131.69 1279.61 134.47 1279.33 136.50
  C 1276.05 160.60 1260.26 179.16 1236.32 184.31
  C 1214.23 189.06 1186.30 185.19 1171.21 166.47
  C 1149.27 139.25 1151.48 84.45 1181.85 63.61
  C 1195.65 54.14 1215.96 51.78 1232.48 54.57
  C 1258.10 58.89 1274.81 76.61 1279.36 101.92
  Q 1279.62 103.36 1279.62 106.11
  Q 1279.63 108.32 1280.00 110.35
  Z
  M 1209.95 157.34
  C 1226.68 162.29 1238.64 154.35 1242.54 138.31
  C 1244.43 130.51 1244.49 123.42 1244.10 114.50
  Q 1243.56 102.16 1239.07 93.09
  C 1231.84 78.52 1210.22 77.55 1200.56 89.83
  C 1190.21 102.97 1188.34 150.94 1209.95 157.34
  Z"
/>
<path fill="#00a8e1" d="
  M 0.00 210.13
  L 0.00 60.76
  Q 3.10 57.76 6.50 57.75
  Q 16.13 57.70 25.75 57.75
  C 30.48 57.77 31.81 64.13 32.54 67.66
  A 0.85 0.85 0.0 0 0 33.90 68.15
  C 48.30 56.72 63.49 51.63 81.99 54.82
  C 107.49 59.20 120.43 82.69 122.63 106.51
  Q 123.67 117.69 122.87 127.87
  C 120.67 155.75 104.40 183.36 73.71 185.13
  Q 53.81 186.28 37.61 174.26
  A 0.73 0.73 0.0 0 0 36.44 174.85
  Q 36.58 201.74 36.39 228.00
  Q 36.35 232.48 32.01 232.58
  Q 18.87 232.87 5.75 232.74
  Q 2.70 232.71 0.42 229.23
  A 1.53 1.48 -63.3 0 1 0.17 228.43
  L 0.00 210.13
  Z
  M 55.88 81.15
  Q 47.38 82.00 39.78 85.75
  C 37.11 87.06 36.30 88.34 36.30 91.25
  Q 36.29 120.12 36.49 149.00
  Q 36.51 151.65 37.71 152.34
  C 48.88 158.79 67.13 162.01 77.47 152.28
  C 88.35 142.04 87.64 120.39 86.10 106.88
  C 84.05 88.94 74.66 79.28 55.88 81.15
  Z"
/>
<path fill="#00a8e1" d="
  M 417.25 68.84
  Q 425.85 63.71 429.25 61.96
  C 455.62 48.41 498.05 48.43 498.21 89.12
  Q 498.38 132.19 498.29 175.25
  C 498.28 178.80 498.20 182.28 493.50 182.38
  Q 480.75 182.64 468.00 182.56
  C 463.90 182.53 462.78 179.37 462.78 175.75
  Q 462.74 135.87 462.74 96.00
  C 462.74 73.94 433.19 82.02 422.58 87.35
  Q 421.44 87.92 421.44 89.50
  Q 421.46 132.94 421.42 176.38
  C 421.42 179.01 420.64 182.53 417.25 182.60
  Q 411.26 182.73 391.73 182.68
  C 385.26 182.66 385.64 178.64 385.64 173.29
  Q 385.61 136.40 385.66 99.50
  C 385.68 89.61 382.98 82.00 371.87 81.61
  Q 357.64 81.10 345.03 87.45
  A 2.26 2.25 76.9 0 0 343.78 89.47
  Q 343.80 132.22 343.78 175.16
  C 343.78 180.15 343.24 182.59 337.74 182.67
  Q 321.68 182.90 313.49 182.66
  C 308.64 182.52 308.23 179.26 308.22 175.05
  Q 308.19 119.15 308.23 63.25
  Q 308.23 57.65 313.99 57.68
  Q 323.19 57.72 332.38 57.73
  C 338.57 57.73 339.26 63.54 340.51 68.04
  Q 340.90 69.46 342.14 68.65
  C 356.98 59.02 371.91 52.93 389.87 54.10
  C 399.30 54.71 407.59 57.88 413.72 65.50
  Q 415.05 67.15 416.46 68.72
  Q 416.81 69.10 417.25 68.84
  Z"
/>
<path fill="#00a8e1" d="
  M 553.63 129.72
  A 1.52 1.52 0.0 0 0 551.87 131.37
  Q 553.47 146.95 564.07 154.21
  C 574.15 161.12 591.01 160.51 602.97 158.14
  Q 611.01 156.55 619.00 154.81
  C 623.43 153.85 624.22 157.02 624.24 160.64
  Q 624.29 167.07 624.25 173.50
  C 624.23 177.25 620.42 179.53 616.78 180.75
  C 586.62 190.89 541.58 190.57 526.04 156.42
  Q 522.54 148.74 520.43 137.27
  C 514.76 106.38 525.40 68.08 559.25 57.94
  C 576.13 52.88 598.49 53.12 613.38 63.09
  C 625.25 71.05 631.16 86.00 629.14 100.16
  C 626.74 116.98 615.18 125.92 599.24 129.46
  C 583.51 132.94 569.41 132.23 553.63 129.72
  Z
  M 553.58 108.45
  Q 566.03 110.20 577.00 110.11
  C 584.63 110.04 593.37 108.03 596.37 99.84
  Q 598.29 94.59 596.05 88.53
  C 592.78 79.68 580.96 78.45 572.89 80.11
  C 559.72 82.82 553.45 95.34 552.71 107.39
  A 1.01 1.00 5.8 0 0 553.58 108.45
  Z"
/>
<path fill="#232f3e" d="
  M 1062.36 130.11
  C 1063.49 144.97 1070.13 155.81 1085.48 158.51
  C 1100.51 161.15 1113.06 158.93 1127.84 155.04
  C 1131.57 154.07 1134.73 154.45 1134.88 159.00
  Q 1135.22 169.69 1134.94 173.76
  Q 1134.69 177.45 1130.99 178.93
  C 1106.35 188.84 1073.98 190.83 1051.54 174.96
  C 1042.66 168.68 1037.17 159.20 1033.88 148.40
  C 1027.06 126.03 1028.29 98.39 1041.97 78.58
  C 1056.50 57.56 1082.36 51.68 1106.71 56.41
  C 1125.60 60.07 1138.40 72.21 1140.14 91.76
  C 1143.99 134.95 1090.80 135.03 1062.98 129.56
  Q 1062.31 129.42 1062.36 130.11
  Z
  M 1107.04 98.26
  C 1111.20 77.71 1086.09 75.45 1074.48 83.80
  C 1067.00 89.19 1064.45 97.74 1062.98 106.61
  A 1.50 1.50 0.0 0 0 1064.24 108.34
  Q 1070.41 109.26 1076.39 109.64
  C 1086.60 110.31 1104.34 111.65 1107.04 98.26
  Z"
/>
<path fill="#00a8e1" d="
  M 179.95 74.42
  A 0.91 0.91 0.0 0 0 181.49 74.85
  C 193.05 62.78 204.98 55.03 222.25 56.42
  Q 226.33 56.75 226.65 60.76
  Q 227.55 72.37 226.92 83.99
  C 226.54 90.93 219.19 89.24 214.66 88.99
  C 204.15 88.39 193.82 90.12 184.10 93.78
  A 2.87 2.86 79.6 0 0 182.25 96.46
  Q 182.24 135.39 182.23 174.75
  C 182.23 178.49 182.15 182.78 176.99 182.72
  Q 165.61 182.59 154.22 182.55
  C 147.77 182.53 146.51 181.51 146.50 175.16
  Q 146.31 105.50 146.46 62.75
  Q 146.48 57.54 151.74 57.51
  Q 161.13 57.47 170.50 57.54
  Q 175.50 57.57 176.85 62.35
  Q 178.63 68.58 179.95 74.42
  Z"
/>
<rect fill="#00a8e1" x="242.53" y="57.47" width="35.70" height="124.76" rx="4.95"/>
<path fill="#232f3e" d="
  M 748.18 148.79
  Q 748.39 148.91 748.45 148.69
  Q 761.05 106.34 773.62 64.13
  C 774.82 60.12 776.45 57.74 780.74 57.73
  Q 799.55 57.66 807.00 57.73
  C 810.82 57.77 811.93 60.78 810.73 63.94
  Q 776.69 153.77 766.91 178.38
  C 765.58 181.72 761.88 182.58 758.27 182.54
  Q 748.93 182.45 739.59 182.53
  C 734.70 182.57 730.80 181.61 729.03 176.99
  Q 707.68 121.11 686.25 65.25
  C 684.63 61.02 684.48 57.51 690.20 57.50
  Q 703.24 57.48 716.26 57.48
  Q 721.23 57.48 722.72 62.49
  Q 735.40 105.33 747.79 148.26
  Q 747.90 148.62 748.18 148.79
  Z"
/>
<rect fill="#232f3e" x="825.77" y="57.70" width="35.80" height="124.94" rx="4.85"/>
<path fill="#00a8e1" d="
  M 959.32 327.57
  C 952.20 342.95 943.65 356.53 931.01 368.01
  C 926.48 372.12 919.70 371.42 922.49 363.62
  C 931.30 338.98 940.79 314.24 943.69 290.00
  C 945.95 271.16 937.23 267.74 921.00 266.28
  C 901.50 264.53 879.83 267.44 855.76 270.55
  C 852.02 271.04 849.38 267.80 850.82 264.29
  C 851.75 262.00 853.80 260.05 856.04 258.52
  C 876.10 244.75 898.27 239.24 922.50 238.01
  Q 940.08 237.11 957.22 240.76
  C 963.92 242.19 972.60 244.51 974.49 252.00
  Q 975.60 256.43 975.06 265.24
  Q 973.06 297.91 959.32 327.57
  Z"
/>
<path fill="#00a8e1" d="
  M 653.62 394.00
  L 634.26 394.00
  Q 605.52 392.45 592.74 391.00
  C 486.27 378.96 389.72 331.86 313.46 257.01
  C 309.50 253.13 311.21 245.66 317.25 245.70
  C 318.50 245.71 321.59 247.17 323.06 248.08
  Q 423.76 310.30 541.50 331.75
  C 600.48 342.50 660.68 344.97 719.68 337.84
  Q 814.92 326.32 904.48 286.23
  C 910.89 283.36 919.06 286.09 920.12 293.50
  C 920.80 298.25 917.87 302.50 914.28 305.31
  Q 880.75 331.55 842.14 349.50
  C 788.29 374.55 728.88 389.64 669.50 393.00
  Q 657.37 393.69 653.62 394.00
  Z"
/>
</svg>
