<svg xmlns="http://www.w3.org/2000/svg" viewBox="0 0 980.23 294"><defs><style>.a{fill:#2ebd59;}</style></defs><path class="a" d="M147,0A147,147,0,1,0,294,147,147,147,0,0,0,147,0Zm67.41,212a9.16,9.16,0,0,1-12.6,3.05c-34.52-21.1-78-25.86-129.13-14.18A9.16,9.16,0,1,1,68.6,183c56-12.81,104-7.3,142.77,16.38a9.16,9.16,0,0,1,3,12.6Zm18-40a11.46,11.46,0,0,1-15.76,3.77c-39.51-24.28-99.74-31.31-146.48-17.13A11.46,11.46,0,1,1,63.5,136.7c53.38-16.19,119.75-8.35,165.13,19.54A11.44,11.44,0,0,1,232.4,172ZM234,130.31c-47.39-28.14-125.55-30.73-170.78-17a13.75,13.75,0,1,1-8-26.31C107.11,71.24,193.43,74.28,248,106.66a13.75,13.75,0,0,1-14,23.65Zm166,5.39c-25.38-6-29.9-10.3-29.9-19.22,0-8.44,7.94-14.11,19.75-14.11,11.44,0,22.79,4.31,34.69,13.18a1.66,1.66,0,0,0,2.35-.37l12.39-17.47a1.66,1.66,0,0,0-.31-2.26c-14.16-11.36-30.11-16.89-48.75-16.89-27.4,0-46.54,16.45-46.54,40,0,25.23,16.51,34.17,45.05,41.06,24.28,5.6,28.38,10.28,28.38,18.66,0,9.29-8.29,15.06-21.63,15.06-14.81,0-26.89-5-40.41-16.7a1.78,1.78,0,0,0-1.22-.4,1.66,1.66,0,0,0-1.14.59l-13.9,16.54a1.64,1.64,0,0,0,.17,2.3,82.83,82.83,0,0,0,55.94,21.46c29.53,0,48.61-16.14,48.61-41.11.06-21.08-12.56-32.75-43.48-40.27l-.05,0Zm110.34-25c-12.8,0-23.3,5-31.95,15.37V114.42a1.67,1.67,0,0,0-1.66-1.67H453.93a1.66,1.66,0,0,0-1.66,1.67V243.61a1.66,1.66,0,0,0,1.66,1.67h22.73a1.67,1.67,0,0,0,1.66-1.67V202.83c8.66,9.72,19.16,14.47,31.95,14.47,23.79,0,47.86-18.31,47.86-53.31s-24-53.32-47.83-53.32ZM531.71,164c0,17.82-11,30.26-26.7,30.26-15.54,0-27.26-13-27.26-30.26s11.72-30.26,27.26-30.26,26.7,12.72,26.7,30.26Zm88.13-53.32c-30.63,0-54.62,23.59-54.62,53.7,0,29.79,23.83,53.13,54.25,53.13,30.73,0,54.8-23.51,54.8-53.51s-23.91-53.31-54.43-53.31Zm0,83.76c-16.29,0-28.57-13.09-28.57-30.45s11.86-30.07,28.2-30.07,28.76,13.09,28.76,30.45-11.94,30.07-28.39,30.07Zm119.84-81.68h-25V87.18A1.66,1.66,0,0,0,713,85.52H690.29a1.67,1.67,0,0,0-1.67,1.66v25.57H677.7a1.66,1.66,0,0,0-1.66,1.67V134a1.66,1.66,0,0,0,1.66,1.66h10.92v50.54c0,20.43,10.17,30.78,30.22,30.78a41.36,41.36,0,0,0,21.28-5.3,1.64,1.64,0,0,0,.84-1.44v-18.6a1.66,1.66,0,0,0-.79-1.41,1.64,1.64,0,0,0-1.62-.08,28.62,28.62,0,0,1-13.34,3.22c-7.29,0-10.54-3.31-10.54-10.73v-47h25a1.66,1.66,0,0,0,1.66-1.66V114.43a1.62,1.62,0,0,0-1.64-1.67Zm87.13.1v-3.14c0-9.24,3.55-13.36,11.49-13.36a38.2,38.2,0,0,1,12.81,2.37,1.67,1.67,0,0,0,2.18-1.59V78a1.65,1.65,0,0,0-1.17-1.59,62.4,62.4,0,0,0-18.89-2.72c-21,0-32.09,11.82-32.09,34.17v4.81H790.22a1.68,1.68,0,0,0-1.67,1.67V134a1.68,1.68,0,0,0,1.67,1.66h10.92v78a1.66,1.66,0,0,0,1.66,1.66h22.72a1.67,1.67,0,0,0,1.67-1.66V135.62h21.22l32.5,77.93c-3.69,8.19-7.32,9.82-12.27,9.82a26.2,26.2,0,0,1-12.53-3.55,1.64,1.64,0,0,0-2.31.77l-7.7,16.9a1.65,1.65,0,0,0,.72,2.15,47.9,47.9,0,0,0,24.27,6.21c16.78,0,26-7.82,34.23-28.84l39.43-101.88a1.66,1.66,0,0,0-1.55-2.27H919.54A1.67,1.67,0,0,0,918,114L893.73,183.2l-26.54-69.27a1.65,1.65,0,0,0-1.55-1.07H826.81Zm-50.52-.1H753.57a1.67,1.67,0,0,0-1.67,1.67v99.15a1.66,1.66,0,0,0,1.67,1.66h22.72a1.66,1.66,0,0,0,1.67-1.66V114.42a1.66,1.66,0,0,0-1.66-1.66h0ZM765.06,67.61a16.3,16.3,0,1,0,16.3,16.29,16.3,16.3,0,0,0-16.3-16.29Zm199.09,77a16,16,0,1,1,16.08-16.09,15.93,15.93,0,0,1-16.08,16.09Zm.09-30.48a14.44,14.44,0,1,0,14.31,14.39,14.3,14.3,0,0,0-14.31-14.39Zm3.55,16,4.52,6.33h-3.82l-4.07-5.81h-3.5v5.81h-3.19V119.73h7.48c3.9,0,6.47,2,6.47,5.36a5,5,0,0,1-3.88,5.1Zm-2.71-7.58h-4.16v5.31h4.16c2.08,0,3.32-1,3.32-2.65s-1.25-2.66-3.32-2.66Z"/></svg>