<?xml version="1.0" encoding="UTF-8" standalone="no"?>
<!DOCTYPE svg PUBLIC "-//W3C//DTD SVG 1.1//EN" "http://www.w3.org/Graphics/SVG/1.1/DTD/svg11.dtd">
<svg xmlns="http://www.w3.org/2000/svg" version="1.1" viewBox="0.00 0.00 1200.00 732.00">
<g stroke-width="2.00" fill="none" stroke-linecap="butt">
<path stroke="#f78e91" vector-effect="non-scaling-stroke" d="
  M 157.40 520.65
  C 154.20 488.15 183.78 460.30 216.04 467.90
  C 228.21 470.76 238.94 477.97 247.42 487.02
  A 0.82 0.81 51.1 0 0 248.47 487.14
  L 313.65 442.88
  A 0.47 0.46 -35.9 0 0 313.76 442.21
  C 283.83 403.05 239.26 379.02 189.35 386.04
  C 148.55 391.78 111.41 417.41 91.19 453.17
  C 65.24 499.06 72.93 555.36 104.11 597.12
  C 120.28 618.77 143.79 634.25 169.49 641.60
  C 224.79 657.41 278.75 635.75 312.25 590.56
  Q 312.64 590.02 312.10 589.64
  L 248.62 544.62
  A 0.99 0.98 -52.1 0 0 247.29 544.79
  C 235.17 559.26 218.17 569.07 198.68 565.94
  C 176.56 562.39 159.56 542.54 157.40 520.65"
/>
<path stroke="#f78e91" vector-effect="non-scaling-stroke" d="
  M 756.54 395.51
  A 0.34 0.34 0.0 0 0 756.20 395.85
  L 756.20 490.15
  A 0.34 0.34 0.0 0 1 755.67 490.43
  L 599.11 387.54
  A 0.34 0.34 0.0 0 0 598.58 387.82
  L 598.58 635.04
  A 0.34 0.34 0.0 0 0 598.92 635.38
  L 673.42 635.38
  A 0.34 0.34 0.0 0 0 673.76 635.04
  L 673.76 541.76
  A 0.34 0.34 0.0 0 1 674.29 541.48
  L 827.98 645.36
  A 0.34 0.34 0.0 0 0 828.51 645.08
  L 828.51 395.85
  A 0.34 0.34 0.0 0 0 828.17 395.51
  L 756.54 395.51"
/>
<path stroke="#f78e91" vector-effect="non-scaling-stroke" d="
  M 496.08 395.14
  A 0.36 0.36 0.0 0 0 495.72 394.78
  L 412.86 394.78
  A 0.36 0.36 0.0 0 0 412.50 395.14
  L 412.50 635.76
  A 0.36 0.36 0.0 0 0 412.86 636.12
  L 495.72 636.12
  A 0.36 0.36 0.0 0 0 496.08 635.76
  L 496.08 395.14"
/>
<path stroke="#f78e91" vector-effect="non-scaling-stroke" d="
  M 1017.77 486.87
  A 0.40 0.40 0.0 0 1 1017.37 486.47
  L 1017.36 451.32
  A 0.40 0.40 0.0 0 1 1017.76 450.92
  L 1118.77 450.92
  A 0.40 0.40 0.0 0 0 1119.17 450.52
  L 1118.74 396.12
  A 0.40 0.40 0.0 0 0 1118.34 395.72
  L 935.20 395.71
  A 0.40 0.40 0.0 0 0 934.80 396.11
  L 934.67 635.81
  A 0.40 0.40 0.0 0 0 935.07 636.21
  L 1119.37 636.21
  A 0.40 0.40 0.0 0 0 1119.77 635.81
  L 1119.77 580.96
  A 0.40 0.40 0.0 0 0 1119.37 580.56
  L 1017.77 580.57
  A 0.40 0.40 0.0 0 1 1017.37 580.17
  L 1017.36 547.03
  A 0.40 0.40 0.0 0 1 1017.76 546.63
  L 1118.77 546.63
  A 0.40 0.40 0.0 0 0 1119.17 546.23
  L 1119.18 487.27
  A 0.40 0.40 0.0 0 0 1118.78 486.87
  L 1017.77 486.87"
/>
</g>
<path fill="#000000" d="
  M 80.45 0.00
  L 296.46 0.00
  L 296.47 62.55
  Q 296.47 63.04 295.98 63.04
  L 231.17 63.04
  Q 230.63 63.04 230.63 63.58
  L 230.63 239.15
  Q 230.63 239.52 230.27 239.52
  L 149.54 239.52
  A 0.49 0.48 0.0 0 1 149.05 239.04
  L 149.06 63.55
  Q 149.06 63.04 148.55 63.04
  L 80.54 63.04
  Q 80.08 63.04 80.09 62.59
  L 80.45 0.00
  Z"
/>
<path fill="#000000" d="
  M 372.69 0.00
  L 373.79 0.00
  Q 373.78 0.04 373.78 0.08
  Q 373.77 0.15 373.84 0.15
  Q 465.99 0.11 558.16 0.16
  Q 558.75 0.16 558.76 0.75
  L 559.10 54.50
  Q 559.10 54.86 558.74 54.86
  L 457.73 54.86
  A 0.41 0.41 0.0 0 0 457.32 55.27
  L 457.31 89.89
  A 0.60 0.60 0.0 0 0 457.91 90.49
  L 558.75 91.17
  Q 559.09 91.17 559.09 91.50
  L 559.09 149.45
  A 0.29 0.29 0.0 0 1 558.80 149.74
  L 457.52 149.74
  A 0.20 0.20 0.0 0 0 457.32 149.94
  L 457.31 182.77
  Q 457.31 183.22 457.77 183.22
  L 559.25 183.22
  Q 559.78 183.22 559.78 183.75
  L 559.78 238.01
  A 0.30 0.29 -90.0 0 1 559.49 238.31
  L 373.51 238.31
  Q 373.04 238.31 373.04 237.84
  L 372.69 0.00
  Z"
/>
<path fill="#000000" d="
  M 835.80 175.17
  L 835.80 238.00
  A 0.31 0.31 0.0 0 1 835.49 238.31
  L 663.29 238.31
  A 0.31 0.31 0.0 0 1 662.98 238.00
  L 662.98 1.55
  A 0.31 0.31 0.0 0 1 663.29 1.24
  L 745.61 0.50
  A 0.31 0.31 0.0 0 1 745.92 0.81
  L 745.92 174.55
  A 0.31 0.31 0.0 0 0 746.23 174.86
  L 835.49 174.86
  A 0.31 0.31 0.0 0 1 835.80 175.17
  Z"
/>
<path fill="#000000" d="
  M 1016.48 183.51
  L 1118.01 183.51
  A 0.48 0.48 0.0 0 1 1118.49 183.99
  L 1118.47 238.21
  A 0.48 0.48 0.0 0 1 1117.99 238.69
  L 933.70 238.69
  A 0.48 0.48 0.0 0 1 933.22 238.21
  L 933.38 0.96
  A 0.48 0.48 0.0 0 1 933.86 0.48
  L 1116.95 0.47
  A 0.48 0.48 0.0 0 1 1117.43 0.95
  L 1117.77 54.78
  A 0.48 0.48 0.0 0 1 1117.29 55.26
  L 1016.48 55.26
  A 0.48 0.48 0.0 0 0 1016.00 55.74
  L 1016.00 90.30
  A 0.48 0.48 0.0 0 0 1016.48 90.78
  L 1117.28 90.78
  A 0.48 0.48 0.0 0 1 1117.76 91.26
  L 1117.76 149.56
  A 0.48 0.48 0.0 0 1 1117.28 150.04
  L 1016.48 150.05
  A 0.48 0.48 0.0 0 0 1016.00 150.53
  L 1016.00 183.03
  A 0.48 0.48 0.0 0 0 1016.48 183.51
  Z"
/>
<path fill="#ee1c23" d="
  M 0.00 317.60
  L 1199.02 318.99
  Q 1199.55 318.99 1199.55 319.52
  L 1199.55 731.51
  A 0.30 0.30 0.0 0 1 1199.25 731.81
  L 1.25 731.16
  Q 0.77 731.15 0.77 730.68
  L 0.00 391.63
  L 0.00 317.60
  Z
  M 157.40 520.65
  C 154.20 488.15 183.78 460.30 216.04 467.90
  C 228.21 470.76 238.94 477.97 247.42 487.02
  A 0.82 0.81 51.1 0 0 248.47 487.14
  L 313.65 442.88
  A 0.47 0.46 -35.9 0 0 313.76 442.21
  C 283.83 403.05 239.26 379.02 189.35 386.04
  C 148.55 391.78 111.41 417.41 91.19 453.17
  C 65.24 499.06 72.93 555.36 104.11 597.12
  C 120.28 618.77 143.79 634.25 169.49 641.60
  C 224.79 657.41 278.75 635.75 312.25 590.56
  Q 312.64 590.02 312.10 589.64
  L 248.62 544.62
  A 0.99 0.98 -52.1 0 0 247.29 544.79
  C 235.17 559.26 218.17 569.07 198.68 565.94
  C 176.56 562.39 159.56 542.54 157.40 520.65
  Z
  M 756.54 395.51
  A 0.34 0.34 0.0 0 0 756.20 395.85
  L 756.20 490.15
  A 0.34 0.34 0.0 0 1 755.67 490.43
  L 599.11 387.54
  A 0.34 0.34 0.0 0 0 598.58 387.82
  L 598.58 635.04
  A 0.34 0.34 0.0 0 0 598.92 635.38
  L 673.42 635.38
  A 0.34 0.34 0.0 0 0 673.76 635.04
  L 673.76 541.76
  A 0.34 0.34 0.0 0 1 674.29 541.48
  L 827.98 645.36
  A 0.34 0.34 0.0 0 0 828.51 645.08
  L 828.51 395.85
  A 0.34 0.34 0.0 0 0 828.17 395.51
  L 756.54 395.51
  Z
  M 496.08 395.14
  A 0.36 0.36 0.0 0 0 495.72 394.78
  L 412.86 394.78
  A 0.36 0.36 0.0 0 0 412.50 395.14
  L 412.50 635.76
  A 0.36 0.36 0.0 0 0 412.86 636.12
  L 495.72 636.12
  A 0.36 0.36 0.0 0 0 496.08 635.76
  L 496.08 395.14
  Z
  M 1017.77 486.87
  A 0.40 0.40 0.0 0 1 1017.37 486.47
  L 1017.36 451.32
  A 0.40 0.40 0.0 0 1 1017.76 450.92
  L 1118.77 450.92
  A 0.40 0.40 0.0 0 0 1119.17 450.52
  L 1118.74 396.12
  A 0.40 0.40 0.0 0 0 1118.34 395.72
  L 935.20 395.71
  A 0.40 0.40 0.0 0 0 934.80 396.11
  L 934.67 635.81
  A 0.40 0.40 0.0 0 0 935.07 636.21
  L 1119.37 636.21
  A 0.40 0.40 0.0 0 0 1119.77 635.81
  L 1119.77 580.96
  A 0.40 0.40 0.0 0 0 1119.37 580.56
  L 1017.77 580.57
  A 0.40 0.40 0.0 0 1 1017.37 580.17
  L 1017.36 547.03
  A 0.40 0.40 0.0 0 1 1017.76 546.63
  L 1118.77 546.63
  A 0.40 0.40 0.0 0 0 1119.17 546.23
  L 1119.18 487.27
  A 0.40 0.40 0.0 0 0 1118.78 486.87
  L 1017.77 486.87
  Z"
/>
<path fill="#ffffff" d="
  M 216.04 467.90
  C 183.78 460.30 154.20 488.15 157.40 520.65
  C 159.56 542.54 176.56 562.39 198.68 565.94
  C 218.17 569.07 235.17 559.26 247.29 544.79
  A 0.99 0.98 -52.1 0 1 248.62 544.62
  L 312.10 589.64
  Q 312.64 590.02 312.25 590.56
  C 278.75 635.75 224.79 657.41 169.49 641.60
  C 143.79 634.25 120.28 618.77 104.11 597.12
  C 72.93 555.36 65.24 499.06 91.19 453.17
  C 111.41 417.41 148.55 391.78 189.35 386.04
  C 239.26 379.02 283.83 403.05 313.76 442.21
  A 0.47 0.46 -35.9 0 1 313.65 442.88
  L 248.47 487.14
  A 0.82 0.81 51.1 0 1 247.42 487.02
  C 238.94 477.97 228.21 470.76 216.04 467.90
  Z"
/>
<path fill="#ffffff" d="
  M 756.54 395.51
  L 828.17 395.51
  A 0.34 0.34 0.0 0 1 828.51 395.85
  L 828.51 645.08
  A 0.34 0.34 0.0 0 1 827.98 645.36
  L 674.29 541.48
  A 0.34 0.34 0.0 0 0 673.76 541.76
  L 673.76 635.04
  A 0.34 0.34 0.0 0 1 673.42 635.38
  L 598.92 635.38
  A 0.34 0.34 0.0 0 1 598.58 635.04
  L 598.58 387.82
  A 0.34 0.34 0.0 0 1 599.11 387.54
  L 755.67 490.43
  A 0.34 0.34 0.0 0 0 756.20 490.15
  L 756.20 395.85
  A 0.34 0.34 0.0 0 1 756.54 395.51
  Z"
/>
<rect fill="#ffffff" x="412.50" y="394.78" width="83.58" height="241.34" rx="0.36"/>
<path fill="#ffffff" d="
  M 1017.77 486.87
  L 1118.78 486.87
  A 0.40 0.40 0.0 0 1 1119.18 487.27
  L 1119.17 546.23
  A 0.40 0.40 0.0 0 1 1118.77 546.63
  L 1017.76 546.63
  A 0.40 0.40 0.0 0 0 1017.36 547.03
  L 1017.37 580.17
  A 0.40 0.40 0.0 0 0 1017.77 580.57
  L 1119.37 580.56
  A 0.40 0.40 0.0 0 1 1119.77 580.96
  L 1119.77 635.81
  A 0.40 0.40 0.0 0 1 1119.37 636.21
  L 935.07 636.21
  A 0.40 0.40 0.0 0 1 934.67 635.81
  L 934.80 396.11
  A 0.40 0.40 0.0 0 1 935.20 395.71
  L 1118.34 395.72
  A 0.40 0.40 0.0 0 1 1118.74 396.12
  L 1119.17 450.52
  A 0.40 0.40 0.0 0 1 1118.77 450.92
  L 1017.76 450.92
  A 0.40 0.40 0.0 0 0 1017.36 451.32
  L 1017.37 486.47
  A 0.40 0.40 0.0 0 0 1017.77 486.87
  Z"
/>
</svg>
