<?xml version="1.0" encoding="UTF-8" standalone="no"?>
<!DOCTYPE svg PUBLIC "-//W3C//DTD SVG 1.1//EN" "http://www.w3.org/Graphics/SVG/1.1/DTD/svg11.dtd">
<svg xmlns="http://www.w3.org/2000/svg" version="1.1" viewBox="0.00 0.00 1280.00 389.00">
<path fill="#107c10" d="
  M 170.34 45.02
  Q 150.71 35.88 129.82 30.40
  C 119.03 27.56 108.76 27.13 97.91 27.80
  Q 95.43 27.96 97.10 26.11
  Q 97.55 25.61 99.12 24.79
  C 122.98 12.37 147.69 3.67 174.44 1.61
  C 196.55 -0.09 219.85 0.49 241.02 6.20
  C 258.54 10.92 277.29 17.74 292.58 27.65
  Q 293.13 28.00 292.47 28.00
  Q 287.69 27.96 283.00 27.54
  Q 275.17 26.84 261.27 29.91
  Q 240.08 34.59 220.31 43.59
  Q 207.28 49.53 194.30 55.47
  A 2.61 2.59 45.8 0 1 192.07 55.43
  Q 181.52 50.23 170.34 45.02
  Z"
/>
<path fill="#107c10" d="
  M 373.13 266.83
  C 368.19 279.70 361.03 292.05 353.70 303.70
  Q 351.21 307.65 348.67 310.56
  Q 347.55 311.83 347.87 310.17
  C 348.60 306.34 349.35 302.45 349.26 298.58
  C 348.77 278.51 341.84 259.03 333.07 240.67
  C 314.27 201.31 290.40 162.61 265.17 129.58
  Q 261.39 124.63 247.59 107.27
  Q 247.26 106.85 247.65 106.49
  Q 258.53 96.24 269.67 86.43
  C 283.66 74.10 299.00 62.58 316.74 56.53
  C 320.65 55.19 325.79 53.49 329.43 56.82
  C 357.33 82.34 375.54 119.41 383.22 156.03
  C 387.04 174.22 386.98 194.51 385.90 213.00
  C 384.82 231.53 379.74 249.58 373.13 266.83
  Z"
/>
<path fill="#107c10" d="
  M 0.00 198.62
  L 0.00 190.99
  Q 1.39 175.31 4.02 159.75
  C 10.19 123.33 29.05 84.07 56.78 58.02
  Q 61.58 53.50 68.07 55.47
  Q 83.76 60.22 97.79 70.46
  C 113.42 81.86 126.66 93.94 140.39 106.55
  Q 140.78 106.90 140.44 107.31
  Q 91.23 166.57 56.78 235.55
  C 49.26 250.59 42.32 269.29 39.35 287.26
  C 37.99 295.48 37.30 303.65 40.24 310.67
  Q 40.92 312.29 39.60 311.13
  Q 38.39 310.07 37.04 308.18
  C 13.58 275.29 3.31 238.49 0.00 198.62
  Z"
/>
<path fill="#107c10" d="
  M 1004.92 318.26
  C 963.68 323.71 923.24 308.92 899.62 273.91
  C 878.77 243.01 874.40 202.89 882.42 167.24
  C 891.77 125.70 921.42 93.55 963.43 84.54
  C 997.89 77.14 1035.11 84.91 1061.54 109.30
  C 1091.96 137.37 1101.73 180.82 1096.46 220.75
  C 1089.81 271.10 1056.57 311.43 1004.92 318.26
  Z
  M 1058.37 146.14
  C 1040.82 115.10 1006.54 100.71 971.93 107.47
  C 940.85 113.54 917.95 136.64 909.43 166.74
  C 900.23 199.18 903.92 238.76 925.34 265.66
  C 943.97 289.05 973.54 299.18 1003.00 294.18
  C 1070.50 282.73 1087.39 197.50 1058.37 146.14
  Z"
/>
<path fill="#107c10" d="
  M 575.76 216.23
  L 502.81 314.39
  A 0.31 0.31 0.0 0 1 502.56 314.52
  L 473.04 314.51
  A 0.31 0.31 0.0 0 1 472.79 314.02
  L 560.62 195.62
  A 0.31 0.31 0.0 0 0 560.62 195.25
  L 480.43 87.66
  A 0.31 0.31 0.0 0 1 480.68 87.16
  L 510.20 87.16
  A 0.31 0.31 0.0 0 1 510.45 87.28
  L 575.76 175.01
  A 0.31 0.31 0.0 0 0 576.26 175.01
  L 641.56 87.28
  A 0.31 0.31 0.0 0 1 641.81 87.16
  L 671.15 87.16
  A 0.31 0.31 0.0 0 1 671.40 87.66
  L 591.39 195.07
  A 0.31 0.31 0.0 0 0 591.39 195.44
  L 679.18 314.02
  A 0.31 0.31 0.0 0 1 678.94 314.51
  L 649.27 314.52
  A 0.31 0.31 0.0 0 1 649.02 314.39
  L 576.26 216.23
  A 0.31 0.31 0.0 0 0 575.76 216.23
  Z"
/>
<path fill="#107c10" d="
  M 832.80 194.58
  C 858.56 206.58 869.87 229.89 866.58 257.46
  C 861.70 298.50 822.13 314.55 785.50 314.46
  Q 738.98 314.35 692.45 314.24
  Q 691.94 314.24 691.94 313.74
  L 691.94 208.44
  Q 691.94 207.94 691.44 207.94
  L 644.70 207.95
  Q 643.99 207.95 644.41 207.37
  L 660.48 185.58
  Q 660.74 185.22 661.18 185.22
  L 691.48 185.22
  A 0.46 0.45 0.0 0 0 691.94 184.77
  L 691.94 87.50
  Q 691.94 87.17 692.27 87.17
  Q 740.97 87.12 789.75 87.20
  C 824.36 87.26 855.65 104.83 859.38 142.36
  C 861.59 164.59 851.78 182.49 832.77 194.01
  Q 832.26 194.33 832.80 194.58
  Z
  M 833.74 141.51
  C 830.38 116.48 806.97 110.89 785.24 110.80
  Q 751.78 110.66 718.25 110.77
  Q 717.75 110.77 717.75 111.27
  L 717.75 184.48
  Q 717.75 184.98 718.25 184.99
  Q 752.50 185.05 786.75 184.95
  C 812.96 184.87 837.80 171.78 833.74 141.51
  Z
  M 819.23 213.86
  Q 805.74 208.33 792.24 208.05
  Q 775.33 207.69 718.23 208.04
  Q 717.75 208.04 717.75 208.52
  L 717.75 290.00
  Q 717.75 290.52 718.28 290.52
  Q 753.39 290.60 788.50 290.37
  C 816.07 290.18 842.51 278.03 841.48 246.23
  Q 840.71 222.68 819.23 213.86
  Z"
/>
<path fill="#107c10" d="
  M 1280.00 312.34
  L 1280.00 314.49
  L 1251.70 314.48
  Q 1251.13 314.48 1250.79 314.03
  L 1178.17 216.30
  A 0.38 0.38 0.0 0 0 1177.56 216.30
  L 1105.09 314.09
  Q 1104.77 314.52 1104.24 314.52
  L 1075.02 314.51
  A 0.28 0.28 0.0 0 1 1074.80 314.06
  L 1162.36 195.79
  A 0.61 0.59 -45.6 0 0 1162.36 195.08
  L 1082.35 87.48
  A 0.20 0.20 0.0 0 1 1082.51 87.16
  L 1111.70 87.16
  A 1.04 1.04 0.0 0 1 1112.54 87.59
  L 1177.58 174.96
  Q 1177.87 175.34 1178.15 174.96
  L 1243.15 87.65
  Q 1243.51 87.16 1244.12 87.16
  L 1273.33 87.16
  A 0.25 0.24 18.1 0 1 1273.53 87.55
  L 1193.37 194.90
  Q 1193.12 195.24 1193.37 195.59
  L 1280.00 312.34
  Z"
/>
<path fill="#107c10" d="
  M 193.88 388.00
  C 150.20 388.45 109.18 373.74 74.65 347.35
  C 67.41 341.82 61.48 335.59 61.60 325.77
  C 61.74 314.20 66.71 301.95 72.14 291.90
  Q 79.90 277.52 89.50 264.28
  C 115.43 228.51 146.74 196.20 180.23 167.47
  Q 185.99 162.53 192.37 158.20
  A 3.20 3.20 0.0 0 1 196.00 158.22
  Q 202.39 162.65 208.42 168.09
  Q 231.74 189.12 257.14 215.61
  C 282.15 241.69 307.03 271.11 321.19 304.12
  Q 325.53 314.25 326.30 325.24
  C 327.01 335.32 321.25 340.77 313.81 346.54
  C 299.73 357.44 284.39 366.25 268.20 373.29
  C 244.81 383.46 219.31 387.74 193.88 388.00
  Z"
/>
</svg>
