<svg xmlns="http://www.w3.org/2000/svg" viewBox="0 0 2000 606.1" style="enable-background:new 0 0 2000 606.1" xml:space="preserve"><ellipse cx="308.1" cy="303" rx="308.1" ry="303" style="fill:red"/><ellipse cx="308.1" cy="303" rx="184.3" ry="181.8" style="fill:red;stroke:#fff;stroke-width:1.2"/><path style="fill:#fff" d="M244.9 391.4 406.6 303l-161.7-88.4z"/><path d="M944.4 242.4c-15.2 73.2-25.3 159.1-30.3 197H909c-5.1-37.9-15.2-123.7-30.3-194.4L840.9 68.2H727.3v477.3H798v-394l7.6 37.9 73.2 356.1h70.7l70.7-356.1 5.1-37.9v391.4h70.7V68.2H979.8c2.5 0-35.4 174.2-35.4 174.2zM1287.9 472.2c-7.6 12.6-20.2 22.7-35.4 22.7s-22.7-12.6-22.7-42.9V197H1149v257.6c0 63.1 22.7 93.4 70.7 93.4 32.8 0 58.1-15.2 78.3-48h2.5l7.6 42.9h63.1V197h-83.3v275.2zM1525.3 333.3c-25.3-17.7-42.9-30.3-42.9-58.1 0-20.2 10.1-30.3 30.3-30.3 22.7 0 30.3 15.2 30.3 68.2l68.2-2.5c5.1-83.3-22.7-118.7-98.5-118.7-68.2 0-103.5 30.3-103.5 90.9 0 55.6 27.8 80.8 73.2 116.2 40.4 30.3 63.1 45.5 63.1 70.7 0 17.7-12.6 30.3-32.8 30.3-25.3 0-37.9-22.7-35.4-60.6h-68.2c-10.1 73.2 20.2 113.6 98.5 113.6 70.7 0 106.1-30.3 106.1-93.4 5-58.1-25.3-80.8-88.4-126.3zM1739.9 197h-78.3v345.9h78.3zM1702 58.1c-30.3 0-42.9 10.1-42.9 48s15.2 48 42.9 48c30.3 0 42.9-10.1 42.9-48 0-35.4-12.6-48-42.9-48zM2000 419.2l-70.7-2.5c0 60.6-7.6 80.8-30.3 80.8-22.7 0-27.8-22.7-27.8-93.4v-68.2c0-70.7 5.1-90.9 27.8-90.9s27.8 20.2 27.8 85.9l70.7-5.1c5.1-53-2.5-90.9-22.7-111.1-15.2-15.2-40.4-22.7-73.2-22.7-78.3 0-111.1 40.4-111.1 156.6v48c0 118.7 27.8 156.6 108.6 156.6 32.8 0 58.1-7.6 73.2-22.7 20.1-22.9 27.7-58.3 27.7-111.3z"/></svg>